<svg width="44" height="44" viewBox="0 0 44 44" fill="none" xmlns="http://www.w3.org/2000/svg">
<g id="Second World metaverse Icon dark 1" clip-path="url(#clip0_948_5506)">
<g id="Clip path group">
<mask id="mask0_948_5506" style="mask-type:luminance" maskUnits="userSpaceOnUse" x="0" y="0" width="45" height="45">
<g id="clip0_948_4631">
<path id="Vector" d="M44.0859 0H0V44.0859H44.0859V0Z" fill="white"/>
</g>
</mask>
<g mask="url(#mask0_948_5506)">
<g id="Group">
<path id="Vector_2" d="M10.8736 7.83887L11.2037 10.7962L14.161 11.1263L11.2037 11.4563L10.8736 14.4135L10.5435 11.4563L7.58627 11.1263L10.5435 10.7962L10.8736 7.83887Z" fill="#777B89"/>
<path id="Vector_3" d="M35.2759 12.8965L35.4663 14.6026L37.1724 14.793L35.4663 14.9835L35.2759 16.6896L35.0855 14.9835L33.3793 14.793L35.0855 14.6026L35.2759 12.8965Z" fill="#777B89"/>
<path id="Vector_4" fill-rule="evenodd" clip-rule="evenodd" d="M0.101105 24.1217C6.11644 19.3499 13.7254 16.5 22 16.5C30.2747 16.5 37.8837 19.3499 43.899 24.1217C42.8315 35.2765 33.4345 43.9999 22 43.9999C10.5656 43.9999 1.16855 35.2765 0.101105 24.1217Z" fill="#777B89"/>
<path id="Vector_5" d="M29.8391 11.1565L30.3755 10.6201L30.9119 11.1565L30.3755 11.693L29.8391 11.1565Z" fill="#777B89"/>
<path id="Vector_6" d="M4.29889 17.4788L4.83532 16.9424L5.37174 17.4788L4.83532 18.0152L4.29889 17.4788Z" fill="#777B89"/>
<path id="Vector_7" opacity="0.1" fill-rule="evenodd" clip-rule="evenodd" d="M10.5707 3.19816C13.9017 1.16894 17.8144 0 22.0001 0C26.1858 0 30.0984 1.16894 33.4295 3.19816C31.2738 7.30983 26.9645 10.1149 22.0001 10.1149C17.0356 10.1149 12.7263 7.30983 10.5707 3.19816Z" fill="#777B89"/>
<path id="Vector_8" opacity="0.1" fill-rule="evenodd" clip-rule="evenodd" d="M31.881 2.33845C30.0281 5.90698 26.2988 8.34481 22 8.34481C17.7013 8.34481 13.972 5.90698 12.1191 2.33845C15.0901 0.842411 18.4467 0 22 0C25.5534 0 28.91 0.842411 31.881 2.33845Z" fill="#777B89"/>
<path id="Vector_9" fill-rule="evenodd" clip-rule="evenodd" d="M30.3887 1.65587C28.7441 4.59093 25.6037 6.57469 22 6.57469C18.3963 6.57469 15.2559 4.59093 13.6113 1.65587C16.1965 0.58872 19.0295 0 22 0C24.9705 0 27.8035 0.58872 30.3887 1.65587Z" fill="#777B89"/>
<path id="Vector_10" fill-rule="evenodd" clip-rule="evenodd" d="M0.993713 28.557C1.01122 28.5619 1.02883 28.5669 1.04654 28.5718C1.55397 28.7142 2.14533 28.8802 2.78166 29.0462V27.8163C2.78166 27.537 3.0081 27.3105 3.28741 27.3105H7.83912C8.11844 27.3105 8.34487 27.537 8.34487 27.8163V29.9248C8.52046 29.9191 8.69017 29.9073 8.85302 29.8888C8.85139 29.8725 8.85062 29.856 8.85062 29.8393V27.0577C8.85062 26.7784 9.07706 26.5519 9.35636 26.5519H13.908C14.1874 26.5519 14.4138 26.7784 14.4138 27.0577V28.3704C14.5821 28.364 14.7505 28.3614 14.9195 28.3621V22.0955C14.9195 21.8034 15.1293 21.6539 15.4382 21.4336C15.5239 21.3726 15.6172 21.3061 15.7157 21.2296L18.9848 19.0176C19.4096 18.8423 19.7716 19.3209 19.7716 19.6939V28.6338C19.918 28.637 20.0673 28.6394 20.2196 28.6406C20.2146 28.5983 20.2119 28.555 20.2119 28.5108V18.8704C20.2116 18.4152 20.493 18.0472 20.8394 18.0472H20.9031V16.9655C20.9031 16.7823 20.9739 16.622 21.0822 16.527L22.0364 15.2771C22.0364 15.2771 22.0395 15.2752 22.0407 15.2731V14.3027C22.0405 14.2246 22.089 14.1611 22.1487 14.1611C22.2075 14.1611 22.2558 14.2246 22.2558 14.3027V15.2733C22.2574 15.2752 22.2588 15.2752 22.2588 15.2752L23.2132 16.5265C23.3209 16.622 23.3919 16.7823 23.3919 16.9655V18.0472H23.4561C23.8025 18.0472 24.0836 18.4152 24.0836 18.8704V28.44C24.2497 28.4219 24.4101 28.4028 24.5653 28.383V22.584C24.4137 22.573 24.3174 22.5583 24.3174 22.5414V21.8647H24.3186C24.3186 21.838 24.5554 21.8161 24.8772 21.8091V21.0107C24.8772 20.9514 24.9844 20.8999 25.1464 20.8702L26.5814 20.4693C26.6927 20.4435 26.8084 20.4435 26.9196 20.4693L28.3547 20.8697C28.5166 20.8999 28.6243 20.9514 28.6243 21.0107V21.8122C28.8929 21.8211 29.0805 21.8409 29.0805 21.8647V22.5414C29.0805 22.5581 28.9841 22.573 28.8313 22.584V27.2692C28.9667 27.2109 29.0986 27.1528 29.2295 27.0952L29.3333 27.0494V24.529C29.3333 24.2496 29.5597 24.0232 29.839 24.0232H34.3908C34.6701 24.0232 34.8966 24.2496 34.8966 24.529V25.9254C34.9795 25.9232 35.0637 25.9213 35.1494 25.9197C35.2342 25.9182 35.3185 25.9169 35.4023 25.9157V25.2875C35.4023 25.0082 35.6287 24.7818 35.908 24.7818H40.4597C40.739 24.7818 40.9655 25.0082 40.9655 25.2875V26.3162C41.9189 26.495 42.7371 26.7282 43.4278 27.0063C41.1617 36.7446 32.4282 44.0002 22 44.0002C12.1333 44.0002 3.78373 37.5049 0.993713 28.557Z" fill="#A0A6BC"/>
<path id="Vector_11" fill-rule="evenodd" clip-rule="evenodd" d="M22 42.9884C33.5916 42.9884 42.9884 33.5915 42.9884 21.9999C42.9884 10.4083 33.5916 1.01149 22 1.01149C10.4084 1.01149 1.01155 10.4083 1.01155 21.9999C1.01155 33.5915 10.4084 42.9884 22 42.9884ZM22 43.9999C34.1503 43.9999 43.9999 34.1502 43.9999 21.9999C43.9999 9.84973 34.1503 0 22 0C9.84981 0 6.10352e-05 9.84973 6.10352e-05 21.9999C6.10352e-05 34.1502 9.84981 43.9999 22 43.9999Z" fill="#777B89"/>
</g>
</g>
</g>
</g>
<defs>
<clipPath id="clip0_948_5506">
<rect width="44" height="44" fill="white"/>
</clipPath>
</defs>
</svg>
