<svg width="184" height="25" viewBox="0 0 184 25" fill="none" xmlns="http://www.w3.org/2000/svg">
<g id="Group 180">
<g id="Second world">
<path d="M2.67455 11.9342C1.75602 11.9342 1.08062 11.8936 0.648375 11.8126C0.216125 11.7315 0 11.637 0 11.5289L0.810469 9.76615C1.12115 9.82018 1.89109 9.87421 3.1203 9.92824C4.36302 9.96877 6.06501 9.98903 8.22626 9.98903H8.61123C9.19206 9.98903 9.60405 9.88772 9.84719 9.6851C10.0903 9.46898 10.2119 9.11102 10.2119 8.61123V8.206C10.2119 7.73322 10.1106 7.39553 9.90798 7.19291C9.71887 6.99029 9.28662 6.88898 8.61123 6.88898H3.91051C2.54622 6.88898 1.5534 6.63909 0.932039 6.1393C0.31068 5.626 0 4.79527 0 3.64711V3.32292C0 2.72858 0.108062 2.18151 0.324187 1.68172C0.55382 1.18193 0.938793 0.783453 1.47911 0.486282C2.01942 0.175602 2.76235 0.0202627 3.70789 0.0202627H9.21908C10.1376 0.0202627 10.8805 0.0675398 11.4479 0.162094C12.0152 0.256649 12.2989 0.357958 12.2989 0.466019L11.8936 2.168C11.5424 2.12748 10.7455 2.08696 9.50275 2.04643C8.26003 1.9924 6.59181 1.96539 4.4981 1.96539L4.27522 1.94512C3.65386 1.94512 3.23512 2.07345 3.019 2.3301C2.80287 2.57324 2.68805 2.88392 2.67455 3.26214V3.60659C2.67455 4.05234 2.79612 4.39004 3.03926 4.61967C3.29591 4.8358 3.71465 4.94386 4.29548 4.94386H8.79358C9.65808 4.94386 10.3943 5.03166 11.0021 5.20726C11.61 5.38286 12.076 5.70705 12.4002 6.17982C12.7244 6.63909 12.8865 7.32123 12.8865 8.22626V8.55044C12.8865 9.56353 12.623 10.3808 12.0962 11.0021C11.5829 11.6235 10.6847 11.9342 9.40144 11.9342H2.67455Z" fill="#333A4D"/>
<path d="M15.7202 11.9342V0.0202627H28.323V1.96539H18.3948V4.7615H25.9727V6.76741H18.3948V9.98903H28.4041L29.2145 11.7113C29.2145 11.7653 29.0322 11.8193 28.6675 11.8734C28.3028 11.9139 27.6747 11.9342 26.7831 11.9342H15.7202Z" fill="#333A4D"/>
<path d="M34.7384 11.9342C33.7793 11.9342 33.0297 11.7991 32.4893 11.5289C31.949 11.2588 31.5708 10.8535 31.3547 10.3132C31.1386 9.7729 31.0305 9.10426 31.0305 8.3073V3.78894C31.0305 2.49219 31.3209 1.53989 31.9018 0.932039C32.4826 0.31068 33.4281 0 34.7384 0H40.8372C41.7692 0 42.4784 0.0540314 42.9646 0.162094C43.4644 0.256649 43.7143 0.357958 43.7143 0.466019L43.3091 2.14774C43.0795 2.10722 42.3973 2.0667 41.2627 2.02617C40.1415 1.97214 38.5071 1.94512 36.3593 1.94512H35.326C34.2454 1.94512 33.705 2.42465 33.705 3.38371V8.55044C33.705 9.00971 33.8199 9.36767 34.0495 9.62432C34.2926 9.86746 34.7181 9.98903 35.326 9.98903H36.1567C38.399 9.98903 40.1348 9.96877 41.364 9.92824C42.6067 9.87421 43.3766 9.82018 43.6738 9.76615L44.5045 11.1034C44.5045 11.171 44.3897 11.2723 44.1601 11.4073C43.944 11.5424 43.5387 11.664 42.9444 11.7721C42.35 11.8801 41.4923 11.9342 40.3712 11.9342H34.7384Z" fill="#333A4D"/>
<path d="M50.0336 11.9342C49.0881 11.9342 48.3451 11.7991 47.8048 11.5289C47.2645 11.2588 46.8795 10.8535 46.6499 10.3132C46.4338 9.7729 46.3257 9.10426 46.3257 8.3073V3.62685C46.3257 2.84339 46.4338 2.18827 46.6499 1.66146C46.866 1.12115 47.2443 0.715914 47.7846 0.445758C48.3249 0.162094 49.0746 0.0202627 50.0336 0.0202627H55.95C56.8956 0.0202627 57.6318 0.162094 58.1586 0.445758C58.6989 0.715914 59.0771 1.12115 59.2932 1.66146C59.5229 2.18827 59.6377 2.84339 59.6377 3.62685V8.3073C59.6377 9.49599 59.3743 10.401 58.8475 11.0224C58.3207 11.6302 57.3549 11.9342 55.95 11.9342H50.0336ZM50.6212 9.98903H55.3827C55.8825 9.98903 56.2675 9.8607 56.5376 9.60405C56.8213 9.34741 56.9631 8.9962 56.9631 8.55044V3.38371C56.9631 2.99198 56.8213 2.66104 56.5376 2.39088C56.254 2.10722 55.869 1.96539 55.3827 1.96539H50.6212C50.1349 1.96539 49.7432 2.09371 49.446 2.35036C49.1489 2.60701 49.0003 2.95146 49.0003 3.38371V8.55044C49.0003 9.00971 49.1421 9.36767 49.4258 9.62432C49.7229 9.86746 50.1214 9.98903 50.6212 9.98903Z" fill="#333A4D"/>
<path d="M62.877 11.9342V1.6412L62.6744 0.0202627H65.5921L72.4811 7.23343L73.2713 8.32757H73.4942V0.0202627H76.1687V11.9342H73.5955L66.5444 4.59941L65.7542 3.64711H65.5516V11.9342H62.877Z" fill="#333A4D"/>
<path d="M79.6167 11.9342V1.6412L79.4141 0.0202627H88.8155C89.9096 0.0202627 90.7471 0.155341 91.3279 0.425497C91.9223 0.695653 92.3343 1.10089 92.5639 1.6412C92.7935 2.168 92.9084 2.82989 92.9084 3.62685V8.3073C92.9084 9.11777 92.7935 9.79316 92.5639 10.3335C92.3478 10.8603 91.9425 11.2588 91.3482 11.5289C90.7674 11.7991 89.9231 11.9342 88.8155 11.9342H79.6167ZM82.2912 9.98903H88.6534C89.6935 9.98903 90.2203 9.5095 90.2338 8.55044V3.38371C90.2338 2.99198 90.119 2.66104 89.8894 2.39088C89.6597 2.10722 89.2477 1.96539 88.6534 1.96539H82.2912V9.98903Z" fill="#333A4D"/>
<path d="M103.128 11.9342L98.7719 0.0405241H101.609L104.465 7.82102L104.931 9.78641H105.134L105.397 8.40861L108.092 0.0405241H111.537L114.353 8.40861L114.718 9.78641H114.92L115.387 7.82102L118.041 0.0405241H120.877L120.675 1.25623L116.501 11.9342H113.056L110.301 3.9713L109.896 2.67455H109.693L109.308 3.9713L106.573 11.9342H103.128Z" fill="#333A4D"/>
<path d="M126.213 11.9342C125.267 11.9342 124.524 11.7991 123.984 11.5289C123.444 11.2588 123.059 10.8535 122.829 10.3132C122.613 9.7729 122.505 9.10426 122.505 8.3073V3.62685C122.505 2.84339 122.613 2.18827 122.829 1.66146C123.045 1.12115 123.424 0.715914 123.964 0.445758C124.504 0.162094 125.254 0.0202627 126.213 0.0202627H132.129C133.075 0.0202627 133.811 0.162094 134.338 0.445758C134.878 0.715914 135.256 1.12115 135.473 1.66146C135.702 2.18827 135.817 2.84339 135.817 3.62685V8.3073C135.817 9.49599 135.554 10.401 135.027 11.0224C134.5 11.6302 133.534 11.9342 132.129 11.9342H126.213ZM126.801 9.98903H131.562C132.062 9.98903 132.447 9.8607 132.717 9.60405C133.001 9.34741 133.142 8.9962 133.142 8.55044V3.38371C133.142 2.99198 133.001 2.66104 132.717 2.39088C132.433 2.10722 132.048 1.96539 131.562 1.96539H126.801C126.314 1.96539 125.922 2.09371 125.625 2.35036C125.328 2.60701 125.18 2.95146 125.18 3.38371V8.55044C125.18 9.00971 125.321 9.36767 125.605 9.62432C125.902 9.86746 126.301 9.98903 126.801 9.98903Z" fill="#333A4D"/>
<path d="M151.801 12.1368C151.261 12.1368 150.727 12.0557 150.2 11.8936C149.687 11.718 149.099 11.2993 148.437 10.6374L146.979 9.17856C146.384 8.57071 145.729 8.12495 145.013 7.84128C144.311 7.55762 143.426 7.41579 142.359 7.41579H141.731V11.9342H139.056V1.6412L138.854 0H147.83C148.694 0 149.37 0.114817 149.856 0.34445C150.356 0.574083 150.72 0.878008 150.95 1.25623C151.193 1.62094 151.348 2.01266 151.416 2.43141C151.483 2.85015 151.517 3.24863 151.517 3.62685V4.01182C151.517 4.30899 151.477 4.63993 151.396 5.00464C151.315 5.36935 151.159 5.72731 150.93 6.07851C150.7 6.42972 150.369 6.72689 149.937 6.97003C149.518 7.21317 148.964 7.355 148.275 7.39553C148.451 7.49008 148.674 7.63867 148.944 7.84128C149.214 8.03039 149.491 8.23976 149.775 8.4694C150.072 8.69903 150.342 8.9084 150.585 9.09751C150.828 9.28662 151.017 9.4217 151.153 9.50275C151.639 9.78641 152.071 9.98227 152.449 10.0903C152.828 10.1984 153.138 10.2592 153.381 10.2727C153.624 10.2862 153.766 10.293 153.807 10.293L153.402 11.9342C153.28 11.9747 153.077 12.0152 152.794 12.0557C152.51 12.1098 152.179 12.1368 151.801 12.1368ZM144.77 5.57197C145.283 5.57197 145.743 5.56522 146.148 5.55171C146.553 5.52469 146.918 5.49768 147.242 5.47066C147.836 5.40312 148.248 5.24103 148.478 4.98438C148.721 4.71423 148.843 4.36978 148.843 3.95103V3.48502C148.843 3.05277 148.728 2.68805 148.498 2.39088C148.269 2.09371 147.857 1.94512 147.262 1.94512H141.731V5.47066C142.325 5.51119 142.872 5.5382 143.372 5.55171C143.872 5.56522 144.338 5.57197 144.77 5.57197Z" fill="#333A4D"/>
<path d="M155.633 11.9342L155.836 10.3132V0.0202627H158.51V9.98903H166.898L167.709 11.7113C167.709 11.7653 167.527 11.8193 167.162 11.8734C166.797 11.9139 166.169 11.9342 165.277 11.9342H155.633Z" fill="#333A4D"/>
<path d="M169.726 11.9342V1.6412L169.523 0.0202627H178.925C180.019 0.0202627 180.856 0.155341 181.437 0.425497C182.032 0.695653 182.443 1.10089 182.673 1.6412C182.903 2.168 183.018 2.82989 183.018 3.62685V8.3073C183.018 9.11777 182.903 9.79316 182.673 10.3335C182.457 10.8603 182.052 11.2588 181.457 11.5289C180.877 11.7991 180.032 11.9342 178.925 11.9342H169.726ZM172.4 9.98903H178.763C179.803 9.98903 180.33 9.5095 180.343 8.55044V3.38371C180.343 2.99198 180.228 2.66104 179.999 2.39088C179.769 2.10722 179.357 1.96539 178.763 1.96539H172.4V9.98903Z" fill="#333A4D"/>
</g>
<g id="metaverse" opacity="0.8">
<path d="M25.2829 24.5977V19.4512L25.1816 18.6408H26.7215L29.0111 22.6931L31.3817 18.6408H32.7494V24.5977H31.4121V20.8189H31.3007L30.9056 21.7003L29.6291 23.9899H28.4033L27.1268 21.7003L26.7215 20.8189H26.6202V24.5977H25.2829Z" fill="#333A4D"/>
<path d="M42.5786 24.5977V18.6408H48.88V19.6133H43.9159V21.0114H47.7048V22.0144H43.9159V23.6252H48.9205L49.3258 24.4863C49.3258 24.5133 49.2346 24.5403 49.0522 24.5673C48.8699 24.5876 48.5558 24.5977 48.1101 24.5977H42.5786Z" fill="#333A4D"/>
<path d="M60.5774 24.5977L60.5672 19.6032H57.9332V18.6306H64.5588V19.6032H61.9146V24.5977H60.5774Z" fill="#333A4D"/>
<path d="M71.7539 24.5977L74.7222 18.6408H76.718L79.6762 24.5977H78.1161L77.5184 23.3111H73.8915L73.233 24.5977H71.7539ZM74.2562 22.3183H77.1435L75.7556 19.5526H75.6543L74.2562 22.3183Z" fill="#333A4D"/>
<path d="M89.7241 24.5977L86.8976 18.6509H88.3159L90.2205 22.7539L90.494 23.4833H90.5852L90.8486 22.7539L92.7735 18.6509H94.1512L93.9892 19.2588L91.345 24.5977H89.7241Z" fill="#333A4D"/>
<path d="M103.272 24.5977V18.6408H109.574V19.6133H104.61V21.0114H108.399V22.0144H104.61V23.6252H109.614L110.02 24.4863C110.02 24.5133 109.928 24.5403 109.746 24.5673C109.564 24.5876 109.25 24.5977 108.804 24.5977H103.272Z" fill="#333A4D"/>
<path d="M125.708 24.699C125.438 24.699 125.171 24.6585 124.908 24.5775C124.651 24.4897 124.358 24.2803 124.027 23.9493L123.297 23.2199C123 22.916 122.673 22.6931 122.315 22.5513C121.963 22.4095 121.521 22.3385 120.987 22.3385H120.673V24.5977H119.336V19.4512L119.235 18.6306H123.723C124.155 18.6306 124.493 18.6881 124.736 18.8029C124.986 18.9177 125.168 19.0696 125.283 19.2588C125.404 19.4411 125.482 19.637 125.516 19.8463C125.55 20.0557 125.567 20.255 125.567 20.4441V20.6366C125.567 20.7851 125.546 20.9506 125.506 21.133C125.465 21.3153 125.388 21.4943 125.273 21.6699C125.158 21.8455 124.992 21.9941 124.776 22.1157C124.567 22.2372 124.29 22.3081 123.946 22.3284C124.033 22.3757 124.145 22.45 124.28 22.5513C124.415 22.6458 124.553 22.7505 124.695 22.8653C124.844 22.9802 124.979 23.0848 125.101 23.1794C125.222 23.274 125.317 23.3415 125.384 23.382C125.627 23.5239 125.843 23.6218 126.033 23.6758C126.222 23.7298 126.377 23.7602 126.499 23.767C126.62 23.7737 126.691 23.7771 126.711 23.7771L126.509 24.5977C126.448 24.618 126.347 24.6382 126.205 24.6585C126.063 24.6855 125.898 24.699 125.708 24.699ZM122.193 21.4166C122.45 21.4166 122.679 21.4133 122.882 21.4065C123.084 21.393 123.267 21.3795 123.429 21.366C123.726 21.3322 123.932 21.2512 124.047 21.1228C124.169 20.9878 124.229 20.8155 124.229 20.6062V20.3732C124.229 20.157 124.172 19.9747 124.057 19.8261C123.942 19.6775 123.736 19.6032 123.439 19.6032H120.673V21.366C120.971 21.3862 121.244 21.3997 121.494 21.4065C121.744 21.4133 121.977 21.4166 122.193 21.4166Z" fill="#333A4D"/>
<path d="M136.965 24.5977C136.506 24.5977 136.168 24.5775 135.952 24.5369C135.736 24.4964 135.628 24.4491 135.628 24.3951L136.033 23.5137C136.188 23.5407 136.573 23.5678 137.188 23.5948C137.809 23.615 138.66 23.6252 139.741 23.6252H139.933C140.224 23.6252 140.43 23.5745 140.551 23.4732C140.673 23.3651 140.734 23.1862 140.734 22.9363V22.7336C140.734 22.4973 140.683 22.3284 140.582 22.2271C140.487 22.1258 140.271 22.0751 139.933 22.0751H137.583C136.901 22.0751 136.404 21.9502 136.094 21.7003C135.783 21.4436 135.628 21.0283 135.628 20.4542V20.2921C135.628 19.9949 135.682 19.7214 135.79 19.4715C135.905 19.2216 136.097 19.0224 136.367 18.8738C136.637 18.7184 137.009 18.6408 137.482 18.6408H140.237C140.697 18.6408 141.068 18.6644 141.352 18.7117C141.635 18.759 141.777 18.8096 141.777 18.8637L141.575 19.7146C141.399 19.6944 141.001 19.6741 140.379 19.6539C139.758 19.6268 138.924 19.6133 137.877 19.6133L137.765 19.6032C137.455 19.6032 137.245 19.6674 137.137 19.7957C137.029 19.9173 136.972 20.0726 136.965 20.2617V20.4339C136.965 20.6568 137.026 20.8257 137.147 20.9405C137.276 21.0485 137.485 21.1026 137.776 21.1026H140.025C140.457 21.1026 140.825 21.1465 141.129 21.2343C141.433 21.3221 141.666 21.4842 141.828 21.7206C141.99 21.9502 142.071 22.2913 142.071 22.7438V22.9059C142.071 23.4124 141.939 23.821 141.676 24.1317C141.419 24.4424 140.97 24.5977 140.328 24.5977H136.965Z" fill="#333A4D"/>
<path d="M151.694 24.5977V18.6408H157.995V19.6133H153.031V21.0114H156.82V22.0144H153.031V23.6252H158.036L158.441 24.4863C158.441 24.5133 158.35 24.5403 158.168 24.5673C157.985 24.5876 157.671 24.5977 157.225 24.5977H151.694Z" fill="#333A4D"/>
</g>
<path id="Line 3 (Stroke)" opacity="0.8" fill-rule="evenodd" clip-rule="evenodd" d="M19.3223 21.7484C19.3223 21.9233 19.1805 22.065 19.0057 22.065L8.87482 22.065C8.69997 22.065 8.55823 21.9233 8.55823 21.7484C8.55823 21.5736 8.69997 21.4318 8.87482 21.4318L19.0057 21.4318C19.1805 21.4318 19.3223 21.5736 19.3223 21.7484Z" fill="black"/>
<path id="Line 4 (Stroke)" opacity="0.8" fill-rule="evenodd" clip-rule="evenodd" d="M174.451 21.7484C174.451 21.9233 174.309 22.065 174.135 22.065L164.004 22.065C163.829 22.065 163.687 21.9233 163.687 21.7484C163.687 21.5736 163.829 21.4318 164.004 21.4318L174.135 21.4318C174.309 21.4318 174.451 21.5736 174.451 21.7484Z" fill="black"/>
</g>
</svg>
