<svg width="467" height="64" viewBox="0 0 467 64" fill="none" xmlns="http://www.w3.org/2000/svg">
<path d="M6.8243 30.4508C4.4806 30.4508 2.75729 30.3474 1.65438 30.1406C0.551458 29.9338 0 29.6926 0 29.4169L2.06797 24.919C2.86069 25.0569 4.82526 25.1948 7.96168 25.3326C11.1326 25.436 15.4753 25.4877 20.9899 25.4877H21.9722C23.4542 25.4877 24.5054 25.2292 25.1258 24.7122C25.7462 24.1608 26.0564 23.2474 26.0564 21.9722V20.9382C26.0564 19.7319 25.7979 18.8702 25.2809 18.3532C24.7984 17.8362 23.6955 17.5777 21.9722 17.5777H9.97795C6.49687 17.5777 3.96361 16.9401 2.37816 15.6649C0.792721 14.3552 0 12.2355 0 9.30586V8.47867C0 6.96216 0.275729 5.56628 0.827188 4.29104C1.41311 3.01579 2.3954 1.99904 3.77404 1.24078C5.15269 0.448062 7.04833 0.0517016 9.46096 0.0517016H23.5231C25.8668 0.0517016 27.7625 0.172333 29.2101 0.413595C30.6576 0.654859 31.3814 0.913354 31.3814 1.18908L30.3474 5.53182C29.4513 5.42842 27.4178 5.32502 24.2469 5.22162C21.076 5.08376 16.8195 5.01483 11.4772 5.01483L10.9085 4.96313C9.32309 4.96313 8.25464 5.29055 7.70318 5.94541C7.15172 6.5658 6.85876 7.35852 6.8243 8.32357V9.20246C6.8243 10.3398 7.13449 11.2015 7.75488 11.7874C8.40974 12.3389 9.47819 12.6146 10.9602 12.6146H22.4375C24.6433 12.6146 26.5217 12.8386 28.0727 13.2867C29.6236 13.7348 30.8127 14.5619 31.6399 15.7683C32.4671 16.9401 32.8807 18.6807 32.8807 20.9899V21.8171C32.8807 24.402 32.2086 26.4872 30.8644 28.0727C29.5547 29.6581 27.2627 30.4508 23.9884 30.4508H6.8243Z" fill="white"/>
<path d="M40.1113 30.4508V0.0517016H72.2682V5.01483H46.9356V12.1493H66.2711V17.2675H46.9356V25.4877H72.475L74.543 29.8822C74.543 30.02 74.0777 30.1579 73.1471 30.2957C72.2165 30.3991 70.6139 30.4508 68.3391 30.4508H40.1113Z" fill="white"/>
<path d="M88.6375 30.4508C86.1904 30.4508 84.2775 30.1062 82.8989 29.4169C81.5202 28.7275 80.5552 27.6936 80.0037 26.3149C79.4523 24.9363 79.1765 23.2302 79.1765 21.1967V9.66776C79.1765 6.359 79.9176 3.92914 81.3996 2.37816C82.8816 0.792721 85.2943 0 88.6375 0H104.199C106.577 0 108.387 0.137865 109.627 0.413595C110.903 0.654859 111.54 0.913354 111.54 1.18908L110.506 5.48012C109.92 5.37672 108.18 5.27332 105.285 5.16992C102.424 5.03206 98.2535 4.96313 92.7734 4.96313H90.1368C87.3795 4.96313 86.0008 6.18667 86.0008 8.63377V21.8171C86.0008 22.9889 86.2938 23.9023 86.8797 24.5571C87.5001 25.1775 88.5858 25.4877 90.1368 25.4877H92.2564C97.9778 25.4877 102.407 25.436 105.543 25.3326C108.714 25.1948 110.679 25.0569 111.437 24.919L113.557 28.3312C113.557 28.5035 113.264 28.762 112.678 29.1067C112.126 29.4513 111.092 29.7615 109.576 30.0372C108.059 30.313 105.871 30.4508 103.01 30.4508H88.6375Z" fill="white"/>
<path d="M127.664 30.4508C125.252 30.4508 123.356 30.1062 121.977 29.4169C120.599 28.7275 119.616 27.6936 119.031 26.3149C118.479 24.9363 118.203 23.2302 118.203 21.1967V9.25416C118.203 7.25512 118.479 5.58352 119.031 4.23934C119.582 2.86069 120.547 1.82671 121.926 1.13738C123.304 0.413596 125.217 0.0517016 127.664 0.0517016H142.761C145.173 0.0517016 147.052 0.413596 148.396 1.13738C149.774 1.82671 150.739 2.86069 151.291 4.23934C151.877 5.58352 152.17 7.25512 152.17 9.25416V21.1967C152.17 24.2297 151.498 26.5389 150.153 28.1244C148.809 29.6754 146.345 30.4508 142.761 30.4508H127.664ZM129.164 25.4877H141.313C142.588 25.4877 143.57 25.1603 144.26 24.5054C144.984 23.8506 145.345 22.9545 145.345 21.8171V8.63377C145.345 7.63425 144.984 6.78983 144.26 6.10051C143.536 5.37672 142.554 5.01483 141.313 5.01483H129.164C127.923 5.01483 126.923 5.34225 126.165 5.99711C125.407 6.65197 125.028 7.53085 125.028 8.63377V21.8171C125.028 22.9889 125.39 23.9023 126.113 24.5571C126.872 25.1775 127.888 25.4877 129.164 25.4877Z" fill="white"/>
<path d="M160.435 30.4508V4.18764L159.918 0.0517016H167.363L184.941 18.4566L186.957 21.2484H187.526V0.0517016H194.35V30.4508H187.784L169.793 11.7357L167.776 9.30586H167.259V30.4508H160.435Z" fill="white"/>
<path d="M203.148 30.4508V4.18764L202.631 0.0517016H226.619C229.411 0.0517016 231.548 0.396363 233.03 1.08568C234.546 1.77501 235.597 2.80899 236.183 4.18764C236.769 5.53182 237.062 7.22066 237.062 9.25416V21.1967C237.062 23.2646 236.769 24.988 236.183 26.3666C235.632 27.7108 234.598 28.7275 233.081 29.4169C231.599 30.1062 229.445 30.4508 226.619 30.4508H203.148ZM209.972 25.4877H226.205C228.859 25.4877 230.204 24.2642 230.238 21.8171V8.63377C230.238 7.63425 229.945 6.78983 229.359 6.10051C228.773 5.37672 227.722 5.01483 226.205 5.01483H209.972V25.4877Z" fill="white"/>
<path d="M263.139 30.4508L252.024 0.1034H259.261L266.551 19.9559L267.74 24.9707H268.257L268.929 21.4552L275.805 0.1034H284.594L291.78 21.4552L292.711 24.9707H293.228L294.417 19.9559L301.19 0.1034H308.427L307.91 3.20535L297.26 30.4508H288.471L281.44 10.133L280.406 6.8243H279.889L278.907 10.133L271.928 30.4508H263.139Z" fill="white"/>
<path d="M322.041 30.4508C319.629 30.4508 317.733 30.1062 316.354 29.4169C314.976 28.7275 313.993 27.6936 313.407 26.3149C312.856 24.9363 312.58 23.2302 312.58 21.1967V9.25416C312.58 7.25512 312.856 5.58352 313.407 4.23934C313.959 2.86069 314.924 1.82671 316.303 1.13738C317.681 0.413596 319.594 0.0517016 322.041 0.0517016H337.137C339.55 0.0517016 341.428 0.413596 342.773 1.13738C344.151 1.82671 345.116 2.86069 345.668 4.23934C346.254 5.58352 346.547 7.25512 346.547 9.25416V21.1967C346.547 24.2297 345.875 26.5389 344.53 28.1244C343.186 29.6754 340.722 30.4508 337.137 30.4508H322.041ZM323.541 25.4877H335.69C336.965 25.4877 337.947 25.1603 338.637 24.5054C339.36 23.8506 339.722 22.9545 339.722 21.8171V8.63377C339.722 7.63425 339.36 6.78983 338.637 6.10051C337.913 5.37672 336.931 5.01483 335.69 5.01483H323.541C322.3 5.01483 321.3 5.34225 320.542 5.99711C319.784 6.65197 319.405 7.53085 319.405 8.63377V21.8171C319.405 22.9889 319.766 23.9023 320.49 24.5571C321.249 25.1775 322.265 25.4877 323.541 25.4877Z" fill="white"/>
<path d="M387.331 30.9678C385.952 30.9678 384.591 30.761 383.247 30.3474C381.937 29.8994 380.438 28.8309 378.749 27.1421L375.026 23.4197C373.51 21.8688 371.838 20.7314 370.012 20.0076C368.219 19.2838 365.962 18.9219 363.239 18.9219H361.636V30.4508H354.812V4.18764L354.295 0H377.198C379.404 0 381.127 0.292963 382.368 0.878888C383.643 1.46481 384.574 2.2403 385.16 3.20535C385.78 4.13594 386.176 5.13546 386.349 6.20391C386.521 7.27236 386.607 8.28911 386.607 9.25416V10.2364C386.607 10.9947 386.504 11.8391 386.297 12.7697C386.09 13.7003 385.694 14.6136 385.108 15.5098C384.522 16.4059 383.677 17.1641 382.575 17.7845C381.506 18.4049 380.093 18.7668 378.335 18.8702C378.783 19.1115 379.352 19.4906 380.041 20.0076C380.731 20.4901 381.437 21.0243 382.161 21.6103C382.919 22.1962 383.609 22.7304 384.229 23.2129C384.849 23.6955 385.332 24.0401 385.677 24.2469C386.917 24.9707 388.02 25.4705 388.985 25.7462C389.95 26.0219 390.743 26.177 391.363 26.2115C391.984 26.246 392.346 26.2632 392.449 26.2632L391.415 30.4508C391.105 30.5542 390.588 30.6576 389.864 30.761C389.14 30.8989 388.296 30.9678 387.331 30.9678ZM369.391 14.2173C370.701 14.2173 371.873 14.2001 372.907 14.1656C373.941 14.0967 374.871 14.0277 375.699 13.9588C377.215 13.7865 378.266 13.3729 378.852 12.718C379.473 12.0287 379.783 11.1498 379.783 10.0813V8.89227C379.783 7.78935 379.49 6.85876 378.904 6.10051C378.318 5.34225 377.267 4.96313 375.75 4.96313H361.636V13.9588C363.153 14.0622 364.549 14.1311 365.824 14.1656C367.099 14.2001 368.288 14.2173 369.391 14.2173Z" fill="white"/>
<path d="M397.109 30.4508L397.626 26.3149V0.0517016H404.45V25.4877H425.853L427.921 29.8822C427.921 30.02 427.456 30.1579 426.525 30.2957C425.595 30.3991 423.992 30.4508 421.717 30.4508H397.109Z" fill="white"/>
<path d="M433.068 30.4508V4.18764L432.551 0.0517016H456.539C459.331 0.0517016 461.468 0.396363 462.95 1.08568C464.466 1.77501 465.518 2.80899 466.104 4.18764C466.689 5.53182 466.982 7.22066 466.982 9.25416V21.1967C466.982 23.2646 466.689 24.988 466.104 26.3666C465.552 27.7108 464.518 28.7275 463.002 29.4169C461.52 30.1062 459.365 30.4508 456.539 30.4508H433.068ZM439.892 25.4877H456.126C458.779 25.4877 460.124 24.2642 460.158 21.8171V8.63377C460.158 7.63425 459.865 6.78983 459.279 6.10051C458.693 5.37672 457.642 5.01483 456.126 5.01483H439.892V25.4877Z" fill="white"/>
<g opacity="0.8">
<path d="M64.5104 62.7628V49.6312L64.252 47.5633H68.1811L74.0231 57.9031L80.0719 47.5633H83.5616V62.7628H80.1495V53.1209H79.8651L78.857 55.3698L75.5999 61.2119H72.4721L69.2151 55.3698L68.1811 53.1209H67.9226V62.7628H64.5104Z" fill="white"/>
<path d="M108.642 62.7628V47.5633H124.72V50.0448H112.054V53.6121H121.721V56.1712H112.054V60.2813H124.823L125.857 62.4785C125.857 62.5474 125.625 62.6164 125.159 62.6853C124.694 62.737 123.893 62.7628 122.755 62.7628H108.642Z" fill="white"/>
<path d="M154.567 62.7628L154.541 50.019H147.82V47.5374H164.726V50.019H157.979V62.7628H154.567Z" fill="white"/>
<path d="M183.084 62.7628L190.658 47.5633H195.751L203.299 62.7628H199.318L197.793 59.4799H188.539L186.858 62.7628H183.084ZM189.469 56.9467H196.836L193.295 49.8897H193.037L189.469 56.9467Z" fill="white"/>
<path d="M228.937 62.7628L221.725 47.5891H225.343L230.203 58.0582L230.901 59.9194H231.134L231.806 58.0582L236.717 47.5891H240.233L239.819 49.1401L233.072 62.7628H228.937Z" fill="white"/>
<path d="M263.506 62.7628V47.5633H279.584V50.0448H266.918V53.6121H276.586V56.1712H266.918V60.2813H279.688L280.722 62.4785C280.722 62.5474 280.489 62.6164 280.024 62.6853C279.559 62.737 278.757 62.7628 277.62 62.7628H263.506Z" fill="white"/>
<path d="M320.753 63.0213C320.064 63.0213 319.383 62.9179 318.711 62.7111C318.056 62.4871 317.307 61.9529 316.462 61.1085L314.601 59.2473C313.843 58.4718 313.007 57.9031 312.094 57.5412C311.197 57.1793 310.069 56.9984 308.707 56.9984H307.906V62.7628H304.494V49.6312L304.235 47.5374H315.687C316.79 47.5374 317.651 47.6839 318.272 47.9769C318.909 48.2698 319.374 48.6576 319.667 49.1401C319.978 49.6054 320.176 50.1051 320.262 50.6394C320.348 51.1736 320.391 51.682 320.391 52.1645V52.6556C320.391 53.0348 320.34 53.457 320.236 53.9223C320.133 54.3876 319.935 54.8442 319.642 55.2923C319.349 55.7404 318.926 56.1195 318.375 56.4297C317.841 56.7399 317.134 56.9208 316.255 56.9725C316.479 57.0932 316.764 57.2827 317.108 57.5412C317.453 57.7825 317.806 58.0496 318.168 58.3426C318.547 58.6355 318.892 58.9026 319.202 59.1439C319.512 59.3852 319.754 59.5575 319.926 59.6609C320.546 60.0228 321.098 60.2727 321.58 60.4105C322.063 60.5484 322.459 60.6259 322.769 60.6432C323.08 60.6604 323.261 60.669 323.312 60.669L322.795 62.7628C322.64 62.8145 322.382 62.8662 322.02 62.9179C321.658 62.9869 321.236 63.0213 320.753 63.0213ZM311.783 54.6461C312.438 54.6461 313.024 54.6374 313.541 54.6202C314.058 54.5857 314.523 54.5513 314.937 54.5168C315.695 54.4306 316.221 54.2238 316.514 53.8964C316.824 53.5518 316.979 53.1123 316.979 52.5781V51.9835C316.979 51.4321 316.833 50.9668 316.54 50.5877C316.247 50.2085 315.721 50.019 314.963 50.019H307.906V54.5168C308.664 54.5685 309.362 54.603 310 54.6202C310.637 54.6374 311.232 54.6461 311.783 54.6461Z" fill="white"/>
<path d="M349.475 62.7628C348.303 62.7628 347.442 62.7111 346.89 62.6077C346.339 62.5043 346.063 62.3837 346.063 62.2458L347.097 59.9969C347.493 60.0659 348.476 60.1348 350.044 60.2037C351.629 60.2554 353.801 60.2813 356.558 60.2813H357.049C357.79 60.2813 358.316 60.152 358.626 59.8935C358.936 59.6178 359.091 59.1611 359.091 58.5235V58.0065C359.091 57.4033 358.962 56.9725 358.704 56.714C358.462 56.4555 357.911 56.3263 357.049 56.3263H351.052C349.312 56.3263 348.045 56.0075 347.252 55.3698C346.46 54.715 346.063 53.6552 346.063 52.1903V51.7768C346.063 51.0185 346.201 50.3206 346.477 49.6829C346.77 49.0453 347.261 48.5369 347.95 48.1578C348.639 47.7614 349.587 47.5633 350.794 47.5633H357.825C358.997 47.5633 359.944 47.6236 360.668 47.7442C361.392 47.8648 361.754 47.9941 361.754 48.132L361.237 50.3033C360.789 50.2516 359.772 50.1999 358.187 50.1482C356.601 50.0793 354.473 50.0448 351.802 50.0448L351.517 50.019C350.725 50.019 350.19 50.1827 349.915 50.5101C349.639 50.8203 349.493 51.2167 349.475 51.6992V52.1386C349.475 52.7073 349.63 53.1382 349.941 53.4311C350.268 53.7069 350.802 53.8447 351.543 53.8447H357.282C358.385 53.8447 359.324 53.9567 360.099 54.1808C360.875 54.4048 361.47 54.8184 361.883 55.4215C362.297 56.0075 362.504 56.8777 362.504 58.0324V58.446C362.504 59.7384 362.167 60.781 361.495 61.5738C360.84 62.3665 359.695 62.7628 358.057 62.7628H349.475Z" fill="white"/>
<path d="M387.057 62.7628V47.5633H403.135V50.0448H390.469V53.6121H400.137V56.1712H390.469V60.2813H403.239L404.273 62.4785C404.273 62.5474 404.04 62.6164 403.575 62.6853C403.11 62.737 402.308 62.7628 401.171 62.7628H387.057Z" fill="white"/>
</g>
<path opacity="0.8" fill-rule="evenodd" clip-rule="evenodd" d="M49.3027 55.4926C49.3027 55.9388 48.9411 56.3004 48.4949 56.3004L22.6453 56.3004C22.1992 56.3004 21.8375 55.9388 21.8375 55.4926C21.8375 55.0465 22.1992 54.6848 22.6453 54.6848L48.4949 54.6848C48.9411 54.6848 49.3027 55.0465 49.3027 55.4926Z" fill="#777B89"/>
<path opacity="0.8" fill-rule="evenodd" clip-rule="evenodd" d="M445.125 55.4926C445.125 55.9388 444.763 56.3004 444.317 56.3004L418.468 56.3004C418.021 56.3004 417.66 55.9388 417.66 55.4926C417.66 55.0465 418.021 54.6848 418.468 54.6848L444.317 54.6848C444.763 54.6848 445.125 55.0465 445.125 55.4926Z" fill="#777B89"/>
</svg>
