<svg width="212" height="54" viewBox="0 0 212 54" fill="none" xmlns="http://www.w3.org/2000/svg">
<rect width="212" height="54" rx="27" fill="white"/>
<g clip-path="url(#clip0_348_2409)">
<path d="M160.399 20.3281C161.291 20.3281 162.127 20.6236 162.861 21.1804C163.629 21.7599 164.047 22.669 164.137 23.7602C164.141 23.7748 164.14 23.7906 164.133 23.8042C164.126 23.8178 164.115 23.8284 164.101 23.8337L164.069 23.8395H162.33C162.305 23.8395 162.279 23.8267 162.268 23.806L162.262 23.7826C162.059 22.2033 160.151 21.7713 158.999 22.5442C158.197 23.0896 158.039 24.3397 158.808 24.9758C159.108 25.2261 159.454 25.4256 159.806 25.6184L160.736 26.1288L161.552 26.5514C161.96 26.7629 162.364 26.9816 162.748 27.2374C164.069 28.1238 164.509 29.4649 164.272 30.9533C164.002 32.4763 162.669 33.9423 160.095 33.9423C159.112 33.9423 158.163 33.6695 157.294 33.0104C156.368 32.3171 156.03 31.5558 156.03 30.1806C156.03 30.1553 156.049 30.1296 156.072 30.1185L156.097 30.1127H157.983C158.016 30.1127 158.05 30.1465 158.05 30.1806C158.05 30.3057 158.073 30.5898 158.118 30.7377C158.378 31.5558 159.123 32.0785 160.083 32.1354C160.964 32.1923 161.844 31.7037 162.183 30.9988C162.556 30.2261 162.285 29.2488 161.427 28.715L161.317 28.6473L160.91 28.4123L160.418 28.141L158.046 26.8793L157.902 26.7982L157.858 26.7716C155.386 25.2258 155.804 20.3281 160.399 20.3281H160.399ZM171.668 20.5895C171.694 20.5895 171.719 20.6087 171.731 20.6326L171.736 20.6577V25.7715C171.736 25.817 171.78 25.8479 171.82 25.8351L171.849 25.817L176.829 20.6122C176.836 20.604 176.845 20.5974 176.855 20.593L176.874 20.5895H179.279C179.324 20.5895 179.355 20.6332 179.343 20.674L179.324 20.7032L173.452 26.8399C173.445 26.8482 173.44 26.8582 173.437 26.869C173.434 26.8798 173.434 26.8912 173.437 26.902L173.452 26.9306L179.979 33.7148C180.015 33.7422 180 33.7988 179.97 33.8259L179.945 33.8402H177.54L177.517 33.8329L177.495 33.8171L171.849 27.9535C171.822 27.917 171.766 27.9316 171.745 27.968L171.736 27.999V33.7719C171.736 33.7973 171.717 33.823 171.694 33.834L171.668 33.8399H169.782C169.757 33.8399 169.732 33.8209 169.72 33.797L169.715 33.7719V20.6577C169.715 20.632 169.734 20.6067 169.757 20.5953L169.782 20.5895H171.668ZM75.7575 20.5781C75.7801 20.5781 75.798 20.5833 75.8104 20.5967L75.8255 20.6236L77.3722 25.7601C77.3756 25.7717 77.3818 25.7822 77.3903 25.7907C77.3988 25.7992 77.4093 25.8053 77.4208 25.8086C77.4323 25.8118 77.4444 25.8121 77.4561 25.8093C77.4677 25.8066 77.4784 25.8009 77.4873 25.7928L77.5078 25.7601L79.0549 20.6239C79.0628 20.607 79.076 20.5933 79.0925 20.5848L79.1225 20.5781H81.9793C82.0048 20.5781 82.0302 20.5973 82.0412 20.6212L82.047 20.6463V33.7608C82.047 33.7862 82.0279 33.8119 82.0042 33.823L81.9793 33.8288H80.0935C80.0683 33.8288 80.0429 33.8098 80.0316 33.7859L80.0258 33.7608V23.7946C80.0258 23.7281 79.9475 23.7013 79.9082 23.7403L79.8903 23.7718L78.3322 28.9425L78.2192 29.3059C78.2112 29.3227 78.198 29.3363 78.1816 29.3447L78.1516 29.3514H76.7062C76.6834 29.3514 76.6658 29.3465 76.6533 29.333L76.6383 29.3059L76.5256 28.9425L74.9675 23.7718C74.9485 23.715 74.8669 23.7135 74.8403 23.7605L74.8317 23.7946V33.7608C74.8317 33.7862 74.8126 33.8119 74.7889 33.823L74.764 33.8288H72.8782C72.8527 33.8288 72.8273 33.8098 72.8163 33.7859L72.8105 33.7608V20.6463C72.8105 20.6207 72.8296 20.5953 72.8533 20.5839L72.8782 20.5781H75.7575ZM130.511 20.5781C130.533 20.5781 130.551 20.5833 130.563 20.5967L130.578 20.6236L132.126 25.7601C132.129 25.7716 132.135 25.7821 132.144 25.7905C132.152 25.799 132.163 25.8051 132.174 25.8084C132.186 25.8116 132.198 25.8119 132.209 25.8092C132.221 25.8065 132.232 25.8008 132.24 25.7928L132.261 25.7601L133.807 20.6239C133.815 20.607 133.828 20.5933 133.845 20.5848L133.875 20.5781H136.743C136.769 20.5781 136.794 20.5973 136.805 20.6212L136.811 20.6463V33.7608C136.811 33.7862 136.792 33.8119 136.768 33.823L136.743 33.8288H134.858C134.833 33.8288 134.807 33.8098 134.796 33.7859L134.79 33.7608V23.7946C134.79 23.7281 134.712 23.7013 134.673 23.7403L134.655 23.7718L133.096 28.9425L132.984 29.3059C132.975 29.3227 132.962 29.3363 132.946 29.3447L132.916 29.3514H131.47C131.447 29.3514 131.43 29.3465 131.417 29.333L131.402 29.3059L131.289 28.9425L129.732 23.7718C129.713 23.715 129.631 23.7135 129.605 23.7605L129.596 23.7946V33.7608C129.596 33.7862 129.577 33.8119 129.553 33.823L129.528 33.8288H127.642C127.617 33.8288 127.591 33.8098 127.58 33.7859L127.575 33.7608V20.6463C127.575 20.6207 127.593 20.5953 127.617 20.5839L127.642 20.5781H130.511ZM109.553 20.5781C109.567 20.5773 109.581 20.5811 109.592 20.5889C109.604 20.5967 109.612 20.6081 109.617 20.6212L109.621 20.6463V22.2826C109.621 22.3083 109.602 22.3339 109.578 22.345L109.553 22.3508H106.109V33.7608C106.109 33.7862 106.09 33.8119 106.066 33.823L106.041 33.8288H104.156C104.13 33.8288 104.105 33.8098 104.094 33.7859L104.088 33.7608V22.3508H100.644C100.618 22.3508 100.593 22.3316 100.582 22.3077L100.576 22.2826V20.6463C100.576 20.6204 100.595 20.595 100.619 20.5836L100.644 20.5778H109.553L109.553 20.5781ZM118.846 20.5326C118.869 20.5326 118.887 20.5375 118.899 20.551L118.914 20.5781L122.459 33.7375C122.463 33.7535 122.462 33.7703 122.455 33.7854C122.449 33.8004 122.437 33.8128 122.423 33.8206L122.392 33.8285H120.676C120.657 33.8265 120.639 33.8183 120.626 33.8052L120.608 33.783L119.581 29.9534C119.573 29.9367 119.559 29.923 119.543 29.9146L119.513 29.9079H115.718C115.696 29.9079 115.678 29.9129 115.666 29.9263L115.65 29.9534L114.623 33.783C114.615 33.7998 114.602 33.8134 114.586 33.8218L114.555 33.8285H112.839C112.823 33.8282 112.807 33.8224 112.795 33.8119C112.782 33.8015 112.774 33.7871 112.771 33.771L112.771 33.7375L116.317 20.5781C116.325 20.5613 116.338 20.5477 116.354 20.5393L116.384 20.5326H118.846H118.846ZM148.114 20.5326C148.136 20.5326 148.154 20.5375 148.167 20.551L148.182 20.5781L151.727 33.7375C151.731 33.7535 151.729 33.7704 151.723 33.7854C151.716 33.8005 151.705 33.8129 151.69 33.8206L151.659 33.8285H149.943C149.933 33.8286 149.924 33.8265 149.915 33.8225C149.905 33.8185 149.897 33.8126 149.891 33.8052L149.875 33.783L148.848 29.9534C148.84 29.9367 148.827 29.923 148.811 29.9146L148.78 29.9079H144.986C144.964 29.9079 144.946 29.9129 144.934 29.9263L144.919 29.9534L143.891 33.783C143.883 33.7998 143.87 33.8134 143.854 33.8218L143.823 33.8285H142.107C142.091 33.8282 142.075 33.8224 142.063 33.8119C142.05 33.8015 142.042 33.7871 142.038 33.771L142.039 33.7375L145.584 20.5781C145.592 20.5613 145.606 20.5477 145.622 20.5393L145.652 20.5326H148.114H148.114ZM95.4843 20.5895C95.5095 20.5895 95.5349 20.6087 95.5459 20.6326L95.5517 20.6577V22.294C95.5517 22.3196 95.5329 22.3453 95.5089 22.3564L95.484 22.3622H89.7704C89.745 22.3622 89.7195 22.3815 89.7086 22.4054L89.7028 22.4305V25.908C89.7028 25.9334 89.7219 25.959 89.7456 25.9701L89.7704 25.976H94.7952C94.8206 25.976 94.8461 25.9952 94.8573 26.0191L94.8631 26.0442V27.6805C94.8631 27.7061 94.844 27.7318 94.8201 27.7429L94.7952 27.7487H89.7704C89.745 27.7487 89.7195 27.768 89.7086 27.7919L89.7028 27.817V31.8854C89.7028 31.9158 89.7129 31.9359 89.7297 31.9496L89.7591 31.965H95.7211C95.7465 31.965 95.7719 31.984 95.7832 32.0082L95.789 32.033V33.7605C95.789 33.7859 95.7699 33.8116 95.7462 33.8227L95.7211 33.8285H87.7493C87.7239 33.8285 87.6984 33.8095 87.6874 33.7853L87.6817 33.7605V20.6577C87.6817 20.632 87.7007 20.6067 87.7244 20.5953L87.7493 20.5895H95.484H95.4843ZM117.683 22.9076C117.68 22.8961 117.674 22.8855 117.665 22.8771C117.657 22.8686 117.646 22.8624 117.635 22.8592C117.623 22.8559 117.611 22.8556 117.6 22.8584C117.588 22.8612 117.577 22.8669 117.568 22.875L117.548 22.9076L116.17 28.0328C116.162 28.0669 116.179 28.101 116.207 28.1159L116.238 28.1238H118.993C119.009 28.1235 119.025 28.1176 119.037 28.1071C119.05 28.0967 119.058 28.0823 119.061 28.0663L119.061 28.0328L117.683 22.9076ZM146.951 22.9076C146.948 22.8961 146.941 22.8855 146.933 22.8771C146.924 22.8686 146.914 22.8624 146.902 22.8592C146.891 22.8559 146.879 22.8556 146.867 22.8584C146.856 22.8612 146.845 22.8669 146.836 22.875L146.815 22.9076L145.438 28.0328C145.429 28.0669 145.446 28.101 145.474 28.1159L145.505 28.1238H148.261C148.277 28.1235 148.293 28.1177 148.305 28.1072C148.318 28.0968 148.326 28.0824 148.329 28.0663L148.329 28.0328L146.951 22.9076Z" fill="#161616"/>
<path d="M60.8372 13L48.1699 22.4573L50.5255 16.8838L60.8372 13Z" fill="#E17726"/>
<path d="M32.7145 13.0111L42.9984 16.8844L45.2352 22.5311L32.7145 13.0111ZM55.7397 33.1131L61.3383 33.2207L59.3816 39.9276L52.5499 38.0297L55.7397 33.1131ZM37.7823 33.1131L40.9603 38.0297L34.1398 39.9279L32.1953 33.2207L37.7823 33.1131Z" fill="#E27625"/>
<path d="M44.9303 21.0928L45.1592 28.5493L38.3125 28.2349L40.2599 25.2704L40.2848 25.2418L44.9303 21.0928ZM48.5193 21.0094L53.2356 25.2421L53.2602 25.2706L55.2076 28.2349L48.3626 28.5493L48.5193 21.0094ZM41.1598 33.1346L44.8982 36.0737L40.5556 38.1891L41.1598 33.1346ZM52.3612 33.1343L52.9529 38.1891L48.6225 36.0734L52.3612 33.1343Z" fill="#E27625"/>
<path d="M48.7186 35.7966L53.1129 37.9436L49.0253 39.9039L49.0678 38.6083L48.7186 35.7966ZM44.8015 35.7975L44.4662 38.587L44.4937 39.9024L40.3965 37.9436L44.8015 35.7975Z" fill="#D5BFB2"/>
<path d="M43.5326 29.5223L44.6811 31.9575L40.7715 30.8019L43.5326 29.5223ZM49.9885 29.5226L52.763 30.8019L48.8407 31.9572L49.9885 29.5226Z" fill="#233447"/>
<path d="M41.4586 33.1098L40.8267 38.3505L37.4395 33.2245L41.4586 33.1098ZM52.062 33.1098L56.0814 33.2245L52.6814 38.3508L52.062 33.1098ZM55.3067 27.9386L52.3814 30.9466L50.1264 29.9068L49.0465 32.1969L48.3388 28.2586L55.3067 27.9386ZM38.2124 27.9386L45.1814 28.2586L44.4735 32.1969L43.3936 29.9071L41.1501 30.9466L38.2124 27.9386Z" fill="#CC6228"/>
<path d="M38.0156 27.3214L41.3248 30.7097L41.4396 34.0548L38.0156 27.3214ZM55.5088 27.3153L52.0788 34.0607L52.2077 30.7097L55.5088 27.3153ZM45.0199 27.5276L45.1532 28.3738L45.4824 30.4811L45.2708 36.9531L44.2704 31.7539L44.2701 31.7002L45.0199 27.5276ZM48.4993 27.516L49.2512 31.7002L49.2509 31.7539L48.2481 36.9663L48.2083 35.6625L48.0519 30.4426L48.4993 27.516Z" fill="#E27525"/>
<path d="M52.5021 30.575L52.3902 33.4814L48.899 36.226L48.1934 35.7229L48.9842 31.6112L52.5021 30.575ZM41.0312 30.5752L44.537 31.6115L45.3279 35.7229L44.6223 36.226L41.131 33.4811L41.0312 30.5752Z" fill="#F5841F"/>
<path d="M39.7285 37.302L44.1948 39.4373L44.176 38.5253L44.5498 38.1945H48.9704L49.3575 38.5244L49.3289 39.4355L53.7671 37.3073L51.6075 39.108L48.9961 40.9178H44.5139L41.9043 39.1004L39.7285 37.302Z" fill="#C0AC9D"/>
<path d="M48.3985 35.5126L49.0301 35.9626L49.4001 38.9417L48.8645 38.4855H44.6583L44.1328 38.951L44.491 35.9629L45.1226 35.5126H48.3985Z" fill="#161616"/>
<path d="M60.0006 13.262L61.5211 17.8645L60.5715 22.5183L61.2476 23.0448L60.3328 23.7491L61.0204 24.2849L60.1099 25.1217L60.6689 25.5303L59.1852 27.2786L53.0998 25.491L53.0472 25.4624L48.6621 21.7299L60.0006 13.262ZM33.5205 13.262L44.8592 21.7299L40.4739 25.4624L40.4213 25.491L34.3359 27.2786L32.8524 25.5303L33.4109 25.122L32.5007 24.2849L33.1872 23.7497L32.2584 23.0433L32.9603 22.5165L32 17.8648L33.5205 13.262Z" fill="#763E1A"/>
<path d="M52.8017 25.0998L59.2495 26.9942L61.3444 33.5083H55.8181L52.01 33.5567L54.7792 28.1104L52.8017 25.0998ZM40.7186 25.0998L38.7405 28.1104L41.5103 33.5567L37.7043 33.5083H32.1875L34.2708 26.9942L40.7186 25.0998ZM50.8407 16.8527L49.037 21.7675L48.6542 28.4067L48.508 30.4878L48.4964 35.804H45.0239L45.0126 30.4977L44.8658 28.405L44.4828 21.7675L42.6796 16.8527H50.8407Z" fill="#F5841F"/>
</g>
<defs>
<clipPath id="clip0_348_2409">
<rect width="148" height="28" fill="white" transform="translate(32 13)"/>
</clipPath>
</defs>
</svg>
