<svg width="34" height="22" viewBox="0 0 34 22" fill="none" xmlns="http://www.w3.org/2000/svg">
<path d="M0 1.85762V0H9.43377V1.85762H7.32119C6.62185 1.85762 6.51987 2.24614 6.55629 2.4404L11.5828 15.298L15.4801 5.71854C15.2494 5.13576 14.7079 3.75894 14.3874 2.91391C14.0669 2.06887 13.4525 1.85762 13.1854 1.85762H11.7649V0H21.1623V1.85762H19.1589C18.6636 1.85762 18.564 2.24614 18.5762 2.4404L23.4205 15.298C24.9746 11.2064 28.1192 2.90662 28.2649 2.4404C28.4106 1.97417 27.84 1.85762 27.5364 1.85762H25.7152V0H33.9106V1.85762H32.6358C31.7616 1.85762 31.3245 2.56181 31.2152 2.91391L24.2947 20.6887H21.3079L16.8278 9.65232L12.457 20.6887H9.43377C7.32119 15.2494 2.98675 4.07947 2.54967 2.91391C2.11258 1.74834 0.66777 1.72406 0 1.85762Z" fill="#302A58"/>
<path d="M16.0629 15.7351C14.4311 15.9391 14.4117 17.3013 14.6059 17.9569H15.6258C15.4801 16.8642 15.9172 16.5728 16.6093 16.5C17.3013 16.4271 18.1755 16.8278 17.6656 17.7384C17.2576 18.4669 15.3587 19.6689 14.4603 20.1788V20.8708H17.957V21.0894H18.9404L19.2682 19.1954H18.1755V19.9967H16.3543C19.6325 18.5761 19.1225 17.0828 18.9404 16.6457C18.7583 16.2086 18.1026 15.4801 16.0629 15.7351Z" fill="#302A58"/>
</svg>
