<svg width="293" height="54" viewBox="0 0 293 54" fill="none" xmlns="http://www.w3.org/2000/svg">
<path d="M6.2065 29C4.75583 29 3.68917 28.936 3.0065 28.808C2.32383 28.68 1.9825 28.5307 1.9825 28.36L3.2625 25.576C3.75317 25.6613 4.96917 25.7467 6.9105 25.832C8.87317 25.896 11.5612 25.928 14.9745 25.928H15.5825C16.4998 25.928 17.1505 25.768 17.5345 25.448C17.9185 25.1067 18.1105 24.5413 18.1105 23.752V23.112C18.1105 22.3653 17.9505 21.832 17.6305 21.512C17.3318 21.192 16.6492 21.032 15.5825 21.032H8.1585C6.00383 21.032 4.43583 20.6373 3.4545 19.848C2.47317 19.0373 1.9825 17.7253 1.9825 15.912V15.4C1.9825 14.4613 2.15317 13.5973 2.4945 12.808C2.85717 12.0187 3.46517 11.3893 4.3185 10.92C5.17183 10.4293 6.34517 10.184 7.8385 10.184H16.5425C17.9932 10.184 19.1665 10.2587 20.0625 10.408C20.9585 10.5573 21.4065 10.7173 21.4065 10.888L20.7665 13.576C20.2118 13.512 18.9532 13.448 16.9905 13.384C15.0278 13.2987 12.3932 13.256 9.0865 13.256L8.7345 13.224C7.75317 13.224 7.09183 13.4267 6.7505 13.832C6.40917 14.216 6.22783 14.7067 6.2065 15.304V15.848C6.2065 16.552 6.3985 17.0853 6.7825 17.448C7.18783 17.7893 7.84917 17.96 8.7665 17.96H15.8705C17.2358 17.96 18.3985 18.0987 19.3585 18.376C20.3185 18.6533 21.0545 19.1653 21.5665 19.912C22.0785 20.6373 22.3345 21.7147 22.3345 23.144V23.656C22.3345 25.256 21.9185 26.5467 21.0865 27.528C20.2758 28.5093 18.8572 29 16.8305 29H6.2065ZM26.81 29V10.184H46.714V13.256H31.034V17.672H43.002V20.84H31.034V25.928H46.842L48.122 28.648C48.122 28.7333 47.834 28.8187 47.258 28.904C46.682 28.968 45.69 29 44.282 29H26.81ZM56.846 29C55.3313 29 54.1473 28.7867 53.294 28.36C52.4407 27.9333 51.8433 27.2933 51.502 26.44C51.1607 25.5867 50.99 24.5307 50.99 23.272V16.136C50.99 14.088 51.4487 12.584 52.366 11.624C53.2833 10.6427 54.7767 10.152 56.846 10.152H66.478C67.95 10.152 69.07 10.2373 69.838 10.408C70.6273 10.5573 71.022 10.7173 71.022 10.888L70.382 13.544C70.0193 13.48 68.942 13.416 67.15 13.352C65.3793 13.2667 62.798 13.224 59.406 13.224H57.774C56.0673 13.224 55.214 13.9813 55.214 15.496V23.656C55.214 24.3813 55.3953 24.9467 55.758 25.352C56.142 25.736 56.814 25.928 57.774 25.928H59.086C62.6273 25.928 65.3687 25.896 67.31 25.832C69.2727 25.7467 70.4887 25.6613 70.958 25.576L72.27 27.688C72.27 27.7947 72.0887 27.9547 71.726 28.168C71.3847 28.3813 70.7447 28.5733 69.806 28.744C68.8673 28.9147 67.5127 29 65.742 29H56.846ZM81.0023 29C79.5089 29 78.3356 28.7867 77.4823 28.36C76.6289 27.9333 76.0209 27.2933 75.6583 26.44C75.3169 25.5867 75.1463 24.5307 75.1463 23.272V15.88C75.1463 14.6427 75.3169 13.608 75.6583 12.776C75.9996 11.9227 76.5969 11.2827 77.4503 10.856C78.3036 10.408 79.4876 10.184 81.0023 10.184H90.3463C91.8396 10.184 93.0023 10.408 93.8343 10.856C94.6876 11.2827 95.2849 11.9227 95.6263 12.776C95.9889 13.608 96.1703 14.6427 96.1703 15.88V23.272C96.1703 25.1493 95.7543 26.5787 94.9223 27.56C94.0903 28.52 92.5649 29 90.3463 29H81.0023ZM81.9303 25.928H89.4503C90.2396 25.928 90.8476 25.7253 91.2743 25.32C91.7223 24.9147 91.9463 24.36 91.9463 23.656V15.496C91.9463 14.8773 91.7223 14.3547 91.2743 13.928C90.8263 13.48 90.2183 13.256 89.4503 13.256H81.9303C81.1623 13.256 80.5436 13.4587 80.0743 13.864C79.6049 14.2693 79.3703 14.8133 79.3703 15.496V23.656C79.3703 24.3813 79.5943 24.9467 80.0423 25.352C80.5116 25.736 81.1409 25.928 81.9303 25.928ZM101.286 29V12.744L100.966 10.184H105.574L116.454 21.576L117.702 23.304H118.054V10.184H122.278V29H118.214L107.078 17.416L105.83 15.912H105.51V29H101.286ZM127.724 29V12.744L127.404 10.184H142.252C143.98 10.184 145.302 10.3973 146.22 10.824C147.158 11.2507 147.809 11.8907 148.172 12.744C148.534 13.576 148.716 14.6213 148.716 15.88V23.272C148.716 24.552 148.534 25.6187 148.172 26.472C147.83 27.304 147.19 27.9333 146.252 28.36C145.334 28.7867 144.001 29 142.252 29H127.724ZM131.948 25.928H141.996C143.638 25.928 144.47 25.1707 144.492 23.656V15.496C144.492 14.8773 144.31 14.3547 143.948 13.928C143.585 13.48 142.934 13.256 141.996 13.256H131.948V25.928ZM164.856 29L157.976 10.216H162.456L166.968 22.504L167.704 25.608H168.024L168.44 23.432L172.696 10.216H178.136L182.584 23.432L183.16 25.608H183.48L184.216 22.504L188.408 10.216H192.888L192.568 12.136L185.976 29H180.536L176.184 16.424L175.544 14.376H175.224L174.616 16.424L170.296 29H164.856ZM201.315 29C199.821 29 198.648 28.7867 197.795 28.36C196.941 27.9333 196.333 27.2933 195.971 26.44C195.629 25.5867 195.459 24.5307 195.459 23.272V15.88C195.459 14.6427 195.629 13.608 195.971 12.776C196.312 11.9227 196.909 11.2827 197.763 10.856C198.616 10.408 199.8 10.184 201.315 10.184H210.659C212.152 10.184 213.315 10.408 214.147 10.856C215 11.2827 215.597 11.9227 215.939 12.776C216.301 13.608 216.483 14.6427 216.483 15.88V23.272C216.483 25.1493 216.067 26.5787 215.235 27.56C214.403 28.52 212.877 29 210.659 29H201.315ZM202.243 25.928H209.763C210.552 25.928 211.16 25.7253 211.587 25.32C212.035 24.9147 212.259 24.36 212.259 23.656V15.496C212.259 14.8773 212.035 14.3547 211.587 13.928C211.139 13.48 210.531 13.256 209.763 13.256H202.243C201.475 13.256 200.856 13.4587 200.387 13.864C199.917 14.2693 199.683 14.8133 199.683 15.496V23.656C199.683 24.3813 199.907 24.9467 200.355 25.352C200.824 25.736 201.453 25.928 202.243 25.928ZM241.727 29.32C240.873 29.32 240.031 29.192 239.199 28.936C238.388 28.6587 237.46 27.9973 236.415 26.952L234.111 24.648C233.172 23.688 232.137 22.984 231.007 22.536C229.897 22.088 228.5 21.864 226.815 21.864H225.823V29H221.599V12.744L221.279 10.152H235.455C236.82 10.152 237.887 10.3333 238.655 10.696C239.444 11.0587 240.02 11.5387 240.383 12.136C240.767 12.712 241.012 13.3307 241.119 13.992C241.225 14.6533 241.279 15.2827 241.279 15.88V16.488C241.279 16.9573 241.215 17.48 241.087 18.056C240.959 18.632 240.713 19.1973 240.351 19.752C239.988 20.3067 239.465 20.776 238.783 21.16C238.121 21.544 237.247 21.768 236.159 21.832C236.436 21.9813 236.788 22.216 237.215 22.536C237.641 22.8347 238.079 23.1653 238.527 23.528C238.996 23.8907 239.423 24.2213 239.807 24.52C240.191 24.8187 240.489 25.032 240.703 25.16C241.471 25.608 242.153 25.9173 242.751 26.088C243.348 26.2587 243.839 26.3547 244.223 26.376C244.607 26.3973 244.831 26.408 244.895 26.408L244.255 29C244.063 29.064 243.743 29.128 243.295 29.192C242.847 29.2773 242.324 29.32 241.727 29.32ZM230.623 18.952C231.433 18.952 232.159 18.9413 232.799 18.92C233.439 18.8773 234.015 18.8347 234.527 18.792C235.465 18.6853 236.116 18.4293 236.479 18.024C236.863 17.5973 237.055 17.0533 237.055 16.392V15.656C237.055 14.9733 236.873 14.3973 236.511 13.928C236.148 13.4587 235.497 13.224 234.559 13.224H225.823V18.792C226.761 18.856 227.625 18.8987 228.415 18.92C229.204 18.9413 229.94 18.952 230.623 18.952ZM247.779 29L248.099 26.44V10.184H252.323V25.928H265.571L266.851 28.648C266.851 28.7333 266.563 28.8187 265.987 28.904C265.411 28.968 264.419 29 263.011 29H247.779ZM270.036 29V12.744L269.716 10.184H284.564C286.292 10.184 287.615 10.3973 288.532 10.824C289.471 11.2507 290.122 11.8907 290.484 12.744C290.847 13.576 291.028 14.6213 291.028 15.88V23.272C291.028 24.552 290.847 25.6187 290.484 26.472C290.143 27.304 289.503 27.9333 288.564 28.36C287.647 28.7867 286.314 29 284.564 29H270.036ZM274.26 25.928H284.308C285.951 25.928 286.783 25.1707 286.804 23.656V15.496C286.804 14.8773 286.623 14.3547 286.26 13.928C285.898 13.48 285.247 13.256 284.308 13.256H274.26V25.928Z" fill="#333A4D"/>
<path opacity="0.8" d="M41.9125 49V40.872L41.7525 39.592H44.1845L47.8005 45.992L51.5445 39.592H53.7045V49H51.5925V43.032H51.4165L50.7925 44.424L48.7765 48.04H46.8405L44.8245 44.424L44.1845 43.032H44.0245V49H41.9125ZM69.2281 49V39.592H79.1801V41.128H71.3401V43.336H77.3241V44.92H71.3401V47.464H79.2441L79.8841 48.824C79.8841 48.8667 79.7401 48.9093 79.4521 48.952C79.1641 48.984 78.6681 49 77.9641 49H69.2281ZM97.6541 49L97.6381 41.112H93.4781V39.576H103.942V41.112H99.7661V49H97.6541ZM115.306 49L119.994 39.592H123.146L127.818 49H125.354L124.41 46.968H118.682L117.642 49H115.306ZM119.258 45.4H123.818L121.626 41.032H121.466L119.258 45.4ZM143.687 49L139.223 39.608H141.463L144.471 46.088L144.903 47.24H145.047L145.463 46.088L148.503 39.608H150.679L150.423 40.568L146.247 49H143.687ZM165.084 49V39.592H175.036V41.128H167.196V43.336H173.18V44.92H167.196V47.464H175.1L175.74 48.824C175.74 48.8667 175.596 48.9093 175.308 48.952C175.02 48.984 174.524 49 173.82 49H165.084ZM200.518 49.16C200.091 49.16 199.67 49.096 199.254 48.968C198.848 48.8293 198.384 48.4987 197.862 47.976L196.71 46.824C196.24 46.344 195.723 45.992 195.158 45.768C194.603 45.544 193.904 45.432 193.062 45.432H192.566V49H190.454V40.872L190.294 39.576H197.382C198.064 39.576 198.598 39.6667 198.982 39.848C199.376 40.0293 199.664 40.2693 199.846 40.568C200.038 40.856 200.16 41.1653 200.214 41.496C200.267 41.8267 200.294 42.1413 200.294 42.44V42.744C200.294 42.9787 200.262 43.24 200.198 43.528C200.134 43.816 200.011 44.0987 199.83 44.376C199.648 44.6533 199.387 44.888 199.046 45.08C198.715 45.272 198.278 45.384 197.734 45.416C197.872 45.4907 198.048 45.608 198.262 45.768C198.475 45.9173 198.694 46.0827 198.918 46.264C199.152 46.4453 199.366 46.6107 199.558 46.76C199.75 46.9093 199.899 47.016 200.006 47.08C200.39 47.304 200.731 47.4587 201.03 47.544C201.328 47.6293 201.574 47.6773 201.766 47.688C201.958 47.6987 202.07 47.704 202.102 47.704L201.782 49C201.686 49.032 201.526 49.064 201.302 49.096C201.078 49.1387 200.816 49.16 200.518 49.16ZM194.966 43.976C195.371 43.976 195.734 43.9707 196.054 43.96C196.374 43.9387 196.662 43.9173 196.918 43.896C197.387 43.8427 197.712 43.7147 197.894 43.512C198.086 43.2987 198.182 43.0267 198.182 42.696V42.328C198.182 41.9867 198.091 41.6987 197.91 41.464C197.728 41.2293 197.403 41.112 196.934 41.112H192.566V43.896C193.035 43.928 193.467 43.9493 193.862 43.96C194.256 43.9707 194.624 43.976 194.966 43.976ZM218.296 49C217.57 49 217.037 48.968 216.696 48.904C216.354 48.84 216.184 48.7653 216.184 48.68L216.824 47.288C217.069 47.3307 217.677 47.3733 218.648 47.416C219.629 47.448 220.973 47.464 222.68 47.464H222.984C223.442 47.464 223.768 47.384 223.96 47.224C224.152 47.0533 224.248 46.7707 224.248 46.376V46.056C224.248 45.6827 224.168 45.416 224.008 45.256C223.858 45.096 223.517 45.016 222.984 45.016H219.272C218.194 45.016 217.41 44.8187 216.92 44.424C216.429 44.0187 216.184 43.3627 216.184 42.456V42.2C216.184 41.7307 216.269 41.2987 216.44 40.904C216.621 40.5093 216.925 40.1947 217.352 39.96C217.778 39.7147 218.365 39.592 219.112 39.592H223.464C224.189 39.592 224.776 39.6293 225.224 39.704C225.672 39.7787 225.896 39.8587 225.896 39.944L225.576 41.288C225.298 41.256 224.669 41.224 223.688 41.192C222.706 41.1493 221.389 41.128 219.736 41.128L219.56 41.112C219.069 41.112 218.738 41.2133 218.568 41.416C218.397 41.608 218.306 41.8533 218.296 42.152V42.424C218.296 42.776 218.392 43.0427 218.584 43.224C218.786 43.3947 219.117 43.48 219.576 43.48H223.128C223.81 43.48 224.392 43.5493 224.872 43.688C225.352 43.8267 225.72 44.0827 225.976 44.456C226.232 44.8187 226.36 45.3573 226.36 46.072V46.328C226.36 47.128 226.152 47.7733 225.736 48.264C225.33 48.7547 224.621 49 223.608 49H218.296ZM241.557 49V39.592H251.509V41.128H243.669V43.336H249.653V44.92H243.669V47.464H251.573L252.213 48.824C252.213 48.8667 252.069 48.9093 251.781 48.952C251.493 48.984 250.997 49 250.293 49H241.557Z" fill="#333A4D"/>
<path opacity="0.8" d="M32 44.5L16 44.5" stroke="black" stroke-linecap="round"/>
<path opacity="0.8" d="M277 44.5L261 44.5" stroke="black" stroke-linecap="round"/>
</svg>
