<svg width="96" height="96" viewBox="0 0 96 96" fill="none" xmlns="http://www.w3.org/2000/svg">
<path fill-rule="evenodd" clip-rule="evenodd" d="M31.0433 83.2851H23.9063V76.7376H30.9293V78.1873H25.8165V79.3011H30.6563V80.6691H25.8195V81.7971H31.0433V83.2881V83.2851ZM72.0938 83.2851H65.0715V76.8396H71.9858V78.2608H66.9525V79.3558H71.7158V80.7013H66.9525V81.8113H72.0938V83.2851ZM40.7168 83.2851H37.8308L34.0283 78.3868H33.993V83.2851H32.103V76.7376H35.0355L38.7893 81.6388H38.8268V76.7376H40.7198V83.2851H40.7168ZM63.5948 83.2851H60.7088L56.9063 78.3868H56.871V83.2851H54.9728V76.7376H57.9053L61.6613 81.6388H61.6965V76.7376H63.5948V83.2851ZM46.2953 83.3751C45.6885 83.3751 45.1703 83.3601 44.7338 83.3308C44.3544 83.3107 43.9777 83.255 43.6088 83.1643C43.3388 83.0968 43.0838 82.9768 42.8618 82.8126C42.665 82.6591 42.5097 82.4587 42.4103 82.2298C42.2927 81.9527 42.2176 81.6594 42.1875 81.3598C42.1485 80.9575 42.1299 80.5535 42.132 80.1493V79.9558C42.1298 79.5488 42.1493 79.142 42.1905 78.7371C42.2205 78.4386 42.2933 78.1423 42.4103 77.8641C42.51 77.6361 42.6653 77.4366 42.8618 77.2813C43.0867 77.1188 43.3416 77.0023 43.6118 76.9386C43.9787 76.8477 44.3533 76.7917 44.7308 76.7713C45.2507 76.7425 45.7715 76.729 46.2923 76.7308H46.5765C47.0805 76.7308 47.523 76.7421 47.901 76.7623C48.2288 76.7803 48.5535 76.8186 48.876 76.8823C49.1138 76.9273 49.3395 77.0061 49.5533 77.1171C49.7228 77.2078 49.8698 77.3368 49.9778 77.4981C50.0865 77.6653 50.1593 77.8528 50.1915 78.0486C50.2358 78.2976 50.256 78.5496 50.253 78.8016V79.0506H48.405V78.9718C48.4105 78.8434 48.3874 78.7153 48.3375 78.5968C48.2784 78.4858 48.1816 78.3996 48.0645 78.3538C47.8825 78.284 47.6912 78.2416 47.4967 78.2278C47.1749 78.2015 46.8521 78.1888 46.5293 78.1896H46.3688C46.005 78.1896 45.6975 78.1956 45.4395 78.2098C45.2237 78.2156 45.0089 78.2422 44.7983 78.2893C44.6523 78.3216 44.5145 78.3833 44.3933 78.4708C44.2899 78.5524 44.2128 78.6624 44.1713 78.7873C44.1167 78.9481 44.0852 79.1157 44.0775 79.2853C44.0625 79.4811 44.0543 79.7188 44.0543 79.9941V80.1111C44.0543 80.3811 44.0625 80.6121 44.0775 80.8056C44.0865 80.9728 44.115 81.1371 44.1713 81.2946C44.2125 81.4183 44.2913 81.5263 44.394 81.6081C44.514 81.6966 44.655 81.7581 44.7983 81.7873C45.009 81.8338 45.2228 81.8601 45.4395 81.8698C45.6975 81.8811 46.005 81.8893 46.3688 81.8871H46.53C46.8255 81.8871 47.0805 81.8871 47.2943 81.8721C47.508 81.8571 47.6865 81.8421 47.8335 81.8196C47.9535 81.8046 48.0705 81.7693 48.1823 81.7221C48.2623 81.6871 48.3326 81.633 48.387 81.5646C48.4337 81.4978 48.4656 81.4219 48.4808 81.3418C48.4958 81.2421 48.504 81.1393 48.504 81.0403V80.8581H45.9908V79.5928H50.3258V81.0486C50.3295 81.3246 50.3115 81.6028 50.268 81.8751C50.2328 82.0918 50.1562 82.3026 50.0452 82.4901C49.9365 82.6626 49.7933 82.8096 49.6178 82.9176C49.4062 83.0443 49.1753 83.1351 48.9323 83.1876C48.6056 83.2632 48.2732 83.3111 47.9385 83.3308C47.5523 83.3571 47.1038 83.3721 46.5885 83.3721L46.2953 83.3751ZM53.5808 83.3001H51.6615V76.7991H53.5808V83.3001ZM9.1935 73.3093C8.265 73.3093 7.4535 73.2831 6.753 73.2328C6.14353 73.1976 5.53799 73.1123 4.9425 72.9778C4.49972 72.8826 4.07457 72.7186 3.6825 72.4918C3.36264 72.2967 3.09049 72.0325 2.886 71.7186C2.67774 71.3801 2.53548 71.0053 2.46675 70.6138C2.37905 70.1198 2.33787 69.6186 2.34375 69.1168V61.7308H5.71275V68.0241C5.71275 68.4141 5.72475 68.7478 5.754 69.0291C5.77125 69.2721 5.8275 69.5091 5.91825 69.7378C5.997 69.9253 6.12075 70.0896 6.28125 70.2156C6.46875 70.3506 6.6825 70.4466 6.90825 70.4998C7.22175 70.5786 7.54425 70.6258 7.866 70.6401C8.247 70.6641 8.6985 70.6723 9.22575 70.6723H9.51C10.0373 70.6723 10.4888 70.6611 10.869 70.6371C11.1915 70.6198 11.514 70.5756 11.8275 70.5021C12.0555 70.4526 12.267 70.3558 12.4545 70.2186C12.6131 70.0925 12.737 69.9281 12.8145 69.7408C12.9083 69.5158 12.9645 69.2751 12.9848 69.0321C13.011 68.7471 13.0223 68.4141 13.0223 68.0361V61.7286H16.392V69.1138C16.3943 69.6148 16.3568 70.1128 16.2773 70.6078C16.2146 71 16.0763 71.3762 15.87 71.7156C15.6705 72.0305 15.401 72.2951 15.0825 72.4888C14.6917 72.7168 14.2675 72.882 13.8255 72.9786C13.2278 73.1136 12.618 73.1976 12.006 73.2336C11.1858 73.2849 10.3641 73.3091 9.54225 73.3063L9.1935 73.3093ZM33.7035 73.1683H28.6673L22.0403 64.6018H21.9758V73.1683H18.675V61.7136H23.787L30.3353 70.2861H30.3998V61.7136H33.7013V73.1631L33.7035 73.1683ZM43.626 67.4968C44.2088 67.4968 44.6685 67.4796 45.015 67.4443C45.2896 67.428 45.5573 67.352 45.7995 67.2216C45.9728 67.1166 46.0988 66.9493 46.1483 66.7528C46.2095 66.4927 46.2372 66.2258 46.2308 65.9586V65.7621C46.2369 65.4981 46.2092 65.2345 46.1483 64.9776C46.1231 64.881 46.0788 64.7905 46.0179 64.7114C45.9571 64.6323 45.8811 64.5662 45.7943 64.5171C45.5496 64.3907 45.2809 64.3178 45.006 64.3033C44.5471 64.2635 44.0866 64.246 43.626 64.2508H39.4305V67.4968H43.626ZM49.62 73.1691H46.2953V72.2398C46.2983 71.9496 46.2833 71.6623 46.254 71.3758C46.2358 71.1628 46.1781 70.955 46.0838 70.7631C45.9991 70.5995 45.8728 70.4612 45.7178 70.3618C45.5275 70.2451 45.3167 70.1657 45.0968 70.1278C44.7827 70.0657 44.4642 70.0284 44.1443 70.0161C43.6956 69.9945 43.2464 69.9847 42.7973 69.9868H39.4305V73.1691H36.0975V61.7143H44.9775C45.7487 61.6999 46.5196 61.7577 47.28 61.8868C47.793 61.9647 48.2801 62.1635 48.7013 62.4666C49.05 62.7396 49.3013 63.1176 49.4212 63.5421C49.5653 64.0813 49.6328 64.6408 49.6178 65.1973V65.6023C49.6233 65.998 49.5891 66.3932 49.5158 66.7821C49.4543 67.0896 49.3395 67.3858 49.173 67.6521C49.0152 67.8946 48.8073 68.1004 48.5633 68.2558C48.279 68.4283 47.9685 68.5483 47.6438 68.6158V68.6833C47.9805 68.7336 48.3113 68.8153 48.6308 68.9353C48.8738 69.0238 49.0823 69.1791 49.2375 69.3868C49.398 69.6216 49.5008 69.8908 49.539 70.1721C49.5975 70.5823 49.6268 70.9956 49.6178 71.4111V73.1631L49.62 73.1691ZM64.251 73.1683H51.8085V61.7136H64.0545V64.2448H55.1423V66.1933H63.5828V68.5836H55.1423V70.5583H64.251V73.1683ZM75.5025 68.7298L73.1678 64.1361H73.0853L70.7708 68.7298H75.5025ZM81.3945 73.1773H77.7645L76.7153 71.1201H69.573L68.5418 73.1773H64.938L71.088 61.7278H75.2183L81.3945 73.1773ZM93.66 73.1773H82.6328V61.7278H85.9988V70.5201H93.66V73.1826V73.1773ZM61.764 35.2933C61.3658 37.2178 59.5905 42.1603 53.9273 44.8356L51.654 42.2781L47.8193 46.1361C45.6353 46.1069 43.4877 45.5731 41.5443 44.5765C39.6008 43.5799 37.914 42.1475 36.6158 40.3911C37.024 40.5176 37.4456 40.5964 37.872 40.6258C38.499 40.6371 39.1793 40.4083 39.1793 39.3486V28.9453C39.1895 28.6775 39.1364 28.4111 39.0243 28.1677C38.9123 27.9243 38.7444 27.7107 38.5343 27.5443C38.3249 27.3767 38.0788 27.261 37.8162 27.2065C37.5536 27.152 37.2818 27.1604 37.023 27.2308C35.247 27.6358 33.8265 32.0683 33.8265 32.0683C33.8073 30.0215 34.234 27.9951 35.0769 26.1298C35.9197 24.2645 37.1587 22.6051 38.7075 21.2668C41.3528 19.0251 43.9365 18.2488 45.9 17.9443C43.9605 19.0491 42.87 20.8536 42.87 22.3678C42.87 24.7971 44.3348 24.5098 44.772 24.1491V38.1996C44.8448 38.3788 44.9385 38.5423 45.0555 38.6976C45.2493 38.9661 45.505 39.1839 45.8008 39.3327C46.0966 39.4816 46.4239 39.557 46.755 39.5526C48.2228 39.5526 50.13 37.8771 50.13 37.8771V26.5011C50.13 25.3438 49.257 23.9436 48.384 23.4666C48.384 23.4666 49.998 23.1816 51.249 24.1371C51.4838 23.8498 51.7328 23.5746 51.996 23.3136C54.9023 20.4576 57.645 19.6491 59.9295 19.2411C59.9295 19.2411 55.7723 22.5081 55.7723 26.8851C55.7723 30.1401 55.8548 38.0826 55.8548 38.0826C57.4043 39.5676 59.6948 37.4233 61.764 35.2933Z" fill="white"/>
<path fill-rule="evenodd" clip-rule="evenodd" d="M48 8.80029C35.2088 8.80029 24.8378 19.1713 24.8378 31.9625C24.8378 44.7575 35.2118 55.1248 48.003 55.1248C60.7973 55.1248 71.1683 44.7538 71.1653 31.9595C71.1653 19.1683 60.7943 8.79729 48 8.80029ZM48 54.1955C35.7188 54.1985 25.764 44.243 25.761 31.9618C25.761 19.6805 35.7158 9.72579 48 9.72579C60.2813 9.72279 70.236 19.6805 70.236 31.9595C70.236 44.2408 60.2813 54.1955 48 54.1955Z" fill="white"/>
</svg>
