<svg width="96" height="96" viewBox="0 0 96 96" fill="none" xmlns="http://www.w3.org/2000/svg">
<path d="M23.775 46.5563C31.2188 35.5688 38.3813 29.1563 38.3813 29.1563C38.3813 29.1563 30.4875 19.9875 20.9813 16.5188L20.3625 16.3688C12.3672 23.3597 7.31539 33.1187 6.22312 43.6831C5.13085 54.2475 8.07913 64.8336 14.475 73.3125C14.475 72.4875 14.5875 60.1313 23.775 46.5563ZM90 48C90.0044 42.0077 88.7247 36.0839 86.2473 30.6277C83.7698 25.1714 80.152 20.3093 75.6375 16.3688L75.0375 16.5375C65.5313 20.0063 57.6188 29.175 57.6188 29.175C57.6188 29.175 64.7813 35.5875 72.225 46.575C81.4125 60.15 81.525 72.5063 81.5063 73.3313C87.0341 66.045 90.018 57.1459 90 48ZM37.725 15.1688C43.2188 17.625 47.9625 21.6563 47.9625 21.6563C47.9625 21.6563 52.7438 17.6438 58.2375 15.1688C65.1375 12.075 70.4063 13.05 71.7938 13.3875C64.7919 8.5758 56.4958 6 48 6C39.5042 6 31.2081 8.5758 24.2063 13.3875C25.5563 13.05 30.8063 12.0563 37.725 15.1688ZM67.2563 54.9188C58.575 44.25 47.9625 37.3125 47.9625 37.3125C47.9625 37.3125 37.4063 44.25 28.7063 54.9188C21.2438 64.0875 18.4688 70.8188 16.9688 75.1313L16.725 76.0313C20.6642 80.4259 25.4853 83.9411 30.8741 86.3476C36.2629 88.754 42.0983 89.9978 48 89.9978C53.9017 89.9978 59.7372 88.754 65.1259 86.3476C70.5147 83.9411 75.3358 80.4259 79.275 76.0313L79.0125 75.1313C77.5125 70.8188 74.7188 64.0875 67.2563 54.9188Z" fill="white"/>
</svg>
