<svg width="96" height="96" viewBox="0 0 96 96" fill="none" xmlns="http://www.w3.org/2000/svg">
<path d="M65.4619 25.6611C57.9019 25.6611 54.7069 29.2686 49.4419 29.2686C44.0438 29.2686 39.9263 25.6874 33.375 25.6874C26.9625 25.6874 20.1244 29.6024 15.7819 36.2718C9.68438 45.6768 10.7194 63.3899 20.595 78.4799C24.1275 83.8818 28.845 89.9399 35.0325 90.0055H35.145C40.5225 90.0055 42.12 86.4843 49.5206 86.443H49.6331C56.9231 86.443 58.3856 89.9849 63.7406 89.9849H63.8531C70.0406 89.9193 75.0113 83.2068 78.5438 77.8255C81.0863 73.9555 82.0313 72.013 83.9813 67.6349C69.6956 62.2124 67.4006 41.9605 81.5288 34.1961C77.2163 28.7961 71.1563 25.6686 65.4431 25.6686L65.4619 25.6611Z" fill="white"/>
<path d="M63.7968 6C59.2968 6.30562 54.0468 9.17062 50.9718 12.9112C48.1818 16.3012 45.8868 21.33 46.7868 26.2069H47.1468C51.9393 26.2069 56.8443 23.3212 59.7093 19.6237C62.4693 16.1044 64.5618 11.1169 63.7968 6Z" fill="white"/>
</svg>
