<svg width="96" height="96" viewBox="0 0 96 96" fill="none" xmlns="http://www.w3.org/2000/svg">
<path d="M17.4731 61.7588L26.37 4.74566C26.6775 2.80128 29.2856 2.34191 30.2063 4.08004L39.7688 21.9769L17.4731 61.7588ZM81 75L72.2363 23.1019C72.1727 22.7309 72.0088 22.3844 71.7624 22.0999C71.516 21.8154 71.1965 21.6038 70.8384 21.4879C70.4803 21.372 70.0974 21.3563 69.731 21.4425C69.3646 21.5287 69.0288 21.7135 68.76 21.9769L15 75L44.88 92.2332C45.7969 92.736 46.8258 92.9996 47.8716 92.9996C48.9173 92.9996 49.9462 92.736 50.8631 92.2332L81 75ZM56.6925 29.7994L49.8413 16.7607C49.6709 16.4257 49.4112 16.1444 49.0908 15.948C48.7705 15.7515 48.402 15.6475 48.0263 15.6475C47.6505 15.6475 47.282 15.7515 46.9617 15.948C46.6413 16.1444 46.3816 16.4257 46.2113 16.7607L16.0931 70.4513L56.6925 29.7994Z" fill="white"/>
</svg>
