<svg width="96" height="96" viewBox="0 0 96 96" fill="none" xmlns="http://www.w3.org/2000/svg">
<path d="M30.56 41.5202C30.56 42.5202 30.64 43.3202 30.84 44.0002C31.04 44.4802 31.32 45.1202 31.68 45.8402C31.84 46.0002 31.88 46.2402 31.88 46.4402C31.88 46.7202 31.72 46.9602 31.36 47.2402L29.68 48.3602C29.44 48.5202 29.2 48.6002 29 48.6002C28.72 48.6002 28.48 48.4402 28.2 48.2002C27.84 47.8002 27.52 47.4002 27.24 46.9602C27 46.5202 26.72 46.0002 26.44 45.4002C24.36 47.8402 21.76 49.0802 18.6 49.0802C16.36 49.0802 14.6 48.4402 13.28 47.1602C12 45.8802 11.32 44.1602 11.32 42.0002C11.32 39.8002 12.12 38.0002 13.72 36.5602C15.36 35.2002 17.52 34.4802 20.24 34.4802C21.16 34.4802 22 34.5602 23.08 34.7202C24 34.8402 25.08 35.0402 26.12 35.2802V33.3602C26.12 31.3202 25.72 30.0002 24.88 29.0802C24 28.2402 22.6 27.8802 20.56 27.8802C19.6 27.8802 18.64 28.0002 17.68 28.2002C16.68 28.4402 15.72 28.7202 14.8 29.1202C14.36 29.2802 14 29.4002 13.88 29.4402C13.68 29.5202 13.56 29.5202 13.44 29.5202C13.08 29.5202 12.88 29.2802 12.88 28.7202V27.4002C12.88 27.0002 12.92 26.6802 13.08 26.4802C13.2 26.2802 13.44 26.1202 13.8 26.0002C14.76 25.4402 15.84 25.0402 17.16 24.7202C18.5169 24.3604 19.9162 24.1855 21.32 24.2002C24.48 24.2002 26.8 24.9202 28.28 26.3602C29.76 27.8002 30.48 30.0002 30.48 32.9202V41.5202H30.56ZM19.76 45.6002C20.64 45.6002 21.52 45.4402 22.48 45.1202C23.44 44.8002 24.28 44.2002 25 43.4002C25.44 42.8802 25.76 42.3202 26 41.6802C26 41.0402 26.2 40.2802 26.2 39.3602V38.2802C25.4 38.0002 24.6 38.0002 23.72 37.8002C22.8962 37.7096 22.0686 37.6562 21.24 37.6402C19.44 37.6402 18.16 38.0002 17.28 38.7202C16.4 39.4402 16 40.4402 16 41.7602C16 43.0402 16.28 44.0002 16.96 44.6002C17.6 45.2802 18.52 45.6002 19.76 45.6002ZM41.12 48.4402C40.7325 48.455 40.3474 48.3725 40 48.2002C39.88 48.0002 39.68 47.6402 39.52 47.1602L33.28 26.6002C33.12 26.0002 33.04 25.7202 33.04 25.5202C33.04 25.0802 33.24 24.8402 33.68 24.8402H36.28C36.8 24.8402 37.16 24.9202 37.32 25.1202C37.56 25.2802 37.72 25.6402 37.88 26.1602L42.32 43.7602L46.48 26.1602C46.6 25.6402 46.76 25.2802 47 25.1202C47.2 24.9602 47.56 24.8402 48 24.8402H50.2C50.68 24.8402 51.04 24.9202 51.24 25.1202C51.44 25.2802 51.64 25.6402 51.76 26.1602L56 44.0002L60.56 26.1602C60.72 25.6402 60.92 25.2802 61.08 25.1202C61.32 24.9602 61.64 24.8402 62.12 24.8402H64.6C65.04 24.8402 65.28 25.0802 65.28 25.5202C65.28 25.6402 65.24 25.8002 65.2 26.0002C65.2 26.0002 65.12 26.3202 65.04 26.6002L58.6 47.1602C58.44 47.7202 58.28 48.0002 58 48.2002C57.84 48.3602 57.48 48.4802 57.04 48.4802H54.76C54.24 48.4802 54 48.4002 53.68 48.2002C53.411 47.915 53.2425 47.5498 53.2 47.1602L49.08 30.0002L44.96 47.1202C44.84 47.6402 44.68 48.0002 44.48 48.2002C44.1505 48.3822 43.7756 48.4655 43.4 48.4402H41.12ZM75.32 49.1602C74 49.1602 72.52 49.0002 71.2 48.6802C69.88 48.3602 68.84 48.0002 68.16 47.6402C67.8121 47.4738 67.5202 47.2097 67.32 46.8802C67.2102 46.6563 67.1553 46.4095 67.16 46.1602V44.8002C67.16 44.2402 67.36 44.0002 67.76 44.0002H68.24C68.4 44.0002 68.64 44.2002 68.92 44.3202C69.8 44.7202 70.8 45.0402 71.84 45.2402C72.92 45.4402 74 45.5602 75 45.5602C76.68 45.5602 78 45.2802 78.88 44.6802C79.8 44.0002 80.28 43.2402 80.28 42.1602C80.28 41.4002 80 40.8002 79.56 40.2802C79.08 39.8002 78.16 39.3202 76.88 38.9202L73 37.7202C71.08 37.0802 69.64 36.2002 68.76 35.0002C67.9012 33.8894 67.4368 32.5242 67.44 31.1202C67.44 30.0002 67.68 29.0402 68.16 28.2002C68.64 27.3202 69.28 26.6002 70 26.0002C70.88 25.4002 71.76 24.9602 72.84 24.6402C73.88 24.3202 75 24.1602 76.2 24.1602C76.76 24.1602 77.36 24.2002 78 24.2802C78.56 24.3602 79.12 24.4802 79.68 24.5602C80.24 24.7202 80.72 24.8402 81.2 25.0002C81.68 25.1602 82 25.3202 82.32 25.4802C82.68 25.6802 82.96 25.8802 83.12 26.1202C83.28 26.3602 83.36 26.6402 83.36 27.0002V28.2802C83.36 28.8402 83.16 29.1202 82.76 29.1202C82.56 29.1202 82.2 29.0002 81.72 28.8002C80.24 28.1202 78.52 27.7602 76.64 27.7602C75.12 27.7602 74 28.0002 73.08 28.5202C72.28 29.0002 71.84 29.8002 71.84 30.8802C71.84 31.6402 72.12 32.2802 72.64 32.7602C73.16 33.2802 74.16 33.7602 75.56 34.2402L79.36 35.4402C81.28 36.0002 82.64 36.8802 83.48 38.0002C84.28 39.0802 84.68 40.3202 84.68 41.7202C84.68 42.8402 84.44 43.8802 84 44.8002C83.52 45.6802 82.88 46.4802 82 47.1202C81.24 47.8002 80.24 48.2802 79.12 48.6402C78 49.0002 76.64 49.1602 75.32 49.1602ZM80.32 62.1202C71.56 68.5602 58.84 72.0002 48 72.0002C32.6 72.0002 18.8 66.3202 8.35999 56.9202C7.51999 56.1602 8.27999 55.1602 9.27999 55.7602C20.56 62.2802 34.44 66.2402 48.84 66.2402C58.56 66.2402 69.24 64.2402 79.04 60.0002C80.52 59.4002 81.76 61.0402 80.32 62.1202ZM84 58.0002C82.84 56.5202 76.56 57.2802 73.72 57.6002C72.88 57.7202 72.76 56.9602 73.52 56.4002C78.52 52.9202 86.76 54.0002 87.68 55.0802C88.64 56.2802 87.44 64.5202 82.76 68.4402C82 69.0402 81.32 68.7202 81.64 68.0002C82.72 65.2802 85.08 59.3602 84 58.0002Z" fill="white"/>
</svg>
