<svg width="96" height="96" viewBox="0 0 96 96" fill="none" xmlns="http://www.w3.org/2000/svg">
<path d="M34.9762 13.8224C34.7343 13.6728 34.5399 13.4574 34.4157 13.2014C34.2916 12.9454 34.2427 12.6594 34.275 12.3768C34.3072 12.0941 34.4192 11.8265 34.5978 11.605C34.7764 11.3836 35.0143 11.2175 35.2837 11.1262C40.755 9.24101 46.5773 8.59777 52.3282 9.24317C58.079 9.88856 63.6139 11.8064 68.5312 14.8574C68.7094 14.9698 68.8619 15.1184 68.9789 15.2936C69.0958 15.4688 69.1745 15.6667 69.2099 15.8744C69.2453 16.082 69.2365 16.2948 69.1842 16.4989C69.1319 16.7029 69.0372 16.8937 68.9062 17.0587C64.5643 22.6071 59.2396 27.3102 53.1975 30.9337C48.3167 24.0796 42.1231 18.2634 34.9762 13.8224ZM47.8425 33.7499C42.3656 26.2766 35.1602 20.2408 26.8425 16.1587C26.6043 16.043 26.3394 15.9935 26.0755 16.0152C25.8116 16.037 25.5585 16.1293 25.3425 16.2824C18.6089 21.0989 13.5754 27.9259 10.965 35.7824C10.8994 35.9833 10.877 36.1958 10.8993 36.4059C10.9215 36.6161 10.9879 36.8192 11.0942 37.0019C11.2004 37.1845 11.344 37.3427 11.5156 37.466C11.6872 37.5894 11.8829 37.675 12.09 37.7174C16.0041 38.5611 19.996 38.991 24 38.9999C32.2347 39.0044 40.3713 37.2128 47.8425 33.7499ZM86.7675 43.7587C85.8139 35.0606 81.9578 26.9375 75.8212 20.6999C75.6716 20.5479 75.4913 20.4296 75.2923 20.3528C75.0934 20.276 74.8803 20.2425 74.6674 20.2546C74.4544 20.2667 74.2465 20.324 74.0575 20.4228C73.8685 20.5216 73.7027 20.6595 73.5712 20.8274C68.8251 26.8739 63.0195 32.0073 56.4375 35.9774C58.4938 39.5398 60.1957 43.2953 61.5187 47.1899C66.8913 45.7335 72.4335 44.997 78 44.9999C80.3806 45 82.7594 45.134 85.125 45.4012C85.3451 45.4231 85.5674 45.3961 85.7759 45.3221C85.9844 45.248 86.1739 45.1288 86.3309 44.9729C86.4879 44.817 86.6084 44.6283 86.6839 44.4203C86.7594 44.2123 86.7879 43.9902 86.7675 43.7699V43.7587ZM63.1762 52.9462C64.2877 57.6743 64.8477 62.5154 64.845 67.3724C64.8427 72.0214 64.3258 76.6559 63.3037 81.1912C63.2384 81.4689 63.2536 81.7596 63.3477 82.029C63.4417 82.2984 63.6106 82.5354 63.8347 82.7122C64.0587 82.889 64.3285 82.9982 64.6124 83.027C64.8963 83.0558 65.1825 83.0031 65.4375 82.8749C71.1251 80.0218 76.0302 75.8234 79.7271 70.6444C83.424 65.4654 85.8008 59.4622 86.6512 53.1562C86.6769 52.9595 86.6634 52.7597 86.6114 52.5683C86.5594 52.377 86.4699 52.1978 86.3482 52.0412C86.2265 51.8846 86.0749 51.7537 85.9023 51.6561C85.7297 51.5585 85.5394 51.496 85.3425 51.4724C77.9267 50.518 70.3958 51.0276 63.1762 52.9724V52.9462ZM55.8112 49.0274C54.6021 45.4815 53.0458 42.0637 51.165 38.8237C42.6885 42.8959 33.4038 45.0069 24 44.9999C19.6042 45.0002 15.2204 44.5414 10.92 43.6312C10.7125 43.5874 10.4981 43.5881 10.2909 43.6333C10.0837 43.6784 9.88843 43.767 9.71798 43.8932C9.54753 44.0193 9.40576 44.1802 9.30204 44.3651C9.19831 44.5501 9.13498 44.755 9.11622 44.9662C9.03872 45.9662 8.99872 46.9774 8.99622 47.9999C8.99425 53.3401 10.092 58.6236 12.221 63.521C14.3501 68.4185 17.4648 72.825 21.3712 76.4662C21.536 76.6172 21.7324 76.7295 21.9462 76.7948C22.1599 76.8602 22.3856 76.8769 22.6066 76.8439C22.8277 76.8108 23.0386 76.7287 23.2238 76.6037C23.4091 76.4787 23.5641 76.3138 23.6775 76.1212C30.9968 63.7017 42.3315 54.1487 55.8112 49.0387V49.0274ZM28.3837 79.9687C28.2851 80.1408 28.2217 80.3307 28.197 80.5275C28.1723 80.7243 28.1869 80.924 28.2399 81.1151C28.2929 81.3062 28.3833 81.4849 28.5058 81.6409C28.6283 81.7968 28.7806 81.9269 28.9537 82.0237C36.7962 86.4207 45.9182 87.9695 54.7725 86.4074C55.0359 86.3615 55.2819 86.2447 55.484 86.0697C55.6861 85.8946 55.8369 85.6678 55.92 85.4137C57.854 79.5991 58.8416 73.5115 58.845 67.3837C58.8457 63.162 58.3753 58.9535 57.4425 54.8362C45.1549 59.6237 34.8925 68.4995 28.3837 79.9687Z" fill="white"/>
</svg>
