<svg width="96" height="96" viewBox="0 0 96 96" fill="none" xmlns="http://www.w3.org/2000/svg">
<path d="M70.5 45.0001L48 30.0001L68.835 16.1251C69.328 15.7961 69.9073 15.6206 70.5 15.6206C71.0926 15.6206 71.672 15.7961 72.165 16.1251L89.25 27.5026C89.6615 27.7764 89.9989 28.1477 90.2323 28.5834C90.4658 29.0191 90.5879 29.5058 90.5879 30.0001C90.5879 30.4943 90.4658 30.981 90.2323 31.4167C89.9989 31.8524 89.6615 32.2237 89.25 32.4976L70.5 45.0001ZM27.165 16.1251C26.672 15.7961 26.0926 15.6206 25.5 15.6206C24.9073 15.6206 24.328 15.7961 23.835 16.1251L6.74997 27.5026C6.33847 27.7764 6.00101 28.1477 5.7676 28.5834C5.53418 29.0191 5.41205 29.5058 5.41205 30.0001C5.41205 30.4943 5.53418 30.981 5.7676 31.4167C6.00101 31.8524 6.33847 32.2237 6.74997 32.4976L25.5 45.0001L48 30.0001L27.165 16.1251ZM89.25 57.5026L70.5 45.0001L48 60.0001L68.835 73.875C69.328 74.204 69.9073 74.3795 70.5 74.3795C71.0926 74.3795 71.672 74.204 72.165 73.875L89.25 62.4976C89.6615 62.2237 89.9989 61.8524 90.2323 61.4167C90.4658 60.981 90.5879 60.4943 90.5879 60.0001C90.5879 59.5058 90.4658 59.0191 90.2323 58.5834C89.9989 58.1477 89.6615 57.7764 89.25 57.5026ZM6.74997 57.5026C6.33847 57.7764 6.00101 58.1477 5.7676 58.5834C5.53418 59.0191 5.41205 59.5058 5.41205 60.0001C5.41205 60.4943 5.53418 60.981 5.7676 61.4167C6.00101 61.8524 6.33847 62.2237 6.74997 62.4976L23.835 73.875C24.328 74.204 24.9073 74.3795 25.5 74.3795C26.0926 74.3795 26.672 74.204 27.165 73.875L48 60.0001L25.5 45.0001L6.74997 57.5026ZM63.2287 77.3588L48.84 67.7663C48.5935 67.6018 48.3038 67.5141 48.0075 67.5141C47.7112 67.5141 47.4215 67.6018 47.175 67.7663L32.7787 77.3588C32.5738 77.4959 32.4057 77.6814 32.2895 77.8988C32.1734 78.1163 32.1126 78.3591 32.1126 78.6057C32.1126 78.8523 32.1734 79.095 32.2895 79.3125C32.4057 79.53 32.5738 79.7155 32.7787 79.8526L46.335 88.875C46.828 89.204 47.4073 89.3795 48 89.3795C48.5926 89.3795 49.172 89.204 49.665 88.875L63.2212 79.8375C63.4231 79.6999 63.5883 79.5151 63.7024 79.2991C63.8166 79.0831 63.8763 78.8425 63.8763 78.5982C63.8763 78.3539 63.8166 78.1133 63.7024 77.8973C63.5883 77.6813 63.4231 77.4964 63.2212 77.3588H63.2287Z" fill="white"/>
</svg>
