<svg width="96" height="96" viewBox="0 0 96 96" fill="none" xmlns="http://www.w3.org/2000/svg">
<path d="M91.5 55.9912C91.5 62.3062 90.2363 67.74 87.8438 71.7075C84.7725 76.8037 79.9987 79.5 74.04 79.5C62.6663 79.5 55.02 65.2312 46.9275 50.1263C41.0475 39.1537 33.75 25.5 27.75 25.5C24.8587 25.5 21.315 29.0137 18.5025 34.6687C15.2854 41.3212 13.5773 48.6021 13.5 55.9912C13.5 60.6037 14.34 64.5338 15.8625 67.0612C17.2762 69.4088 19.215 70.5 21.96 70.5C27.1163 70.5 33.4462 59.625 35.5275 56.0662C36.1287 55.0349 37.115 54.2846 38.2694 53.9804C39.4238 53.6763 40.6518 53.8432 41.6831 54.4444C42.7145 55.0456 43.4648 56.0319 43.7689 57.1863C44.0731 58.3407 43.9062 59.5686 43.305 60.6C39.9638 66.33 37.1063 70.35 34.305 73.2675C30.2813 77.46 26.25 79.5 21.96 79.5C16.0013 79.5 11.2275 76.8037 8.15625 71.7075C5.76375 67.74 4.5 62.3062 4.5 55.9912C4.5 39.5025 13.3425 16.5 27.75 16.5C39.1237 16.5 46.77 30.7688 54.8625 45.8738C60.75 56.8463 68.0513 70.5 74.04 70.5C76.785 70.5 78.7237 69.4088 80.1375 67.0612C81.66 64.5338 82.5 60.6037 82.5 55.9912C82.4239 48.6024 80.717 41.3215 77.5013 34.6687C74.6888 29.0137 71.145 25.5 68.25 25.5C66.105 25.5 63.5212 27.375 60.5662 31.0613C59.8203 31.9932 58.7348 32.5906 57.5484 32.7221C56.362 32.8536 55.1719 32.5084 54.24 31.7625C53.3081 31.0166 52.7107 29.931 52.5792 28.7446C52.4477 27.5582 52.7928 26.3682 53.5387 25.4363C58.3575 19.425 63.1688 16.5 68.25 16.5C74.8688 16.5 81 21.5288 85.5562 30.66C89.3782 38.5632 91.4077 47.2129 91.5 55.9912Z" fill="white"/>
</svg>
