<svg width="96" height="96" viewBox="0 0 96 96" fill="none" xmlns="http://www.w3.org/2000/svg">
<path d="M51 48C51 52.7468 49.5924 57.3869 46.9553 61.3337C44.3181 65.2805 40.5698 68.3566 36.1844 70.1731C31.799 71.9896 26.9734 72.4649 22.3178 71.5388C17.6623 70.6128 13.3859 68.327 10.0294 64.9706C6.67299 61.6141 4.38721 57.3377 3.46116 52.6822C2.53512 48.0266 3.0104 43.201 4.8269 38.8156C6.64341 34.4302 9.71955 30.6819 13.6663 28.0447C17.6131 25.4076 22.2533 24 27 24C33.3631 24.0069 39.4635 26.5377 43.9629 31.0371C48.4623 35.5365 50.9931 41.6369 51 48ZM69 24C66.87 24 62.85 25.035 59.88 31.9688C58.0238 36.3 57 42 57 48C57 54 58.0238 59.7 59.88 64.0312C62.85 70.965 66.87 72 69 72C71.13 72 75.15 70.965 78.12 64.0312C79.9763 59.7 81 54 81 48C81 42 79.9763 36.3 78.12 31.9688C75.15 25.035 71.13 24 69 24ZM90 24C89.2044 24 88.4413 24.3161 87.8787 24.8787C87.3161 25.4413 87 26.2044 87 27V69C87 69.7957 87.3161 70.5587 87.8787 71.1213C88.4413 71.6839 89.2044 72 90 72C90.7957 72 91.5587 71.6839 92.1213 71.1213C92.684 70.5587 93 69.7957 93 69V27C93 26.2044 92.684 25.4413 92.1213 24.8787C91.5587 24.3161 90.7957 24 90 24Z" fill="white"/>
</svg>
