<svg width="96" height="96" viewBox="0 0 96 96" fill="none" xmlns="http://www.w3.org/2000/svg">
<path d="M90 39C90 43.7468 88.5924 48.3869 85.9553 52.3337C83.3181 56.2805 79.5698 59.3566 75.1844 61.1731C70.799 62.9896 65.9734 63.4649 61.3178 62.5388C56.6623 61.6128 52.3859 59.327 49.0294 55.9706C45.673 52.6141 43.3872 48.3377 42.4612 43.6822C41.5351 39.0266 42.0104 34.201 43.8269 29.8156C45.6434 25.4302 48.7195 21.6819 52.6663 19.0447C56.6131 16.4076 61.2533 15 66 15C72.3631 15.0069 78.4635 17.5377 82.9629 22.0371C87.4623 26.5365 89.993 32.6369 90 39ZM30 15H24C22.4087 15 20.8826 15.6321 19.7574 16.7574C18.6321 17.8826 18 19.4087 18 21V78C18 79.5913 18.6321 81.1174 19.7574 82.2426C20.8826 83.3679 22.4087 84 24 84H30C31.5913 84 33.1174 83.3679 34.2426 82.2426C35.3679 81.1174 36 79.5913 36 78V21C36 19.4087 35.3679 17.8826 34.2426 16.7574C33.1174 15.6321 31.5913 15 30 15Z" fill="white"/>
</svg>
