<svg width="96" height="96" viewBox="0 0 96 96" fill="none" xmlns="http://www.w3.org/2000/svg">
<path d="M48 9C40.2865 9 32.7463 11.2873 26.3328 15.5727C19.9193 19.8581 14.9205 25.949 11.9687 33.0753C9.0169 40.2017 8.24457 48.0433 9.74939 55.6085C11.2542 63.1738 14.9686 70.1229 20.4229 75.5772C25.8771 81.0314 32.8262 84.7458 40.3915 86.2506C47.9568 87.7554 55.7984 86.9831 62.9247 84.0313C70.051 81.0795 76.142 76.0808 80.4273 69.6672C84.7127 63.2537 87 55.7135 87 48C86.9891 37.6599 82.8767 27.7464 75.5651 20.4349C68.2536 13.1233 58.3401 9.01092 48 9ZM59.6513 63.6525C59.2792 64.3555 58.6431 64.882 57.8829 65.1162C57.1228 65.3503 56.3007 65.273 55.5975 64.9013C53.2619 63.6458 50.6516 62.9887 48 62.9887C45.3484 62.9887 42.7381 63.6458 40.4025 64.9013C39.7013 65.2538 38.8898 65.3175 38.1421 65.0787C37.3945 64.8398 36.7702 64.3175 36.4032 63.6237C36.0362 62.9299 35.9557 62.1199 36.1789 61.3675C36.4022 60.615 36.9115 59.9801 37.5975 59.5987C40.8028 57.9034 44.3739 57.0171 48 57.0171C51.6261 57.0171 55.1972 57.9034 58.4025 59.5987C59.1055 59.9708 59.632 60.6069 59.8662 61.3671C60.1004 62.1273 60.0231 62.9493 59.6513 63.6525ZM65.6513 53.1525C65.2772 53.8546 64.6397 54.3793 63.8788 54.6114C63.1179 54.8435 62.296 54.7638 61.5938 54.39C57.4107 52.1612 52.7436 50.9955 48.0038 50.9955C43.264 50.9955 38.5969 52.1612 34.4138 54.39C33.7131 54.7479 32.8999 54.8162 32.1494 54.5802C31.3989 54.3443 30.7711 53.8229 30.4013 53.1285C30.0314 52.4341 29.9492 51.6222 30.1722 50.8678C30.3953 50.1133 30.9058 49.4767 31.5938 49.095C36.6443 46.4018 42.28 44.993 48.0038 44.993C53.7275 44.993 59.3633 46.4018 64.4138 49.095C64.7621 49.2805 65.0703 49.5329 65.3209 49.8378C65.5715 50.1426 65.7595 50.4939 65.8741 50.8715C65.9887 51.2491 66.0277 51.6456 65.9888 52.0383C65.9499 52.431 65.8339 52.8122 65.6475 53.16L65.6513 53.1525ZM71.6513 42.6525C71.4657 43.0003 71.2135 43.3081 70.9089 43.5584C70.6044 43.8086 70.2535 43.9964 69.8763 44.111C69.4991 44.2256 69.1031 44.2647 68.7108 44.2262C68.3185 44.1876 67.9377 44.0721 67.59 43.8862C61.5658 40.6596 54.8377 38.9712 48.0038 38.9712C41.1698 38.9712 34.4417 40.6596 28.4175 43.8862C27.7154 44.2612 26.893 44.3419 26.1314 44.1105C25.3697 43.8791 24.7312 43.3547 24.3563 42.6525C23.9813 41.9503 23.9007 41.128 24.132 40.3664C24.3634 39.6047 24.8879 38.9662 25.59 38.5913C32.4847 34.9013 40.1838 32.9707 48.0038 32.9707C55.8238 32.9707 63.5228 34.9013 70.4175 38.5913C70.766 38.7771 71.0743 39.0299 71.3248 39.3352C71.5754 39.6405 71.7631 39.9922 71.8774 40.3702C71.9917 40.7482 72.0302 41.1451 71.9908 41.538C71.9513 41.931 71.8347 42.3122 71.6475 42.66L71.6513 42.6525Z" fill="white"/>
</svg>
