<svg width="96" height="96" viewBox="0 0 96 96" fill="none" xmlns="http://www.w3.org/2000/svg">
<path fill-rule="evenodd" clip-rule="evenodd" d="M48 1.60012C36.9757 1.59176 26.3086 5.50888 17.9096 12.6498C9.51066 19.7906 3.9286 29.6887 2.16344 40.5708C0.398279 51.4528 2.56536 62.6079 8.27647 72.0375C13.9876 81.4672 22.8695 88.5553 33.3312 92.0321C35.6544 92.4545 36.4992 91.0209 36.4992 89.7921C36.4992 88.6913 36.4608 85.7729 36.4352 81.9009C23.5328 84.7041 20.8064 75.6801 20.8064 75.6801C18.6944 70.3169 15.6544 68.8961 15.6544 68.8961C11.4432 66.0161 15.9744 66.0737 15.9744 66.0737C20.6336 66.4001 23.0784 70.8545 23.0784 70.8545C27.2192 77.9457 33.9392 75.8977 36.5824 74.7073C37.0048 71.7121 38.208 69.6641 39.5264 68.5057C29.2224 67.3345 18.3936 63.3537 18.3936 45.5745C18.3266 40.9647 20.0389 36.5064 23.1744 33.1265C22.6944 31.9489 21.1008 27.2385 23.6224 20.8385C23.6224 20.8385 27.5264 19.5969 36.384 25.6001C40.1704 24.5705 44.0762 24.0454 48 24.0385C51.9238 24.0459 55.8295 24.571 59.616 25.6001C68.4736 19.5969 72.3648 20.8449 72.3648 20.8449C74.8992 27.2321 73.3056 31.9489 72.8256 33.1265C75.8016 36.3713 77.5936 40.5057 77.5936 45.5745C77.5936 63.3985 66.7456 67.3217 56.4096 68.4673C58.0736 69.9009 59.5584 72.7361 59.5584 77.0625C59.5584 83.2705 59.5008 88.2689 59.5008 89.7921C59.5008 91.0337 60.3392 92.4801 62.6944 92.0257C73.154 88.5445 82.0324 81.4531 87.7395 72.0218C93.4465 62.5904 95.6093 51.4352 93.8403 40.5544C92.0714 29.6736 86.4864 19.7781 78.0856 12.6403C69.6849 5.50244 59.0237 1.58872 48 1.60012Z" fill="white"/>
</svg>
