<svg width="96" height="96" viewBox="0 0 96 96" fill="none" xmlns="http://www.w3.org/2000/svg">
<path d="M22.8316 12.003C18.7518 12.003 17.2501 13.521 17.2501 17.6399V67.3223C17.2481 67.756 17.268 68.1895 17.3096 68.6212C17.4018 69.5212 17.4196 70.3912 18.2493 71.3812C18.3296 71.4802 19.1741 72.1162 19.1741 72.1162C19.629 72.3412 19.9412 72.5062 20.4527 72.7162L45.2375 83.189C46.5251 83.786 47.0633 84.017 47.997 83.999H48.003C48.9367 84.017 49.4749 83.786 50.7625 83.189L75.5473 72.7132C76.0588 72.5032 76.371 72.3412 76.8259 72.1132C76.8259 72.1132 77.6704 71.4802 77.7507 71.3842C78.5833 70.3942 78.5982 69.5212 78.6904 68.6242C78.7321 68.1915 78.752 67.757 78.7498 67.3223V17.6399C78.7498 13.521 77.2452 12 73.1655 12L22.8316 12.003ZM62.5765 21.3329H64.5986C67.9825 21.3329 69.618 22.9919 69.618 26.4208V32.0607H65.5323V26.6608C65.5323 25.5538 65.0268 25.0408 63.9771 25.0408H63.2783C62.187 25.0408 61.6815 25.5508 61.6815 26.6578V44.0876C61.6815 45.1946 62.187 45.7075 63.2783 45.7075H64.0574C65.107 45.7075 65.6125 45.1946 65.6125 44.0876V37.8597H69.6953V44.2886C69.6953 47.7205 68.0241 49.4185 64.6402 49.4185H62.5765C59.1926 49.4185 57.5214 47.7205 57.5214 44.2886V26.4628C57.5214 23.0309 59.1926 21.3359 62.5765 21.3359V21.3329ZM26.3404 21.5729H35.6001V25.3948H30.5034V33.2037H35.4039V37.0287H30.5034V45.3506H35.6775V49.1755H26.3404V21.5729ZM37.6876 21.5729H44.2235C47.6075 21.5729 49.2786 23.2648 49.2786 26.6968V34.0317C49.2786 37.4637 47.6075 39.1616 44.2235 39.1616H41.8476V49.1755H37.6846L37.6876 21.5729ZM51.1579 21.5729H55.321V49.1755H51.1579V21.5729ZM41.8506 25.2778V35.4537H43.5604C44.6131 35.4537 45.1156 34.9407 45.1156 33.8337V26.8978C45.1156 25.7938 44.6101 25.2778 43.5604 25.2778H41.8506ZM30.7294 55.7184C31.3296 55.7208 31.9246 55.8305 32.4868 56.0424C33.0182 56.2582 33.5106 56.5613 33.9439 56.9394L32.5998 58.5774C32.3246 58.3382 32.016 58.1411 31.6839 57.9924C31.3417 57.8507 30.9744 57.7812 30.6045 57.7884C30.3172 57.786 30.033 57.8474 29.7719 57.9684C29.5199 58.0852 29.2935 58.2514 29.1058 58.4574C28.9131 58.6705 28.7608 58.9176 28.6568 59.1864C28.5449 59.4718 28.4884 59.7764 28.4903 60.0834V60.1073C28.488 60.4251 28.5445 60.7405 28.6568 61.0373C28.7597 61.3126 28.9187 61.563 29.1237 61.7723C29.3261 61.9776 29.5666 62.1407 29.8314 62.2523C30.1171 62.3707 30.4235 62.4299 30.7324 62.4263C31.1979 62.4453 31.6585 62.3241 32.0556 62.0783V61.0613H30.4261V59.3664H34.2293V63.1313C33.7589 63.5158 33.2336 63.8263 32.6712 64.0523C32.0245 64.3079 31.3346 64.4332 30.6402 64.4213C30.0288 64.4283 29.4216 64.3194 28.8501 64.1003C28.3228 63.8964 27.84 63.5907 27.4287 63.2003C27.0246 62.8151 26.7028 62.3506 26.4831 61.8353C26.2509 61.2855 26.1344 60.693 26.1412 60.0953V60.0714C26.1356 59.4841 26.25 58.9021 26.4772 58.3614C26.6953 57.8453 27.0103 57.3767 27.4049 56.9814C27.8083 56.58 28.2876 56.2647 28.8144 56.0544C29.3802 55.8283 29.9841 55.7152 30.5926 55.7214C30.6372 55.7208 30.6818 55.7208 30.7264 55.7214L30.7294 55.7184ZM66.3024 55.7424C66.9198 55.7408 67.5338 55.836 68.1223 56.0244C68.6703 56.2074 69.1811 56.489 69.6299 56.8554L68.4821 58.4934C68.1262 58.2341 67.7358 58.0271 67.3224 57.8784C66.9522 57.7435 66.5622 57.6725 66.1686 57.6684C65.9513 57.6532 65.7348 57.7078 65.5501 57.8244C65.4871 57.8658 65.4351 57.9222 65.3988 57.9886C65.3625 58.0551 65.343 58.1295 65.3419 58.2054V58.2294C65.34 58.3179 65.3627 58.4052 65.4074 58.4814C65.4645 58.5659 65.5424 58.6341 65.6334 58.6794C65.773 58.7533 65.9194 58.8136 66.0705 58.8594C66.2548 58.9194 66.4868 58.9794 66.7722 59.0424C67.206 59.1358 67.6331 59.2581 68.0509 59.4084C68.3985 59.5303 68.727 59.7021 69.0262 59.9184C69.2849 60.1059 69.4958 60.3527 69.6418 60.6383C69.7901 60.9539 69.8624 61.3003 69.8529 61.6493V61.6733C69.8602 62.0688 69.7778 62.4608 69.612 62.8193C69.4517 63.1524 69.2189 63.4446 68.9311 63.6743C68.619 63.921 68.2626 64.1044 67.8814 64.2143C67.4366 64.3418 66.9759 64.4034 66.5135 64.3973C65.7955 64.4012 65.0818 64.2835 64.4023 64.0493C63.7513 63.8265 63.1515 63.4735 62.639 63.0113L63.9176 61.4693C64.7413 62.1383 65.6363 62.4743 66.5938 62.4743C66.8368 62.4886 67.0792 62.4368 67.2956 62.3243C67.3712 62.2829 67.434 62.2212 67.477 62.146C67.5201 62.0708 67.5416 61.9851 67.5394 61.8983V61.8743C67.5406 61.7933 67.52 61.7135 67.48 61.6433C67.4247 61.5604 67.3502 61.4925 67.2629 61.4453C67.1279 61.3687 66.9854 61.3063 66.8377 61.2593C66.6099 61.1859 66.3787 61.1238 66.1448 61.0733C65.7309 60.978 65.3211 60.8648 64.9167 60.7343C64.5671 60.6237 64.2355 60.462 63.9325 60.2543C63.6596 60.066 63.4336 59.8165 63.2723 59.5254C63.1007 59.1924 63.0167 58.8205 63.0285 58.4454V58.4214C63.0246 58.0506 63.0996 57.6833 63.2485 57.3444C63.3945 57.0166 63.612 56.7263 63.8849 56.4954C64.1832 56.2462 64.5265 56.0577 64.8959 55.9404C65.3266 55.8031 65.7764 55.7362 66.2281 55.7424C66.2529 55.7423 66.2776 55.7423 66.3024 55.7424ZM38.4756 55.8174H40.682L44.1998 64.2473H41.7465L41.1429 62.7503H37.9552L37.3665 64.2443H34.9578L38.4756 55.8174ZM45.0086 55.8774H47.4291L49.4006 59.1174L51.372 55.8774H53.7925V64.2473H51.5148V59.4414L49.4006 62.7143H49.353L47.2507 59.4654V64.2443H45.0086V55.8774ZM55.3239 55.8774H61.9699V57.8514H57.5898V59.1174H61.5566V60.9473H57.5898V62.2733H62.0294V64.2473H55.3239V55.8774ZM39.5639 58.5684L38.6273 60.9473H40.4828L39.5639 58.5684ZM36.1592 74.1382H59.9895L47.8275 78.1821L36.1592 74.1382Z" fill="white"/>
</svg>
