<?xml version="1.0" standalone="no"?>
<!DOCTYPE svg PUBLIC "-//W3C//DTD SVG 20010904//EN"
 "http://www.w3.org/TR/2001/REC-SVG-20010904/DTD/svg10.dtd">
<svg version="1.0" xmlns="http://www.w3.org/2000/svg"
 width="24px" height="24px" viewBox="0 0 512.000000 512.000000"
 preserveAspectRatio="xMidYMid meet">

<g transform="translate(0.000000,512.000000) scale(0.100000,-0.100000)"
fill="#8a98b8" stroke="none">
<path d="M307 4389 c-146 -50 -253 -165 -292 -314 -13 -52 -15 -219 -15 -1315
0 -1370 -2 -1313 57 -1422 30 -55 101 -130 155 -164 20 -13 65 -34 100 -46
l63 -23 907 -3 906 -3 131 -175 c73 -96 146 -184 164 -194 42 -26 112 -26 154
0 18 10 91 98 164 194 l131 175 906 3 907 3 63 23 c155 56 257 165 297 317 13
52 15 219 15 1315 0 1096 -2 1263 -15 1315 -40 151 -145 265 -294 315 -60 20
-73 20 -2253 20 -2169 -1 -2194 -1 -2251 -21z m4444 -302 c19 -12 42 -38 52
-57 16 -33 17 -110 15 -1282 l-3 -1247 -21 -28 c-12 -15 -36 -37 -55 -48 -33
-20 -57 -20 -984 -25 -893 -5 -953 -6 -978 -23 -15 -10 -69 -73 -118 -140 -50
-67 -95 -122 -99 -122 -5 0 -52 57 -104 127 -53 70 -106 133 -118 140 -18 10
-222 14 -973 18 -927 5 -951 5 -984 25 -19 11 -43 33 -55 48 l-21 28 -3 1247
c-2 1172 -1 1249 15 1282 10 19 33 45 52 57 l34 23 2157 0 2157 0 34 -23z"/>
<path d="M2100 3458 c-24 -13 -52 -34 -62 -48 -10 -14 -118 -285 -238 -602
-157 -412 -220 -589 -220 -618 0 -103 91 -171 190 -141 54 16 83 56 127 171
l38 100 241 0 242 0 32 -91 c40 -110 65 -149 110 -171 97 -49 210 21 210 129
0 63 -427 1193 -467 1235 -56 61 -129 73 -203 36z m140 -673 c33 -87 59 -160
57 -162 -3 -2 -59 -2 -125 -1 l-120 3 61 162 c33 89 62 161 64 159 1 -1 30
-74 63 -161z"/>
<path d="M3514 3470 c-144 -26 -267 -93 -379 -205 -91 -91 -144 -175 -182
-290 -23 -71 -26 -96 -26 -215 0 -119 3 -144 26 -215 38 -115 91 -199 182
-290 92 -92 175 -144 290 -182 68 -22 98 -26 205 -27 145 -1 214 14 332 73
l77 38 38 -39 c50 -52 86 -70 139 -70 85 0 144 61 144 149 0 53 -12 75 -71
138 l-38 40 34 70 c55 114 70 183 69 325 -1 107 -5 137 -27 205 -38 115 -90
198 -182 290 -139 140 -284 203 -475 210 -58 2 -128 0 -156 -5z m272 -317
c201 -77 318 -303 258 -502 l-15 -52 -45 41 c-48 44 -99 70 -136 70 -47 -1
-106 -37 -127 -79 -38 -73 -26 -125 45 -201 26 -28 45 -52 43 -55 -11 -11
-128 -35 -169 -35 -110 0 -239 57 -311 139 -207 233 -99 602 201 686 70 19
188 14 256 -12z"/>
<path d="M832 3450 c-18 -11 -41 -34 -52 -52 -19 -32 -20 -52 -20 -644 l0
-611 23 -34 c63 -94 193 -88 252 12 18 31 20 55 23 267 l3 232 157 0 c184 0
209 9 243 86 36 81 6 158 -75 195 -34 15 -66 19 -183 19 l-143 0 0 125 0 125
168 0 c144 0 172 3 202 19 104 54 108 200 8 261 -31 19 -51 20 -303 20 -252 0
-272 -1 -303 -20z"/>
</g>
</svg>
