<svg width="21" height="21" viewBox="0 0 21 21" fill="none" xmlns="http://www.w3.org/2000/svg">
<g id="ant-design:camera-filled">
<path id="Vector" d="M17.7188 5.33203H14.9297L14.2652 3.46992C14.2193 3.3425 14.1352 3.23236 14.0244 3.15455C13.9135 3.07673 13.7813 3.03504 13.6459 3.03516H7.3541C7.07725 3.03516 6.8291 3.20947 6.73682 3.46992L6.07031 5.33203H3.28125C2.3748 5.33203 1.64062 6.06621 1.64062 6.97266V16.3242C1.64062 17.2307 2.3748 17.9648 3.28125 17.9648H17.7188C18.6252 17.9648 19.3594 17.2307 19.3594 16.3242V6.97266C19.3594 6.06621 18.6252 5.33203 17.7188 5.33203ZM10.5 14.6836C8.68711 14.6836 7.21875 13.2152 7.21875 11.4023C7.21875 9.58945 8.68711 8.12109 10.5 8.12109C12.3129 8.12109 13.7812 9.58945 13.7812 11.4023C13.7812 13.2152 12.3129 14.6836 10.5 14.6836ZM8.53125 11.4023C8.53125 11.9245 8.73867 12.4252 9.10788 12.7945C9.4771 13.1637 9.97785 13.3711 10.5 13.3711C11.0221 13.3711 11.5229 13.1637 11.8921 12.7945C12.2613 12.4252 12.4688 11.9245 12.4688 11.4023C12.4688 10.8802 12.2613 10.3794 11.8921 10.0102C11.5229 9.64101 11.0221 9.43359 10.5 9.43359C9.97785 9.43359 9.4771 9.64101 9.10788 10.0102C8.73867 10.3794 8.53125 10.8802 8.53125 11.4023Z" fill="#F2F2F2"/>
</g>
</svg>
