<svg width="30" height="24" viewBox="0 0 30 24" fill="none" xmlns="http://www.w3.org/2000/svg">
<path d="M16.4142 23.4142C15.6332 24.1953 14.3668 24.1953 13.5858 23.4142L0.857864 10.6863C0.0768158 9.90524 0.0768158 8.63891 0.857864 7.85786C1.63891 7.07682 2.90524 7.07682 3.68629 7.85786L15 19.1716L26.3137 7.85786C27.0948 7.07682 28.3611 7.07682 29.1421 7.85786C29.9232 8.63891 29.9232 9.90524 29.1421 10.6863L16.4142 23.4142ZM15 20H13V18H15V20ZM13 22V20H17V22H13ZM15 18H16V22H15V18Z" fill="#6C5B7B"/>
</svg>
