<svg width="24" height="24" viewBox="0 0 24 24" fill="none" xmlns="http://www.w3.org/2000/svg">
<g id="solar:bag-2-bold">
<path id="Vector" fill-rule="evenodd" clip-rule="evenodd" d="M8.25048 6.015V5C8.25048 4.00544 8.64556 3.05161 9.34882 2.34835C10.0521 1.64509 11.0059 1.25 12.0005 1.25C12.995 1.25 13.9489 1.64509 14.6521 2.34835C15.3554 3.05161 15.7505 4.00544 15.7505 5V6.015C17.0375 6.054 17.8255 6.192 18.4265 6.691C19.2595 7.383 19.4795 8.553 19.9185 10.894L20.6685 14.894C21.2855 18.186 21.5935 19.832 20.6945 20.916C19.7945 22 18.1195 22 14.7705 22H9.23047C5.88048 22 4.20648 22 3.30648 20.916C2.40648 19.832 2.71648 18.186 3.33248 14.894L4.08248 10.894C4.52248 8.554 4.74148 7.383 5.57448 6.691C6.17548 6.192 6.96348 6.054 8.25048 6.015ZM9.75048 5C9.75048 4.40326 9.98753 3.83097 10.4095 3.40901C10.8314 2.98705 11.4037 2.75 12.0005 2.75C12.5972 2.75 13.1695 2.98705 13.5915 3.40901C14.0134 3.83097 14.2505 4.40326 14.2505 5V6H9.75048V5ZM15.7405 10.877C15.7243 10.7798 15.6892 10.6868 15.6371 10.6032C15.585 10.5196 15.5169 10.4471 15.4368 10.3898C15.3566 10.3325 15.266 10.2915 15.17 10.2693C15.0741 10.247 14.9747 10.2438 14.8775 10.26C14.7803 10.2762 14.6873 10.3113 14.6037 10.3634C14.5201 10.4155 14.4475 10.4836 14.3902 10.5637C14.3329 10.6439 14.292 10.7345 14.2697 10.8305C14.2475 10.9264 14.2443 11.0258 14.2605 11.123L15.2605 17.123C15.2766 17.2202 15.3118 17.3132 15.3639 17.3968C15.416 17.4804 15.4841 17.5529 15.5642 17.6102C15.6443 17.6675 15.735 17.7085 15.8309 17.7307C15.9269 17.753 16.0263 17.7562 16.1235 17.74C16.2207 17.7238 16.3137 17.6887 16.3973 17.6366C16.4809 17.5845 16.5534 17.5164 16.6107 17.4363C16.668 17.3561 16.709 17.2655 16.7312 17.1695C16.7535 17.0736 16.7566 16.9742 16.7405 16.877L15.7405 10.877ZM9.12348 10.26C9.0263 10.2438 8.92688 10.247 8.83091 10.2692C8.73494 10.2915 8.6443 10.3324 8.56415 10.3897C8.48401 10.447 8.41594 10.5195 8.36384 10.6031C8.31173 10.6868 8.27661 10.7798 8.26048 10.877L7.26048 16.877C7.24432 16.9742 7.24747 17.0736 7.26973 17.1695C7.292 17.2655 7.33295 17.3561 7.39024 17.4363C7.44754 17.5164 7.52005 17.5845 7.60365 17.6366C7.68725 17.6887 7.7803 17.7238 7.87748 17.74C7.97465 17.7562 8.07406 17.753 8.17002 17.7307C8.26599 17.7085 8.35662 17.6675 8.43676 17.6102C8.5169 17.5529 8.58496 17.4804 8.63708 17.3968C8.68919 17.3132 8.72432 17.2202 8.74048 17.123L9.74048 11.123C9.75665 11.0258 9.75352 10.9264 9.73126 10.8304C9.709 10.7345 9.66806 10.6438 9.61076 10.5637C9.55346 10.4835 9.48094 10.4155 9.39733 10.3634C9.31372 10.3113 9.22066 10.2761 9.12348 10.26Z" fill="black"/>
</g>
</svg>
