<svg width="50" height="60" viewBox="0 0 50 60" fill="none" xmlns="http://www.w3.org/2000/svg">
<g id="Iconly/Light-Outline/Bookmark">
<g id="Bookmark">
<path id="Combined-Shape" fill-rule="evenodd" clip-rule="evenodd" d="M33.6765 0C43.4391 0 49.0399 4.83235 49.0399 13.2508V55.0871C49.0399 56.8427 48.1362 58.4228 46.6165 59.3064C45.1027 60.1928 43.2779 60.2101 41.7468 59.3467L24.5932 49.6561L7.28138 59.3668C6.53307 59.787 5.71281 60 4.88967 60C4.04063 60 3.19158 59.7726 2.42025 59.3179C0.903483 58.4343 -0.000244141 56.8542 -0.000244141 55.1015V12.7241C-0.000244141 4.63664 5.60344 0 15.3746 0H33.6765ZM33.6765 4.31717H15.3746C8.03832 4.31717 4.31692 7.14347 4.31692 12.7241V55.1015C4.31692 55.372 4.47234 55.5188 4.60186 55.5936C4.73137 55.6742 4.93572 55.7318 5.17172 55.5994L23.5398 45.2957C24.196 44.9302 24.999 44.9273 25.6581 45.2986L43.8679 55.585C44.1068 55.7231 44.3112 55.6598 44.4407 55.5821C44.5702 55.5044 44.7227 55.3576 44.7227 55.0871L44.7217 12.9229C44.6999 10.4457 44.2206 4.31717 33.6765 4.31717ZM34.9395 19.3654C36.131 19.3654 37.098 20.3324 37.098 21.524C37.098 22.7155 36.131 23.6825 34.9395 23.6825H13.8774C12.6859 23.6825 11.7189 22.7155 11.7189 21.524C11.7189 20.3324 12.6859 19.3654 13.8774 19.3654H34.9395Z" fill="#777B89"/>
</g>
</g>
</svg>
