<svg width="16" height="16" viewBox="0 0 16 16" fill="none" xmlns="http://www.w3.org/2000/svg">
<g id="bx:bx-search">
<path id="Vector" d="M6.66536 12C7.84868 11.9998 8.9979 11.6036 9.93003 10.8747L12.8607 13.8053L13.8034 12.8627L10.8727 9.93201C11.602 8.99979 11.9984 7.8503 11.9987 6.66668C11.9987 3.72601 9.60603 1.33334 6.66536 1.33334C3.7247 1.33334 1.33203 3.72601 1.33203 6.66668C1.33203 9.60734 3.7247 12 6.66536 12ZM6.66536 2.66668C8.87136 2.66668 10.6654 4.46068 10.6654 6.66668C10.6654 8.87268 8.87136 10.6667 6.66536 10.6667C4.45936 10.6667 2.66536 8.87268 2.66536 6.66668C2.66536 4.46068 4.45936 2.66668 6.66536 2.66668Z" fill="#828282"/>
</g>
</svg>
