<svg width="17" height="17" viewBox="0 0 17 17" fill="none" xmlns="http://www.w3.org/2000/svg">
<path id="Vector" fill-rule="evenodd" clip-rule="evenodd" d="M0.414364 0.432057C0.679761 0.16674 1.03967 0.0176931 1.41494 0.0176931C1.79021 0.0176931 2.15012 0.16674 2.41552 0.432057L8.49115 6.50769L14.5668 0.432057C14.6973 0.296887 14.8535 0.189071 15.0262 0.114899C15.1988 0.0407277 15.3845 0.00168637 15.5725 5.34354e-05C15.7604 -0.00157949 15.9467 0.0342283 16.1207 0.105388C16.2946 0.176548 16.4526 0.281634 16.5855 0.414515C16.7184 0.547396 16.8235 0.70541 16.8946 0.879339C16.9658 1.05327 17.0016 1.23963 16.9999 1.42754C16.9983 1.61546 16.9593 1.80116 16.8851 1.97383C16.8109 2.14649 16.7031 2.30266 16.5679 2.43321L10.4923 8.50885L16.5679 14.5845C16.8257 14.8514 16.9684 15.2089 16.9652 15.58C16.9619 15.951 16.8131 16.306 16.5507 16.5684C16.2883 16.8308 15.9333 16.9796 15.5623 16.9829C15.1912 16.9861 14.8337 16.8434 14.5668 16.5856L8.49115 10.51L2.41552 16.5856C2.1486 16.8434 1.79111 16.9861 1.42003 16.9829C1.04896 16.9796 0.694001 16.8308 0.431604 16.5684C0.169206 16.306 0.0203661 15.951 0.0171416 15.58C0.0139171 15.2089 0.156566 14.8514 0.414364 14.5845L6.49 8.50885L0.414364 2.43321C0.149047 2.16781 0 1.8079 0 1.43263C0 1.05736 0.149047 0.697454 0.414364 0.432057V0.432057Z" fill="#777B89"/>
</svg>
