<svg width="26" height="26" viewBox="0 0 26 26" fill="none" xmlns="http://www.w3.org/2000/svg">
<circle cx="13.0792" cy="13.0792" r="12.2708" fill="url(#paint0_linear_2042_4481)"/>
<circle cx="13.0792" cy="13.0792" r="12.2708" fill="black" fill-opacity="0.2"/>
<circle cx="13.0792" cy="13.0792" r="11.7723" stroke="white" stroke-opacity="0.3" stroke-width="0.997057"/>
<g filter="url(#filter0_d_2042_4481)">
<mask id="mask0_2042_4481" style="mask-type:alpha" maskUnits="userSpaceOnUse" x="6" y="6" width="14" height="14">
<rect x="6.84302" y="6.84308" width="12.35" height="12.35" fill="#D9D9D9"/>
</mask>
<g mask="url(#mask0_2042_4481)">
<path d="M11.423 7.7254C10.346 8.08658 9.4097 8.77693 8.74622 9.69897C8.08274 10.621 7.72564 11.7282 7.72534 12.8641C7.72534 15.8685 10.1588 18.3019 13.1631 18.3019C15.5558 18.3019 17.5813 16.7521 18.3019 14.6042C17.7581 14.7809 17.1735 14.9033 16.5618 14.9033C13.5574 14.9033 11.124 12.4699 11.124 9.4655C11.124 8.85374 11.2327 8.26918 11.423 7.7254Z" fill="white"/>
</g>
</g>
<defs>
<filter id="filter0_d_2042_4481" x="7.54734" y="7.7254" width="10.9325" height="10.9325" filterUnits="userSpaceOnUse" color-interpolation-filters="sRGB">
<feFlood flood-opacity="0" result="BackgroundImageFix"/>
<feColorMatrix in="SourceAlpha" type="matrix" values="0 0 0 0 0 0 0 0 0 0 0 0 0 0 0 0 0 0 127 0" result="hardAlpha"/>
<feOffset dy="0.177998"/>
<feGaussianBlur stdDeviation="0.0889988"/>
<feComposite in2="hardAlpha" operator="out"/>
<feColorMatrix type="matrix" values="0 0 0 0 0 0 0 0 0 0 0 0 0 0 0 0 0 0 0.15 0"/>
<feBlend mode="normal" in2="BackgroundImageFix" result="effect1_dropShadow_2042_4481"/>
<feBlend mode="normal" in="SourceGraphic" in2="effect1_dropShadow_2042_4481" result="shape"/>
</filter>
<linearGradient id="paint0_linear_2042_4481" x1="24.8263" y1="22.5611" x2="2.93111" y2="22.4511" gradientUnits="userSpaceOnUse">
<stop stop-color="#8293C0"/>
<stop offset="1" stop-color="#192948" stop-opacity="0.85"/>
</linearGradient>
</defs>
</svg>
