<svg width="36" height="72" viewBox="0 0 36 72" fill="none" xmlns="http://www.w3.org/2000/svg">
<g clip-path="url(#clip0_106_26)">
<path d="M18 36C27.9411 36 36 27.9411 36 18C36 8.05887 27.9411 0 18 0C8.05887 0 0 8.05887 0 18C0 27.9411 8.05887 36 18 36Z" fill="#BDBDBD"/>
<path d="M10.515 23.621C10.56 23.8 11.683 28 18 28C24.318 28 25.44 23.8 25.485 23.621C25.5113 23.5154 25.5023 23.4042 25.4596 23.3042C25.4168 23.2042 25.3425 23.1209 25.248 23.067C25.1531 23.0133 25.0433 22.9918 24.9352 23.0057C24.827 23.0196 24.7263 23.0681 24.648 23.144C24.629 23.163 22.694 25 18 25C13.306 25 11.37 23.163 11.352 23.145C11.2746 23.0685 11.1744 23.0192 11.0665 23.0046C10.9587 22.99 10.849 23.0108 10.754 23.064C10.6587 23.1179 10.5837 23.2015 10.5405 23.3021C10.4973 23.4028 10.4884 23.5148 10.515 23.621Z" fill="white"/>
<path d="M12 17C13.3807 17 14.5 15.433 14.5 13.5C14.5 11.567 13.3807 10 12 10C10.6193 10 9.5 11.567 9.5 13.5C9.5 15.433 10.6193 17 12 17Z" fill="white"/>
<path d="M24 17C25.3807 17 26.5 15.433 26.5 13.5C26.5 11.567 25.3807 10 24 10C22.6193 10 21.5 11.567 21.5 13.5C21.5 15.433 22.6193 17 24 17Z" fill="white"/>
</g>
<g clip-path="url(#clip1_106_26)">
<path d="M18 72C27.9411 72 36 63.9411 36 54C36 44.0589 27.9411 36 18 36C8.05887 36 0 44.0589 0 54C0 63.9411 8.05887 72 18 72Z" fill="#27AE60"/>
<path d="M10.515 59.621C10.56 59.8 11.683 64 18 64C24.318 64 25.44 59.8 25.485 59.621C25.5113 59.5155 25.5023 59.4042 25.4596 59.3042C25.4168 59.2042 25.3425 59.1209 25.248 59.067C25.1531 59.0133 25.0433 58.9918 24.9352 59.0057C24.827 59.0196 24.7263 59.0681 24.648 59.144C24.629 59.163 22.694 61 18 61C13.306 61 11.37 59.163 11.352 59.145C11.2746 59.0685 11.1744 59.0192 11.0665 59.0046C10.9587 58.99 10.849 59.0109 10.754 59.064C10.6587 59.1179 10.5837 59.2015 10.5405 59.3022C10.4973 59.4028 10.4884 59.5148 10.515 59.621Z" fill="white"/>
<path d="M12 53C13.3807 53 14.5 51.433 14.5 49.5C14.5 47.567 13.3807 46 12 46C10.6193 46 9.5 47.567 9.5 49.5C9.5 51.433 10.6193 53 12 53Z" fill="white"/>
<path d="M24 53C25.3807 53 26.5 51.433 26.5 49.5C26.5 47.567 25.3807 46 24 46C22.6193 46 21.5 47.567 21.5 49.5C21.5 51.433 22.6193 53 24 53Z" fill="white"/>
</g>
<defs>
<clipPath id="clip0_106_26">
<rect width="36" height="36" fill="white"/>
</clipPath>
<clipPath id="clip1_106_26">
<rect width="36" height="36" fill="white" transform="translate(0 36)"/>
</clipPath>
</defs>
</svg>
