<svg width="36" height="72" viewBox="0 0 36 72" fill="none" xmlns="http://www.w3.org/2000/svg">
<g clip-path="url(#clip0_106_25)">
<path d="M36 18C36 27.941 27.941 36 18 36C8.06 36 0 27.941 0 18C0 8.06 8.06 0 18 0C27.941 0 36 8.06 36 18Z" fill="#BDBDBD"/>
<path d="M25 26H11C10.7348 26 10.4804 25.8946 10.2929 25.7071C10.1054 25.5196 10 25.2652 10 25C10 24.7348 10.1054 24.4804 10.2929 24.2929C10.4804 24.1054 10.7348 24 11 24H25C25.2652 24 25.5196 24.1054 25.7071 24.2929C25.8946 24.4804 26 24.7348 26 25C26 25.2652 25.8946 25.5196 25.7071 25.7071C25.5196 25.8946 25.2652 26 25 26ZM15 18H8C7.73478 18 7.48043 17.8946 7.29289 17.7071C7.10536 17.5196 7 17.2652 7 17C7 16.7348 7.10536 16.4804 7.29289 16.2929C7.48043 16.1054 7.73478 16 8 16H15C15.2652 16 15.5196 16.1054 15.7071 16.2929C15.8946 16.4804 16 16.7348 16 17C16 17.2652 15.8946 17.5196 15.7071 17.7071C15.5196 17.8946 15.2652 18 15 18ZM28 18H21C20.7348 18 20.4804 17.8946 20.2929 17.7071C20.1054 17.5196 20 17.2652 20 17C20 16.7348 20.1054 16.4804 20.2929 16.2929C20.4804 16.1054 20.7348 16 21 16H28C28.2652 16 28.5196 16.1054 28.7071 16.2929C28.8946 16.4804 29 16.7348 29 17C29 17.2652 28.8946 17.5196 28.7071 17.7071C28.5196 17.8946 28.2652 18 28 18Z" fill="white"/>
</g>
<g clip-path="url(#clip1_106_25)">
<path d="M36 54C36 63.941 27.941 72 18 72C8.06 72 0 63.941 0 54C0 44.06 8.06 36 18 36C27.941 36 36 44.06 36 54Z" fill="#F2C94C"/>
<path d="M25 62H11C10.7348 62 10.4804 61.8946 10.2929 61.7071C10.1054 61.5196 10 61.2652 10 61C10 60.7348 10.1054 60.4804 10.2929 60.2929C10.4804 60.1054 10.7348 60 11 60H25C25.2652 60 25.5196 60.1054 25.7071 60.2929C25.8946 60.4804 26 60.7348 26 61C26 61.2652 25.8946 61.5196 25.7071 61.7071C25.5196 61.8946 25.2652 62 25 62ZM15 54H8C7.73478 54 7.48043 53.8946 7.29289 53.7071C7.10536 53.5196 7 53.2652 7 53C7 52.7348 7.10536 52.4804 7.29289 52.2929C7.48043 52.1054 7.73478 52 8 52H15C15.2652 52 15.5196 52.1054 15.7071 52.2929C15.8946 52.4804 16 52.7348 16 53C16 53.2652 15.8946 53.5196 15.7071 53.7071C15.5196 53.8946 15.2652 54 15 54ZM28 54H21C20.7348 54 20.4804 53.8946 20.2929 53.7071C20.1054 53.5196 20 53.2652 20 53C20 52.7348 20.1054 52.4804 20.2929 52.2929C20.4804 52.1054 20.7348 52 21 52H28C28.2652 52 28.5196 52.1054 28.7071 52.2929C28.8946 52.4804 29 52.7348 29 53C29 53.2652 28.8946 53.5196 28.7071 53.7071C28.5196 53.8946 28.2652 54 28 54Z" fill="white"/>
</g>
<defs>
<clipPath id="clip0_106_25">
<rect width="36" height="36" fill="white"/>
</clipPath>
<clipPath id="clip1_106_25">
<rect width="36" height="36" fill="white" transform="translate(0 36)"/>
</clipPath>
</defs>
</svg>
