<svg width="36" height="72" viewBox="0 0 36 72" fill="none" xmlns="http://www.w3.org/2000/svg">
<g clip-path="url(#clip0_106_23)">
<path d="M36 54C36 63.941 27.941 72 18 72C8.06 72 0 63.941 0 54C0 44.06 8.06 36 18 36C27.941 36 36 44.06 36 54Z" fill="#EB5757"/>
<path d="M25.485 65.879C25.44 65.7 24.317 61.5 18 61.5C11.682 61.5 10.56 65.7 10.515 65.879C10.4887 65.9846 10.4977 66.0958 10.5404 66.1958C10.5832 66.2958 10.6575 66.3791 10.752 66.433C10.847 66.4863 10.9567 66.5077 11.0647 66.4938C11.1728 66.4799 11.2735 66.4316 11.352 66.356C11.371 66.337 13.306 64.5 18 64.5C22.694 64.5 24.63 66.337 24.648 66.355C24.7254 66.4315 24.8256 66.4808 24.9335 66.4954C25.0413 66.51 25.151 66.4892 25.246 66.436C25.3413 66.3821 25.4163 66.2985 25.4595 66.1978C25.5027 66.0972 25.5116 65.9852 25.485 65.879ZM15.707 53.293C12.452 50.038 7.221 50 7 50C6.74251 50.0114 6.49934 50.1217 6.32112 50.3078C6.1429 50.494 6.04336 50.7418 6.04323 50.9995C6.0431 51.2573 6.14239 51.5051 6.32043 51.6915C6.49846 51.8778 6.74152 51.9884 6.999 52C7.028 52 8.924 52.022 10.982 52.737C10.389 53.377 10 54.371 10 55.5C10 57.434 11.119 59 12.5 59C13.881 59 15 57.434 15 55.5C15 55.326 14.981 55.16 14.963 54.993C14.976 54.993 14.988 55 15 55C15.198 55.0004 15.3916 54.942 15.5563 54.8322C15.721 54.7224 15.8494 54.5662 15.9252 54.3833C16.0009 54.2004 16.0206 53.9991 15.9818 53.805C15.9429 53.6109 15.8473 53.4327 15.707 53.293ZM29 50C28.779 50 23.549 50.038 20.293 53.293C20.1527 53.4327 20.0571 53.6109 20.0182 53.805C19.9794 53.9991 19.9991 54.2004 20.0748 54.3833C20.1506 54.5662 20.279 54.7224 20.4437 54.8322C20.6084 54.942 20.802 55.0004 21 55C21.013 55 21.024 54.993 21.036 54.993C21.02 55.16 21 55.326 21 55.5C21 57.434 22.119 59 23.5 59C24.881 59 26 57.434 26 55.5C26 54.371 25.611 53.377 25.018 52.737C26.303 52.2985 27.6452 52.0502 29.002 52C29.1333 51.9999 29.2633 51.9739 29.3846 51.9235C29.5059 51.8731 29.616 51.7994 29.7088 51.7064C29.8016 51.6134 29.8751 51.5031 29.9253 51.3818C29.9754 51.2604 30.0011 51.1303 30.001 50.999C30.0009 50.8677 29.9749 50.7377 29.9245 50.6164C29.8741 50.4951 29.8003 50.385 29.7074 50.2922C29.6144 50.1994 29.5041 50.1259 29.3828 50.0757C29.2614 50.0256 29.1313 49.9999 29 50Z" fill="white"/>
</g>
<g clip-path="url(#clip1_106_23)">
<path d="M36 18C36 27.941 27.941 36 18 36C8.06 36 0 27.941 0 18C0 8.06 8.06 0 18 0C27.941 0 36 8.06 36 18Z" fill="#BDBDBD"/>
<path d="M25.485 29.879C25.44 29.7 24.317 25.5 18 25.5C11.682 25.5 10.56 29.7 10.515 29.879C10.4887 29.9846 10.4977 30.0958 10.5404 30.1958C10.5832 30.2958 10.6575 30.3791 10.752 30.433C10.847 30.4863 10.9567 30.5077 11.0647 30.4938C11.1728 30.4799 11.2735 30.4316 11.352 30.356C11.371 30.337 13.306 28.5 18 28.5C22.694 28.5 24.63 30.337 24.648 30.355C24.7254 30.4315 24.8256 30.4808 24.9335 30.4954C25.0413 30.51 25.151 30.4892 25.246 30.436C25.3413 30.3821 25.4163 30.2985 25.4595 30.1978C25.5027 30.0972 25.5116 29.9852 25.485 29.879ZM15.707 17.293C12.452 14.038 7.221 14 7 14C6.74251 14.0114 6.49934 14.1217 6.32112 14.3078C6.1429 14.494 6.04336 14.7418 6.04323 14.9995C6.0431 15.2573 6.14239 15.5051 6.32043 15.6915C6.49846 15.8778 6.74152 15.9884 6.999 16C7.028 16 8.924 16.022 10.982 16.737C10.389 17.377 10 18.371 10 19.5C10 21.434 11.119 23 12.5 23C13.881 23 15 21.434 15 19.5C15 19.326 14.981 19.16 14.963 18.993C14.976 18.993 14.988 19 15 19C15.198 19.0004 15.3916 18.942 15.5563 18.8322C15.721 18.7224 15.8494 18.5662 15.9252 18.3833C16.0009 18.2004 16.0206 17.9991 15.9818 17.805C15.9429 17.6109 15.8473 17.4327 15.707 17.293ZM29 14C28.779 14 23.549 14.038 20.293 17.293C20.1527 17.4327 20.0571 17.6109 20.0182 17.805C19.9794 17.9991 19.9991 18.2004 20.0748 18.3833C20.1506 18.5662 20.279 18.7224 20.4437 18.8322C20.6084 18.942 20.802 19.0004 21 19C21.013 19 21.024 18.993 21.036 18.993C21.02 19.16 21 19.326 21 19.5C21 21.434 22.119 23 23.5 23C24.881 23 26 21.434 26 19.5C26 18.371 25.611 17.377 25.018 16.737C26.303 16.2985 27.6452 16.0502 29.002 16C29.1333 15.9999 29.2633 15.9739 29.3846 15.9235C29.5059 15.8731 29.616 15.7994 29.7088 15.7064C29.8016 15.6134 29.8751 15.5031 29.9253 15.3818C29.9754 15.2604 30.0011 15.1303 30.001 14.999C30.0009 14.8677 29.9749 14.7377 29.9245 14.6164C29.8741 14.4951 29.8003 14.385 29.7074 14.2922C29.6144 14.1994 29.5041 14.1259 29.3828 14.0757C29.2614 14.0256 29.1313 13.9999 29 14Z" fill="white"/>
</g>
<defs>
<clipPath id="clip0_106_23">
<rect width="36" height="36" fill="white" transform="translate(0 36)"/>
</clipPath>
<clipPath id="clip1_106_23">
<rect width="36" height="36" fill="white"/>
</clipPath>
</defs>
</svg>
