<svg width="159" height="48" viewBox="0 0 159 48" fill="none" xmlns="http://www.w3.org/2000/svg">
<rect width="159" height="48" rx="3" fill="#1877F2"/>
<path d="M57.28 15H40.72C40.3217 15 40 15.3217 40 15.72V32.28C40 32.6783 40.3217 33 40.72 33H57.28C57.6783 33 58 32.6783 58 32.28V15.72C58 15.3217 57.6783 15 57.28 15ZM55.201 20.2538H53.7633C52.636 20.2538 52.4178 20.7892 52.4178 21.5767V23.3115H55.1088L54.7578 26.0272H52.4178V33H49.612V26.0295H47.2653V23.3115H49.612V21.309C49.612 18.9847 51.0318 17.718 53.1063 17.718C54.1008 17.718 54.9535 17.7923 55.2033 17.826V20.2538H55.201Z" fill="white"/>
<path d="M72.412 28V24.796H75.58V23.464H72.412V21.34H75.844V20.008H70.9V28H72.412ZM81.3829 24.148C81.3829 22.684 80.8429 22.036 79.0069 22.036C78.3589 22.036 77.5549 22.144 77.0029 22.312L77.1829 23.428C77.6989 23.32 78.2749 23.248 78.8029 23.248C79.7389 23.248 79.9189 23.476 79.9189 24.124V24.736H78.5149C77.3269 24.736 76.8109 25.192 76.8109 26.38C76.8109 27.388 77.2669 28.12 78.3349 28.12C78.9229 28.12 79.5469 27.952 80.0749 27.604L80.1829 28H81.3829V24.148ZM79.9189 26.656C79.6429 26.812 79.2469 26.956 78.8149 26.956C78.3589 26.956 78.2269 26.776 78.2269 26.368C78.2269 25.924 78.3589 25.792 78.8389 25.792H79.9189V26.656ZM85.2015 28.12C85.6815 28.12 86.2455 28.036 86.6295 27.904L86.4495 26.704C86.0295 26.812 85.6095 26.86 85.2375 26.86C84.3975 26.86 84.1455 26.608 84.1455 25.888V24.268C84.1455 23.548 84.3975 23.296 85.2375 23.296C85.5255 23.296 86.0535 23.344 86.4495 23.452L86.6295 22.252C86.1975 22.108 85.6095 22.036 85.2015 22.036C83.3655 22.036 82.6815 22.708 82.6815 24.28V25.876C82.6815 27.448 83.3655 28.12 85.2015 28.12ZM89.0791 25.936V25.636H92.3311V24.388C92.3311 23.128 91.9111 22.036 90.0391 22.036C88.1671 22.036 87.6151 23.08 87.6151 24.316V25.864C87.6151 27.268 88.2511 28.12 90.0871 28.12C90.7831 28.12 91.5751 28 92.2351 27.748L92.0071 26.644C91.3711 26.836 90.7831 26.92 90.2191 26.92C89.3311 26.92 89.0791 26.644 89.0791 25.936ZM89.0791 24.172C89.0791 23.62 89.3311 23.236 90.0511 23.236C90.7711 23.236 90.9391 23.62 90.9391 24.172V24.46H89.0791V24.172ZM98.6124 24.04C98.6124 22.804 98.1084 22.036 96.8484 22.036C96.2124 22.036 95.5524 22.204 95.1204 22.384V19.564L93.6564 19.768V27.916C94.3884 28.06 95.3364 28.12 95.9244 28.12C98.1804 28.12 98.6124 27.172 98.6124 25.756V24.04ZM95.1204 23.62C95.4804 23.452 95.9964 23.284 96.4044 23.284C96.9444 23.284 97.1484 23.536 97.1484 24.004V25.804C97.1484 26.488 96.9564 26.872 95.9964 26.872C95.6844 26.872 95.3844 26.86 95.1204 26.824V23.62ZM104.82 25.816V24.34C104.82 23.14 104.28 22.036 102.276 22.036C100.272 22.036 99.7323 23.14 99.7323 24.34V25.816C99.7323 27.016 100.272 28.12 102.276 28.12C104.28 28.12 104.82 27.016 104.82 25.816ZM103.356 24.292V25.864C103.356 26.524 103.056 26.872 102.276 26.872C101.496 26.872 101.196 26.524 101.196 25.864V24.292C101.196 23.632 101.496 23.284 102.276 23.284C103.056 23.284 103.356 23.632 103.356 24.292ZM111.055 25.816V24.34C111.055 23.14 110.515 22.036 108.511 22.036C106.507 22.036 105.967 23.14 105.967 24.34V25.816C105.967 27.016 106.507 28.12 108.511 28.12C110.515 28.12 111.055 27.016 111.055 25.816ZM109.591 24.292V25.864C109.591 26.524 109.291 26.872 108.511 26.872C107.731 26.872 107.431 26.524 107.431 25.864V24.292C107.431 23.632 107.731 23.284 108.511 23.284C109.291 23.284 109.591 23.632 109.591 24.292ZM113.929 28V19.564L112.465 19.768V28H113.929ZM115.801 22.156L114.133 25.048L115.897 28H117.505L115.717 25.048L117.433 22.156H115.801Z" fill="white"/>
</svg>
