<svg width="158" height="48" viewBox="0 0 158 48" fill="none" xmlns="http://www.w3.org/2000/svg">
<rect width="158" height="48" rx="3" fill="white"/>
<path d="M56.8249 22.2373H56.1V22.2H48V25.8H53.0864C52.3443 27.8956 50.3503 29.4 48 29.4C45.0178 29.4 42.6 26.9821 42.6 24C42.6 21.0178 45.0178 18.6 48 18.6C49.3765 18.6 50.6289 19.1193 51.5824 19.9675L54.1281 17.4219C52.5207 15.9238 50.3706 15 48 15C43.0297 15 39 19.0297 39 24C39 28.9702 43.0297 33 48 33C52.9702 33 57 28.9702 57 24C57 23.3965 56.9379 22.8075 56.8249 22.2373Z" fill="#FFC107"/>
<path d="M40.0377 19.8109L42.9947 21.9795C43.7948 19.9986 45.7324 18.6 48 18.6C49.3765 18.6 50.6289 19.1193 51.5824 19.9675L54.1281 17.4219C52.5207 15.9238 50.3706 15 48 15C44.5431 15 41.5452 16.9516 40.0377 19.8109Z" fill="#FF3D00"/>
<path d="M48 33C50.3247 33 52.437 32.1104 54.0341 30.6636L51.2486 28.3065C50.3146 29.0168 49.1734 29.4009 48 29.4C45.6591 29.4 43.6715 27.9074 42.9227 25.8243L39.9878 28.0856C41.4773 31.0002 44.5021 33 48 33Z" fill="#4CAF50"/>
<path d="M56.8249 22.2373H56.1V22.2H48V25.8H53.0864C52.7314 26.7974 52.092 27.6689 51.2472 28.3069L51.2485 28.306L54.034 30.6631C53.8369 30.8422 57 28.5 57 24C57 23.3965 56.9379 22.8075 56.8249 22.2373Z" fill="#1976D2"/>
<path d="M78.132 25.052C78.132 26.252 77.776 27.208 77.064 27.92C76.264 28.768 75.212 29.192 73.908 29.192C72.66 29.192 71.604 28.76 70.74 27.896C69.876 27.032 69.444 25.968 69.444 24.704C69.444 23.44 69.876 22.376 70.74 21.512C71.604 20.648 72.66 20.216 73.908 20.216C74.54 20.216 75.136 20.328 75.696 20.552C76.256 20.776 76.716 21.092 77.076 21.5L76.284 22.292C76.02 21.972 75.676 21.724 75.252 21.548C74.836 21.364 74.388 21.272 73.908 21.272C72.972 21.272 72.18 21.596 71.532 22.244C70.892 22.9 70.572 23.72 70.572 24.704C70.572 25.688 70.892 26.508 71.532 27.164C72.18 27.812 72.972 28.136 73.908 28.136C74.764 28.136 75.476 27.896 76.044 27.416C76.612 26.936 76.94 26.276 77.028 25.436H73.908V24.404H78.072C78.112 24.628 78.132 24.844 78.132 25.052ZM78.8868 26.06C78.8868 25.156 79.1708 24.408 79.7388 23.816C80.3148 23.224 81.0388 22.928 81.9108 22.928C82.7828 22.928 83.5028 23.224 84.0708 23.816C84.6468 24.408 84.9348 25.156 84.9348 26.06C84.9348 26.972 84.6468 27.72 84.0708 28.304C83.5028 28.896 82.7828 29.192 81.9108 29.192C81.0388 29.192 80.3148 28.896 79.7388 28.304C79.1708 27.712 78.8868 26.964 78.8868 26.06ZM79.9908 26.06C79.9908 26.692 80.1748 27.204 80.5428 27.596C80.9108 27.988 81.3668 28.184 81.9108 28.184C82.4548 28.184 82.9108 27.988 83.2788 27.596C83.6468 27.204 83.8308 26.692 83.8308 26.06C83.8308 25.436 83.6468 24.928 83.2788 24.536C82.9028 24.136 82.4468 23.936 81.9108 23.936C81.3748 23.936 80.9188 24.136 80.5428 24.536C80.1748 24.928 79.9908 25.436 79.9908 26.06ZM85.6016 26.06C85.6016 25.156 85.8856 24.408 86.4536 23.816C87.0296 23.224 87.7536 22.928 88.6256 22.928C89.4976 22.928 90.2176 23.224 90.7856 23.816C91.3616 24.408 91.6496 25.156 91.6496 26.06C91.6496 26.972 91.3616 27.72 90.7856 28.304C90.2176 28.896 89.4976 29.192 88.6256 29.192C87.7536 29.192 87.0296 28.896 86.4536 28.304C85.8856 27.712 85.6016 26.964 85.6016 26.06ZM86.7056 26.06C86.7056 26.692 86.8896 27.204 87.2576 27.596C87.6256 27.988 88.0816 28.184 88.6256 28.184C89.1696 28.184 89.6256 27.988 89.9936 27.596C90.3616 27.204 90.5456 26.692 90.5456 26.06C90.5456 25.436 90.3616 24.928 89.9936 24.536C89.6176 24.136 89.1616 23.936 88.6256 23.936C88.0896 23.936 87.6336 24.136 87.2576 24.536C86.8896 24.928 86.7056 25.436 86.7056 26.06ZM95.2925 28.184C95.8365 28.184 96.2805 27.988 96.6245 27.596C96.9845 27.204 97.1645 26.692 97.1645 26.06C97.1645 25.444 96.9845 24.936 96.6245 24.536C96.2725 24.136 95.8285 23.936 95.2925 23.936C94.7645 23.936 94.3205 24.136 93.9605 24.536C93.6005 24.936 93.4205 25.444 93.4205 26.06C93.4205 26.684 93.6005 27.192 93.9605 27.584C94.3205 27.984 94.7645 28.184 95.2925 28.184ZM95.2565 31.784C94.9285 31.784 94.6205 31.74 94.3325 31.652C94.0445 31.572 93.7805 31.456 93.5405 31.304C93.3085 31.152 93.1085 30.972 92.9405 30.764C92.7725 30.556 92.6445 30.324 92.5565 30.068L93.6005 29.636C93.7205 29.98 93.9285 30.256 94.2245 30.464C94.5205 30.672 94.8645 30.776 95.2565 30.776C95.8565 30.776 96.3245 30.596 96.6605 30.236C96.9965 29.876 97.1645 29.38 97.1645 28.748V28.184H97.1165C96.9085 28.496 96.6245 28.744 96.2645 28.928C95.9125 29.104 95.5285 29.192 95.1125 29.192C94.3445 29.192 93.6845 28.892 93.1325 28.292C92.5885 27.676 92.3165 26.932 92.3165 26.06C92.3165 25.188 92.5885 24.448 93.1325 23.84C93.6845 23.232 94.3445 22.928 95.1125 22.928C95.5285 22.928 95.9125 23.02 96.2645 23.204C96.6245 23.38 96.9085 23.624 97.1165 23.936H97.1645V23.12H98.2205V28.748C98.2205 29.692 97.9525 30.432 97.4165 30.968C96.8725 31.512 96.1525 31.784 95.2565 31.784ZM100.671 20.408V29H99.5665V20.408H100.671ZM104.597 29.192C103.733 29.192 103.021 28.896 102.461 28.304C101.901 27.712 101.621 26.964 101.621 26.06C101.621 25.164 101.893 24.42 102.437 23.828C102.981 23.228 103.677 22.928 104.525 22.928C105.397 22.928 106.089 23.212 106.601 23.78C107.121 24.34 107.381 25.128 107.381 26.144L107.369 26.264H102.749C102.765 26.84 102.957 27.304 103.325 27.656C103.693 28.008 104.133 28.184 104.645 28.184C105.349 28.184 105.901 27.832 106.301 27.128L107.285 27.608C107.021 28.104 106.653 28.492 106.181 28.772C105.717 29.052 105.189 29.192 104.597 29.192ZM102.833 25.352H106.205C106.173 24.944 106.005 24.608 105.701 24.344C105.405 24.072 105.005 23.936 104.501 23.936C104.085 23.936 103.725 24.064 103.421 24.32C103.125 24.576 102.929 24.92 102.833 25.352Z" fill="#434343"/>
</svg>
