<svg width="27" height="27" viewBox="0 0 27 27" fill="none" xmlns="http://www.w3.org/2000/svg">
<circle cx="13.5584" cy="13.5584" r="12.5791" fill="url(#paint0_linear_2042_4482)"/>
<circle cx="13.5584" cy="13.5584" r="12.0921" stroke="white" stroke-opacity="0.3" stroke-width="0.973864"/>
<g filter="url(#filter0_d_2042_4482)">
<mask id="mask0_2042_4482" style="mask-type:alpha" maskUnits="userSpaceOnUse" x="6" y="6" width="15" height="15">
<rect x="6.82239" y="6.66022" width="13.4718" height="13.4718" fill="white"/>
</mask>
<g mask="url(#mask0_2042_4482)">
<path d="M13.5727 8.84936C13.3668 8.84936 13.1915 8.77676 13.0467 8.63157C12.9015 8.48674 12.8289 8.31142 12.8289 8.1056V7.68461C12.8289 7.47879 12.9015 7.30329 13.0467 7.15809C13.1915 7.01327 13.3668 6.94086 13.5727 6.94086C13.7785 6.94086 13.954 7.01327 14.0992 7.15809C14.244 7.30329 14.3164 7.47879 14.3164 7.68461V8.1056C14.3164 8.31142 14.244 8.48674 14.0992 8.63157C13.954 8.77676 13.7785 8.84936 13.5727 8.84936ZM13.5727 19.8513C13.3668 19.8513 13.1915 19.7789 13.0467 19.6341C12.9015 19.4889 12.8289 19.3134 12.8289 19.1076V18.6866C12.8289 18.4807 12.9015 18.3054 13.0467 18.1606C13.1915 18.0154 13.3668 17.9428 13.5727 17.9428C13.7785 17.9428 13.954 18.0154 14.0992 18.1606C14.244 18.3054 14.3164 18.4807 14.3164 18.6866V19.1076C14.3164 19.3134 14.244 19.4889 14.0992 19.6341C13.954 19.7789 13.7785 19.8513 13.5727 19.8513ZM18.8491 14.1258C18.6433 14.1258 18.468 14.0532 18.3231 13.908C18.1779 13.7632 18.1053 13.5879 18.1053 13.3821C18.1053 13.1762 18.1779 13.0007 18.3231 12.8555C18.468 12.7107 18.6433 12.6383 18.8491 12.6383H19.2701C19.4759 12.6383 19.6514 12.7107 19.7966 12.8555C19.9414 13.0007 20.0139 13.1762 20.0139 13.3821C20.0139 13.5879 19.9414 13.7632 19.7966 13.908C19.6514 14.0532 19.4759 14.1258 19.2701 14.1258H18.8491ZM7.84715 14.1258C7.64133 14.1258 7.46601 14.0532 7.32119 13.908C7.17599 13.7632 7.10339 13.5879 7.10339 13.3821C7.10339 13.1762 7.17599 13.0007 7.32119 12.8555C7.46601 12.7107 7.64133 12.6383 7.84715 12.6383H8.26814C8.47396 12.6383 8.64947 12.7107 8.79466 12.8555C8.93949 13.0007 9.0119 13.1762 9.0119 13.3821C9.0119 13.5879 8.93949 13.7632 8.79466 13.908C8.64947 14.0532 8.47396 14.1258 8.26814 14.1258H7.84715ZM16.9827 9.94394C16.833 9.79426 16.7582 9.6165 16.7582 9.41068C16.7582 9.20486 16.833 9.02711 16.9827 8.87743L17.0809 8.77919C17.2213 8.63886 17.3943 8.5687 17.6002 8.5687C17.806 8.5687 17.9837 8.64354 18.1334 8.79323C18.2831 8.94291 18.3579 9.12067 18.3579 9.32649C18.3579 9.5323 18.2831 9.71006 18.1334 9.85974L18.0352 9.95798C17.8949 10.0983 17.7218 10.1685 17.516 10.1685C17.3101 10.1685 17.1324 10.0936 16.9827 9.94394ZM8.98383 17.9989C8.83414 17.8493 8.7593 17.6715 8.7593 17.4657C8.7593 17.2599 8.83414 17.0821 8.98383 16.9324L9.08206 16.8342C9.22239 16.6939 9.39547 16.6237 9.60129 16.6237C9.80711 16.6237 9.98486 16.6985 10.1345 16.8482C10.2842 16.9979 10.3591 17.1757 10.3591 17.3815C10.3591 17.5873 10.2842 17.7651 10.1345 17.9147L10.0363 18.013C9.89598 18.1533 9.72291 18.2235 9.51709 18.2235C9.31127 18.2235 9.13352 18.1486 8.98383 17.9989ZM17.0669 17.9989L16.9687 17.9007C16.8283 17.7604 16.7582 17.5873 16.7582 17.3815C16.7582 17.1757 16.833 16.9979 16.9827 16.8482C17.1324 16.6985 17.3101 16.6237 17.516 16.6237C17.7218 16.6237 17.8995 16.6985 18.0492 16.8482L18.1474 16.9465C18.2878 17.0868 18.3579 17.2599 18.3579 17.4657C18.3579 17.6715 18.2831 17.8493 18.1334 17.9989C17.9837 18.1486 17.806 18.2235 17.6002 18.2235C17.3943 18.2235 17.2166 18.1486 17.0669 17.9989ZM9.03996 9.94394L8.9698 9.87378C8.82947 9.73345 8.7593 9.56037 8.7593 9.35455C8.7593 9.14873 8.83414 8.97098 8.98383 8.82129C9.13352 8.67161 9.31127 8.59676 9.51709 8.59676C9.72291 8.59676 9.90066 8.67161 10.0503 8.82129L10.1205 8.89146C10.2608 9.03179 10.331 9.20486 10.331 9.41068C10.331 9.6165 10.2562 9.79426 10.1065 9.94394C9.95679 10.0936 9.77904 10.1685 9.57322 10.1685C9.3674 10.1685 9.18965 10.0936 9.03996 9.94394ZM13.5586 17.185C12.5108 17.185 11.6174 16.8155 10.8783 16.0764C10.1392 15.3373 9.76968 14.4439 9.76968 13.3961C9.76968 12.3483 10.1392 11.4548 10.8783 10.7158C11.6174 9.97669 12.5108 9.60715 13.5586 9.60715C14.6064 9.60715 15.4999 9.97669 16.2389 10.7158C16.978 11.4548 17.3476 12.3483 17.3476 13.3961C17.3476 14.4439 16.978 15.3373 16.2389 16.0764C15.4999 16.8155 14.6064 17.185 13.5586 17.185Z" fill="white"/>
</g>
</g>
<defs>
<filter id="filter0_d_2042_4482" x="6.92954" y="6.94086" width="13.2581" height="13.2582" filterUnits="userSpaceOnUse" color-interpolation-filters="sRGB">
<feFlood flood-opacity="0" result="BackgroundImageFix"/>
<feColorMatrix in="SourceAlpha" type="matrix" values="0 0 0 0 0 0 0 0 0 0 0 0 0 0 0 0 0 0 127 0" result="hardAlpha"/>
<feOffset dy="0.173857"/>
<feGaussianBlur stdDeviation="0.0869286"/>
<feComposite in2="hardAlpha" operator="out"/>
<feColorMatrix type="matrix" values="0 0 0 0 0 0 0 0 0 0 0 0 0 0 0 0 0 0 0.15 0"/>
<feBlend mode="normal" in2="BackgroundImageFix" result="effect1_dropShadow_2042_4482"/>
<feBlend mode="normal" in="SourceGraphic" in2="effect1_dropShadow_2042_4482" result="shape"/>
</filter>
<linearGradient id="paint0_linear_2042_4482" x1="17.1783" y1="26.1375" x2="9.24372" y2="3.76077" gradientUnits="userSpaceOnUse">
<stop stop-color="#F3B14E"/>
<stop offset="1" stop-color="#FFCE51"/>
</linearGradient>
</defs>
</svg>
