<svg width="52" height="60" viewBox="0 0 52 60" fill="none" xmlns="http://www.w3.org/2000/svg">
<g id="Iconly/Light-Outline/Paper-Upload">
<g id="Paper-Upload">
<path id="Combined-Shape" fill-rule="evenodd" clip-rule="evenodd" d="M33.1469 0C33.2769 0 33.4043 0.0109662 33.5283 0.0320234L33.9364 0.0344317C34.5525 0.0344317 35.1415 0.285119 35.5704 0.729107L50.8714 16.6674C51.2731 17.0872 51.4999 17.652 51.4999 18.2349V45.9917C51.5479 53.5697 45.6402 59.7282 38.0501 60H13.4646C6.09433 59.8416 0.183345 53.8858 0.00110444 46.5905L0 13.5625C0.178199 6.06904 6.36383 0.0344317 13.7999 0.0344317L32.7654 0.0320234C32.8895 0.0109662 33.0169 0 33.1469 0ZM30.8798 4.56371L13.8089 4.56492C8.80425 4.56492 4.64828 8.6182 4.53049 13.6168V45.9917C4.42176 51.1293 8.469 55.3578 13.5582 55.4695H37.9716C43.0125 55.2883 47.0023 51.1293 46.9693 46.0068L46.9691 21.0909L40.9031 21.094C35.3729 21.0789 30.8816 16.5725 30.8816 11.0514L30.8798 4.56371ZM24.5867 21.6222C25.2119 21.6222 25.7782 21.8759 26.1882 22.2859L26.1914 22.2879L33.2771 29.4038C34.159 30.2918 34.156 31.7234 33.271 32.6053C32.383 33.4873 30.9484 33.4873 30.0664 32.5993L26.8507 29.3697L26.8519 42.1333C26.8519 43.3837 25.8371 44.3985 24.5867 44.3985C23.3363 44.3985 22.3214 43.3837 22.3214 42.1333L22.3202 29.3697L19.1087 32.5993C18.6677 33.0463 18.0848 33.2668 17.5049 33.2668C16.928 33.2668 16.3481 33.0463 15.9072 32.6053C15.0222 31.7234 15.0162 30.2918 15.9011 29.4038L22.9808 22.2879L23.0818 22.1948C23.1255 22.1559 23.1707 22.1187 23.2173 22.0832L22.9808 22.2879C23.065 22.2034 23.1557 22.1272 23.2515 22.0594C23.6245 21.7844 24.0868 21.6222 24.5867 21.6222ZM35.4103 7.10381L35.4121 11.0514C35.4121 14.0838 37.8767 16.5544 40.9091 16.5635L44.4864 16.5605L35.4103 7.10381Z" fill="#777B89"/>
</g>
</g>
</svg>
