<svg width="24" height="24" viewBox="0 0 24 24" fill="none" xmlns="http://www.w3.org/2000/svg">
<path id="Subtract" opacity="0.3" fill-rule="evenodd" clip-rule="evenodd" d="M8 0C3.58172 0 0 3.58172 0 8V16C0 20.4183 3.58172 24 8 24H16C20.4183 24 24 20.4183 24 16V8C24 3.58172 20.4183 0 16 0H8ZM11.3902 5.27787C11.3902 4.94037 11.6638 4.66676 12.0013 4.66676C12.3388 4.66676 12.6124 4.94037 12.6124 5.27787V11.389H18.7235C19.061 11.389 19.3346 11.6626 19.3346 12.0001C19.3346 12.3376 19.061 12.6112 18.7235 12.6112H12.6124V18.7223C12.6124 19.0598 12.3388 19.3334 12.0013 19.3334C11.6638 19.3334 11.3902 19.0598 11.3902 18.7223V12.6112H5.27908C4.94157 12.6112 4.66797 12.3376 4.66797 12.0001C4.66797 11.6626 4.94157 11.389 5.27908 11.389H11.3902V5.27787Z" fill="#777B89"/>
</svg>
