<svg width="18" height="18" viewBox="0 0 18 18" fill="none" xmlns="http://www.w3.org/2000/svg">
<path d="M14.538 4.0134C13.5247 3.541 12.4275 3.19814 11.2846 3.00004C11.2746 2.99971 11.2646 3.0016 11.2554 3.00554C11.2462 3.00949 11.2379 3.01542 11.2313 3.02289C11.0941 3.27433 10.9341 3.60196 10.8274 3.85339C9.61522 3.67053 8.38242 3.67053 7.1702 3.85339C7.06353 3.59434 6.90353 3.27433 6.75876 3.02289C6.75114 3.00765 6.72828 3.00004 6.70542 3.00004C5.56254 3.19814 4.47298 3.541 3.452 4.0134C3.44438 4.0134 3.43676 4.02102 3.42914 4.02863C1.35671 7.12967 0.785262 10.1469 1.06717 13.1336C1.06717 13.1489 1.07479 13.1641 1.09003 13.1717C2.4615 14.1775 3.77963 14.787 5.08252 15.1908C5.10538 15.1985 5.12824 15.1908 5.13586 15.1756C5.44063 14.7565 5.71492 14.3146 5.95112 13.8499C5.96636 13.8194 5.95112 13.7889 5.92064 13.7813C5.48634 13.6137 5.0749 13.4156 4.67108 13.187C4.64061 13.1717 4.64061 13.126 4.66346 13.1032C4.74728 13.0422 4.83109 12.9736 4.9149 12.9127C4.93014 12.8974 4.953 12.8974 4.96823 12.9051C7.58926 14.1013 10.416 14.1013 13.0065 12.9051C13.0218 12.8974 13.0446 12.8974 13.0599 12.9127C13.1437 12.9813 13.2275 13.0422 13.3113 13.1108C13.3418 13.1336 13.3418 13.1794 13.3037 13.1946C12.9075 13.4308 12.4884 13.6213 12.0541 13.7889C12.0237 13.7965 12.016 13.8346 12.0237 13.8575C12.2675 14.3223 12.5418 14.7642 12.8389 15.1832C12.8618 15.1908 12.8846 15.1985 12.9075 15.1908C14.218 14.787 15.5361 14.1775 16.9076 13.1717C16.9228 13.1641 16.9305 13.1489 16.9305 13.1336C17.2657 9.68212 16.3743 6.68776 14.5685 4.02863C14.5609 4.02102 14.5533 4.0134 14.538 4.0134ZM6.34732 11.3126C5.56254 11.3126 4.90728 10.5888 4.90728 9.69736C4.90728 8.80591 5.5473 8.08208 6.34732 8.08208C7.15496 8.08208 7.79498 8.81353 7.78736 9.69736C7.78736 10.5888 7.14734 11.3126 6.34732 11.3126ZM11.6579 11.3126C10.8732 11.3126 10.2179 10.5888 10.2179 9.69736C10.2179 8.80591 10.8579 8.08208 11.6579 8.08208C12.4656 8.08208 13.1056 8.81353 13.098 9.69736C13.098 10.5888 12.4656 11.3126 11.6579 11.3126Z" fill="#333A4D"/>
</svg>
