<svg width="18" height="18" viewBox="0 0 18 18" fill="none" xmlns="http://www.w3.org/2000/svg">
<path d="M8.99812 6.66559C7.71277 6.66559 6.66383 7.71452 6.66383 8.99987C6.66383 10.2852 7.71277 11.3342 8.99812 11.3342C10.2835 11.3342 11.3324 10.2852 11.3324 8.99987C11.3324 7.71452 10.2835 6.66559 8.99812 6.66559ZM15.9992 8.99987C15.9992 8.03323 16.008 7.07536 15.9537 6.11047C15.8994 4.98973 15.6437 3.99508 14.8242 3.17554C14.0029 2.35425 13.01 2.10034 11.8893 2.04605C10.9226 1.99177 9.96475 2.00052 8.99987 2.00052C8.03323 2.00052 7.07536 1.99177 6.11047 2.04605C4.98974 2.10034 3.99508 2.356 3.17554 3.17554C2.35425 3.99683 2.10034 4.98973 2.04605 6.11047C1.99177 7.07711 2.00052 8.03499 2.00052 8.99987C2.00052 9.96475 1.99177 10.9244 2.04605 11.8893C2.10034 13.01 2.356 14.0047 3.17554 14.8242C3.99683 15.6455 4.98974 15.8994 6.11047 15.9537C7.07711 16.008 8.03499 15.9992 8.99987 15.9992C9.9665 15.9992 10.9244 16.008 11.8893 15.9537C13.01 15.8994 14.0047 15.6437 14.8242 14.8242C15.6455 14.0029 15.8994 13.01 15.9537 11.8893C16.0097 10.9244 15.9992 9.9665 15.9992 8.99987ZM8.99812 12.5915C7.01056 12.5915 5.40651 10.9874 5.40651 8.99987C5.40651 7.01231 7.01056 5.40826 8.99812 5.40826C10.9857 5.40826 12.5897 7.01231 12.5897 8.99987C12.5897 10.9874 10.9857 12.5915 8.99812 12.5915ZM12.7368 6.09996C12.2728 6.09996 11.898 5.72522 11.898 5.26116C11.898 4.79711 12.2728 4.42236 12.7368 4.42236C13.2009 4.42236 13.5756 4.79711 13.5756 5.26116C13.5758 5.37135 13.5542 5.48049 13.5121 5.58232C13.47 5.68415 13.4082 5.77668 13.3303 5.85459C13.2523 5.93251 13.1598 5.99429 13.058 6.0364C12.9562 6.0785 12.847 6.1001 12.7368 6.09996Z" fill="#333A4D"/>
</svg>
