<svg width="18" height="18" viewBox="0 0 18 18" fill="none" xmlns="http://www.w3.org/2000/svg">
<path fill-rule="evenodd" clip-rule="evenodd" d="M9.31224 6.92617L9.34042 7.40195L8.87076 7.34369C7.16119 7.12037 5.66767 6.363 4.39959 5.09102L3.77964 4.45988L3.61995 4.92595C3.2818 5.9649 3.49784 7.06211 4.20233 7.80006C4.57806 8.20787 4.49352 8.26613 3.84539 8.02338C3.61995 7.9457 3.42269 7.88744 3.40391 7.91657C3.33816 7.98454 3.56359 8.86814 3.74206 9.21769C3.98629 9.70318 4.48413 10.179 5.02893 10.4605L5.4892 10.6839L4.9444 10.6936C4.41838 10.6936 4.39959 10.7033 4.45595 10.9072C4.64381 11.5383 5.38588 12.2083 6.21248 12.4996L6.79486 12.7035L6.28763 13.0142C5.53617 13.4609 4.65321 13.7133 3.77024 13.7328C3.34755 13.7425 3 13.7813 3 13.8104C3 13.9075 4.14597 14.4513 4.81289 14.6649C6.81365 15.296 9.19013 15.0242 10.9748 13.9464C12.2429 13.1793 13.511 11.6549 14.1028 10.179C14.4222 9.39247 14.7415 7.95541 14.7415 7.26602C14.7415 6.81936 14.7697 6.76111 15.2957 6.22707C15.6057 5.91635 15.8969 5.57651 15.9532 5.47941C16.0472 5.29492 16.0378 5.29492 15.5587 5.45999C14.7603 5.75128 14.6476 5.71244 15.0421 5.2755C15.3333 4.96479 15.6808 4.40162 15.6808 4.23655C15.6808 4.20742 15.5399 4.25597 15.3803 4.34336C15.2112 4.44046 14.8355 4.58611 14.5537 4.67349L14.0464 4.83856L13.5862 4.51814C13.3325 4.34336 12.9756 4.14917 12.7877 4.09091C12.3087 3.95497 11.576 3.97439 11.1439 4.12975C9.96977 4.56669 9.2277 5.69303 9.31224 6.92617Z" fill="#333A4D"/>
</svg>
