<svg width="36" height="36" viewBox="0 0 36 36" fill="none" xmlns="http://www.w3.org/2000/svg">
<g id="devicon:linkedin" clip-path="url(#clip0_1014_5383)">
<path id="Vector" d="M32.625 0.84375H3.375C2.71134 0.836996 2.0721 1.09379 1.59755 1.5578C1.12301 2.0218 0.851909 2.6551 0.84375 3.31875V32.6869C0.853385 33.3495 1.12513 33.9814 1.59952 34.4442C2.0739 34.907 2.7123 35.163 3.375 35.1562H32.625C33.2887 35.1615 33.9275 34.9038 34.4018 34.4396C34.8761 33.9753 35.1474 33.3421 35.1562 32.6784V3.31031C35.1444 2.64861 34.8719 2.01833 34.3979 1.55645C33.9239 1.09458 33.2868 0.838457 32.625 0.84375Z" fill="#0076B2"/>
<path id="Vector_2" d="M5.92453 13.7053H11.018V30.0937H5.92453V13.7053ZM8.47266 5.54906C9.05685 5.54906 9.62792 5.72233 10.1136 6.04694C10.5993 6.37156 10.9778 6.83294 11.2013 7.37272C11.4247 7.9125 11.483 8.50642 11.3688 9.07934C11.2547 9.65227 10.9731 10.1785 10.5598 10.5914C10.1466 11.0042 9.62009 11.2853 9.04706 11.3989C8.47402 11.5125 7.88016 11.4537 7.3406 11.2297C6.80103 11.0058 6.34001 10.6268 6.01586 10.1408C5.6917 9.65479 5.51898 9.08356 5.51953 8.49937C5.52028 7.71664 5.83174 6.96622 6.38548 6.41301C6.93921 5.8598 7.68993 5.54906 8.47266 5.54906ZM14.213 13.7053H19.0955V15.9553H19.163C19.8436 14.6672 21.503 13.3087 23.9808 13.3087C29.1389 13.2975 30.0952 16.6922 30.0952 21.0937V30.0937H25.0017V22.1203C25.0017 20.2219 24.968 17.7778 22.3552 17.7778C19.7423 17.7778 19.298 19.8478 19.298 21.9966V30.0937H14.213V13.7053Z" fill="white"/>
</g>
<defs>
<clipPath id="clip0_1014_5383">
<rect width="36" height="36" fill="white"/>
</clipPath>
</defs>
</svg>
