<svg width="36" height="36" viewBox="0 0 36 36" fill="none" xmlns="http://www.w3.org/2000/svg">
<g id="devicon:facebook">
<path id="Vector" d="M32.8088 1.35844H3.19594C2.18163 1.35844 1.35938 2.18069 1.35938 3.195V32.8078C1.35938 33.8221 2.18163 34.6444 3.19594 34.6444H32.8088C33.8231 34.6444 34.6453 33.8221 34.6453 32.8078V3.195C34.6453 2.18069 33.8231 1.35844 32.8088 1.35844Z" fill="#3D5A98"/>
<path id="Vector_2" d="M24.3239 34.6416V21.7519H28.6495L29.2964 16.7288H24.3239V13.5225C24.3239 12.0684 24.7289 11.0756 26.813 11.0756H29.4736V6.57563C28.1852 6.44136 26.8905 6.37751 25.5952 6.38438C21.7645 6.38438 19.1264 8.71876 19.1264 13.0247V16.7288H14.8008V21.7519H19.1264V34.6416H24.3239Z" fill="white"/>
</g>
</svg>
