<svg width="36" height="36" viewBox="0 0 36 36" fill="none" xmlns="http://www.w3.org/2000/svg">
<g id="twemoji:slightly-smiling-face" clip-path="url(#clip0_308_3941)">
<path id="Vector" d="M18 36C27.9411 36 36 27.9411 36 18C36 8.05887 27.9411 0 18 0C8.05887 0 0 8.05887 0 18C0 27.9411 8.05887 36 18 36Z" fill="#BDBDBD"/>
<path id="Vector_2" d="M10.515 23.6209C10.56 23.7999 11.683 27.9999 18 27.9999C24.318 27.9999 25.44 23.7999 25.485 23.6209C25.5113 23.5154 25.5024 23.4041 25.4596 23.3041C25.4168 23.2041 25.3425 23.1208 25.248 23.0669C25.1531 23.0133 25.0434 22.9918 24.9352 23.0057C24.8271 23.0195 24.7263 23.068 24.648 23.1439C24.629 23.1629 22.694 24.9999 18 24.9999C13.306 24.9999 11.37 23.1629 11.352 23.1449C11.2746 23.0684 11.1744 23.0192 11.0666 23.0045C10.9587 22.9899 10.849 23.0108 10.754 23.0639C10.6587 23.1178 10.5837 23.2015 10.5405 23.3021C10.4973 23.4027 10.4884 23.5147 10.515 23.6209Z" fill="white"/>
<path id="Vector_3" d="M12 17C13.3807 17 14.5 15.433 14.5 13.5C14.5 11.567 13.3807 10 12 10C10.6193 10 9.5 11.567 9.5 13.5C9.5 15.433 10.6193 17 12 17Z" fill="white"/>
<path id="Vector_4" d="M24 17C25.3807 17 26.5 15.433 26.5 13.5C26.5 11.567 25.3807 10 24 10C22.6193 10 21.5 11.567 21.5 13.5C21.5 15.433 22.6193 17 24 17Z" fill="white"/>
</g>
<defs>
<clipPath id="clip0_308_3941">
<rect width="36" height="36" fill="white"/>
</clipPath>
</defs>
</svg>
