<svg width="36" height="36" viewBox="0 0 36 36" fill="none" xmlns="http://www.w3.org/2000/svg">
<g id="twemoji:enraged-face" clip-path="url(#clip0_308_3938)">
<path id="Vector" d="M36 18C36 27.941 27.941 36 18 36C8.06 36 0 27.941 0 18C0 8.06 8.06 0 18 0C27.941 0 36 8.06 36 18Z" fill="#BDBDBD"/>
<path id="Vector_2" d="M25.4847 29.879C25.4397 29.7 24.3167 25.5 17.9997 25.5C11.6817 25.5 10.5597 29.7 10.5147 29.879C10.4885 29.9846 10.4974 30.0958 10.5402 30.1958C10.583 30.2958 10.6573 30.3791 10.7517 30.433C10.8467 30.4863 10.9564 30.5077 11.0645 30.4938C11.1726 30.4799 11.2733 30.4316 11.3517 30.356C11.3707 30.337 13.3057 28.5 17.9997 28.5C22.6937 28.5 24.6297 30.337 24.6477 30.355C24.7252 30.4315 24.8253 30.4808 24.9332 30.4954C25.0411 30.51 25.1508 30.4892 25.2457 30.436C25.3411 30.3821 25.4161 30.2985 25.4593 30.1978C25.5024 30.0972 25.5114 29.9852 25.4847 29.879ZM15.7067 17.293C12.4517 14.038 7.22074 14 6.99974 14C6.74225 14.0114 6.49908 14.1217 6.32086 14.3078C6.14264 14.494 6.0431 14.7418 6.04297 14.9995C6.04284 15.2573 6.14213 15.5051 6.32017 15.6915C6.4982 15.8778 6.74126 15.9884 6.99874 16C7.02774 16 8.92374 16.022 10.9817 16.737C10.3887 17.377 9.99974 18.371 9.99974 19.5C9.99974 21.434 11.1187 23 12.4997 23C13.8807 23 14.9997 21.434 14.9997 19.5C14.9997 19.326 14.9807 19.16 14.9627 18.993C14.9757 18.993 14.9877 19 14.9997 19C15.1977 19.0004 15.3913 18.942 15.5561 18.8322C15.7208 18.7224 15.8492 18.5662 15.9249 18.3833C16.0007 18.2004 16.0204 17.9991 15.9815 17.805C15.9427 17.6109 15.847 17.4327 15.7067 17.293ZM28.9997 14C28.7787 14 23.5487 14.038 20.2927 17.293C20.1524 17.4327 20.0568 17.6109 20.018 17.805C19.9791 17.9991 19.9988 18.2004 20.0746 18.3833C20.1503 18.5662 20.2787 18.7224 20.4434 18.8322C20.6081 18.942 20.8018 19.0004 20.9997 19C21.0127 19 21.0237 18.993 21.0357 18.993C21.0197 19.16 20.9997 19.326 20.9997 19.5C20.9997 21.434 22.1187 23 23.4997 23C24.8807 23 25.9997 21.434 25.9997 19.5C25.9997 18.371 25.6107 17.377 25.0177 16.737C26.3027 16.2985 27.6449 16.0502 29.0017 16C29.1331 15.9999 29.2631 15.9739 29.3843 15.9235C29.5056 15.8731 29.6158 15.7994 29.7086 15.7064C29.8013 15.6134 29.8749 15.5031 29.925 15.3818C29.9751 15.2604 30.0009 15.1303 30.0007 14.999C30.0006 14.8677 29.9746 14.7377 29.9242 14.6164C29.8739 14.4951 29.8001 14.385 29.7071 14.2922C29.6142 14.1994 29.5039 14.1259 29.3825 14.0757C29.2611 14.0256 29.1311 13.9999 28.9997 14Z" fill="white"/>
</g>
<defs>
<clipPath id="clip0_308_3938">
<rect width="36" height="36" fill="white"/>
</clipPath>
</defs>
</svg>
