<svg width="24" height="24" viewBox="0 0 24 24" fill="none" xmlns="http://www.w3.org/2000/svg">
<path d="M16.3541 5.66772C14.714 5.66772 13.4319 6.90288 12.2711 8.47208C10.6762 6.44125 9.34273 5.66772 7.74694 5.66772C4.49335 5.66772 2 9.90306 2 14.3847C2 17.1891 3.35655 18.9585 5.62927 18.9585C7.26493 18.9585 8.44161 18.1877 10.5336 14.5309C10.5336 14.5309 11.4055 12.9918 12.0044 11.9312C12.2153 12.2706 12.4359 12.6356 12.669 13.0282L13.6498 14.678C15.5602 17.8749 16.6252 18.9585 18.5533 18.9585C20.7684 18.9585 22 17.1652 22 14.3023C22 9.60889 19.4508 5.66772 16.3541 5.66772ZM8.9378 13.5412C7.24278 16.1994 6.65621 16.7957 5.71256 16.7957C4.74056 16.7957 4.16286 15.9424 4.16286 14.421C4.16286 11.1675 5.78522 7.84033 7.71948 7.84033C8.76679 7.84033 9.64221 8.44462 10.9828 10.3638C9.70955 12.3167 8.9378 13.5412 8.9378 13.5412ZM15.3386 13.2072L14.1655 11.2499C13.8708 10.7685 13.5659 10.2935 13.2511 9.82509C14.3082 8.19386 15.1792 7.38047 16.2167 7.38047C18.3698 7.38047 20.0932 10.5525 20.0932 14.4476C20.0932 15.9327 19.6068 16.7948 18.5993 16.7948C17.6335 16.7948 17.1728 16.1577 15.3386 13.2072Z" fill="#333A4D"/>
</svg>
